<svg xmlns="http://www.w3.org/2000/svg" id="ICONS" width="44" height="44" viewBox="0 0 44 44">
  <defs>
    <style>
      .fill {
        fill: #222;
      }
    </style>
  </defs>
  <rect id="Canvas" fill="#ff13dc" opacity="0" width="44" height="44" /><path class="fill" d="m42.5,34.5h-5v-5c0-.82812-.67139-1.5-1.5-1.5s-1.5.67188-1.5,1.5v5h-5c-.82861,0-1.5.67188-1.5,1.5s.67139,1.5,1.5,1.5h5v5c0,.82812.67139,1.5,1.5,1.5s1.5-.67188,1.5-1.5v-5h5c.82861,0,1.5-.67188,1.5-1.5s-.67139-1.5-1.5-1.5Z" />
  <path class="fill" d="m36.88916,23.15039c-.55206-3.59888-2.72717-6.64624-5.70105-8.44385.01318-.23047.03503-.4585.03503-.69189,0-6.625-5.38965-12.01465-12.01416-12.01465S7.19482,7.38965,7.19482,14.01465c0,.35498.02295.70435.05328,1.05176-3.16522,2.16577-5.24811,5.80273-5.24811,9.91895,0,6.625,5.38965,12.01465,12.01416,12.01465,1.98444,0,3.85333-.4917,5.50439-1.34717,1.15869.60229,2.42413,1.03027,3.771,1.22412.07275.01074.14453.01562.21582.01562.7334,0,1.375-.53906,1.48291-1.28613.11816-.82031-.45117-1.58008-1.271-1.69824-.46204-.06665-.90887-.17603-1.34448-.31006,2.25061-2.18506,3.65601-5.23584,3.65601-8.61279,0-.35498-.02295-.70459-.05328-1.052,2.11505-1.44751,3.73682-3.55566,4.58606-6.02173,1.75403,1.37646,3.00726,3.38037,3.36176,5.69385.12549.81738.88916,1.37109,1.71045,1.25488.81885-.125,1.38086-.89062,1.25537-1.70996ZM19.20898,5c4.76544,0,8.66901,3.72021,8.9834,8.40796-1.01801-.28394-2.08447-.43628-3.17822-.43628-1.9826,0-3.84985.49097-5.49982,1.34521-1.65009-.85425-3.51746-1.34521-5.50018-1.34521-1.32825,0-2.60272.22534-3.79816.62524.22052-4.77612,4.16376-8.59692,8.99298-8.59692Zm3.42432,17.34863c-1.05676.43579-2.21216.67969-3.42432.67969-1.00275,0-1.96448-.17163-2.86621-.4751.53058-1.88794,1.65948-3.52344,3.17157-4.69312,1.45795,1.12793,2.5661,2.68555,3.11896,4.48853Zm-8.97632-1.2478c-1.4325-1.12476-2.52039-2.66772-3.06665-4.44946,1.05664-.43579,2.21185-.67969,3.42383-.67969.92065,0,1.80896.14014,2.64624.39795-1.34576,1.30493-2.38226,2.92114-3.00342,4.7312Zm-8.65698,3.88452c0-2.65625,1.16217-5.04053,2.99652-6.69165.9657,2.521,2.75323,4.63062,5.03815,6.00732-.01294.22778-.03467.45337-.03467.68433,0,3.33594,1.39783,6.41162,3.66364,8.61597-.8382.2583-1.72766.39868-2.64948.39868-4.97021,0-9.01416-4.04395-9.01416-9.01465Zm14.51599,7.125c-1.99194-1.54834-3.31079-3.90308-3.4881-6.52319,1.01501.27954,2.07849.44116,3.18109.44116,1.32843,0,2.60303-.22559,3.79865-.62549-.12585,2.72705-1.46332,5.13745-3.49164,6.70752Zm5.711-11.4043c-.63226-1.65039-1.61169-3.12744-2.8587-4.33667.83716-.25757,1.72534-.39771,2.64587-.39771.9953,0,1.9577.1748,2.86407.4834-.46863,1.66162-1.40167,3.12598-2.65125,4.25098Z" />
</svg>