<svg xmlns="http://www.w3.org/2000/svg" id="ICONS" width="44" height="44" viewBox="0 0 44 44">
  <defs>
    <style>
      .fill {
        fill: #222;
      }
    </style>
  </defs>
  <rect id="Canvas" fill="#ff13dc" opacity="0" width="44" height="44" /><path class="fill" d="m17.5,19.49414c-2.20605,0-4-1.79395-4-4v-3.99414c0-2.20605,1.79395-4,4-4s4,1.79395,4,4v3.99414c0,2.20605-1.79395,4-4,4Zm0-8.99414c-.55176,0-1,.44824-1,1v3.99414c0,.55176.44824,1,1,1s1-.44824,1-1v-3.99414c0-.55176-.44824-1-1-1Z" />
  <path class="fill" d="m13.5,33h-2c-5.23828,0-9.5-4.26172-9.5-9.5v-12C2,6.26172,6.26172,2,11.5,2h12c5.23828,0,9.5,4.26172,9.5,9.5v3.5c0,.82812-.67188,1.5-1.5,1.5s-1.5-.67188-1.5-1.5v-3.5c0-3.58398-2.91602-6.5-6.5-6.5h-12c-3.58398,0-6.5,2.91602-6.5,6.5v12c0,3.58398,2.91602,6.5,6.5,6.5h2c.82812,0,1.5.67188,1.5,1.5s-.67188,1.5-1.5,1.5Z" />
  <path class="fill" d="m37.4873,30.15527h-4v-4c0-.82812-.67188-1.5-1.5-1.5s-1.5.67188-1.5,1.5v4h-4c-.82812,0-1.5.67188-1.5,1.5s.67188,1.5,1.5,1.5h4v4c0,.82812.67188,1.5,1.5,1.5s1.5-.67188,1.5-1.5v-4h4c.82812,0,1.5-.67188,1.5-1.5s-.67188-1.5-1.5-1.5Z" />
  <path class="fill" d="m24.72949,15.52246c-.82324-.12109-1.58398.43457-1.71191,1.25293-.38477,2.48438-2.75684,4.3584-5.51758,4.3584s-5.13281-1.87402-5.51758-4.3584c-.12695-.81836-.8877-1.37305-1.71191-1.25293-.81836.12695-1.37988.89355-1.25293,1.71191.53589,3.45898,3.42053,6.16748,6.98242,6.77124v1.49438h-.68848c-.82812,0-1.5.67188-1.5,1.5s.67188,1.5,1.5,1.5h2.62085c.12939-.51855.28674-1.02588.46948-1.52075.00391-.01001.00708-.02026.01099-.03027.18445-.49609.39478-.97974.63135-1.44897h-.04419v-1.49438c3.56189-.60376,6.44653-3.31226,6.98242-6.77124.12695-.81836-.43457-1.58496-1.25293-1.71191Z" />
  <path class="fill" d="m31.9873,43.98047c-6.61719,0-12-5.38281-12-12s5.38281-12,12-12,12,5.38281,12,12-5.38281,12-12,12Zm0-21c-4.96289,0-9,4.03711-9,9s4.03711,9,9,9,9-4.03711,9-9-4.03711-9-9-9Z" />
</svg>