<svg xmlns="http://www.w3.org/2000/svg" id="ICONS" width="44" height="44" viewBox="0 0 44 44">
  <defs>
    <style>
      .fill {
        fill: #222;
      }
    </style>
  </defs>
  <rect id="Canvas" fill="#ff13dc" opacity="0" width="44" height="44" /><path class="fill" d="m37.5,30.5h-4v-4c0-.82812-.67188-1.5-1.5-1.5s-1.5.67188-1.5,1.5v4h-4c-.82812,0-1.5.67188-1.5,1.5s.67188,1.5,1.5,1.5h4v4c0,.82812.67188,1.5,1.5,1.5s1.5-.67188,1.5-1.5v-4h4c.82812,0,1.5-.67188,1.5-1.5s-.67188-1.5-1.5-1.5Z" />
  <path class="fill" d="m32,44c-6.61719,0-12-5.38281-12-12s5.38281-12,12-12,12,5.38281,12,12-5.38281,12-12,12Zm0-21c-4.96289,0-9,4.03711-9,9s4.03711,9,9,9,9-4.03711,9-9-4.03711-9-9-9Z" />
  <path class="fill" d="m18.5896,36h-1.59009c0-.00171.00049-.00317.00049-.00488V7h10.5c.27539,0,.5.22461.5.5v2c0,.82812.67188,1.5,1.5,1.5s1.5-.67188,1.5-1.5v-2c0-1.92969-1.57031-3.5-3.5-3.5H3.5c-1.92969,0-3.5,1.57031-3.5,3.5v2c0,.82812.67188,1.5,1.5,1.5s1.5-.67188,1.5-1.5v-2c0-.27539.22461-.5.5-.5h10.5v28.99512c0,.00171.00049.00317.00049.00488h-2.50049c-.82812,0-1.5.67188-1.5,1.5s.67188,1.5,1.5,1.5h8c.12622,0,.24683-.02026.36401-.0498-.53125-.92383-.9635-1.90991-1.27441-2.9502Z" />
</svg>