<svg width="22" height="22" viewBox="0 0 22 22" fill="none" xmlns="http://www.w3.org/2000/svg">
<g id="Frame">
<path id="iconFill" fill-rule="evenodd" clip-rule="evenodd" d="M19.5556 6.33448V3.66515C19.5556 2.31704 18.4592 1.2207 17.1111 1.2207H14.6667C13.3186 1.2207 12.2222 2.31704 12.2222 3.66515V6.10959H9.77778V3.66515C9.77778 2.31704 8.68144 1.2207 7.33333 1.2207H4.88889C3.54078 1.2207 2.44444 2.31704 2.44444 3.66515V6.33448C1.02544 6.84048 0 8.18493 0 9.77626V17.1096C0 19.1311 1.64511 20.7763 3.66667 20.7763H18.3333C20.3549 20.7763 22 19.1311 22 17.1096V9.77626C22 8.18493 20.9746 6.84048 19.5556 6.33448ZM14.6667 3.66515H17.1111V6.10959H14.6667V3.66515ZM7.33333 3.66515V6.10959H4.88889V3.66515H7.33333ZM19.5556 17.1096C19.5556 17.7843 19.0068 18.3318 18.3333 18.3318H3.66667C2.99322 18.3318 2.44444 17.7843 2.44444 17.1096V9.77626C2.44444 9.10159 2.99322 8.55404 3.66667 8.55404H18.3333C19.0068 8.55404 19.5556 9.10159 19.5556 9.77626V17.1096Z" fill="#292929"/>
</g>
</svg>
