<svg xmlns="http://www.w3.org/2000/svg" width="40" height="40" viewBox="0 0 40 40">
  <g id="EDU-Classroom-ready-AI" transform="translate(-4889 -3318)">
    <rect id="Rectangle_758350" data-name="Rectangle 758350" width="40" height="40" transform="translate(4889 3318)" fill="none"/>
    <g id="SX_ArtificalIntelligence_44_N" transform="translate(4887.229 3319.16)">
      <path id="Path_1068550" data-name="Path 1068550" d="M23.615,26.17l-2.535-2.49.247-3.578a1.21,1.21,0,0,0-.358-.953,1.2,1.2,0,0,0-.847-.349.075.075,0,0,0-.019,0,1.192,1.192,0,0,0-.857.376L16.8,21.751,13.286,21.5a1.246,1.246,0,0,0-.952.373,1.223,1.223,0,0,0,.028,1.708l2.536,2.5-.249,3.582a1.22,1.22,0,0,0,.356.941,1.2,1.2,0,0,0,.853.353h.015a1.2,1.2,0,0,0,.859-.373l2.446-2.564,3.511.239a1.216,1.216,0,0,0,.926-2.082Z" transform="translate(-0.708 -1.479)" fill="#242424"/>
      <path id="Path_1068551" data-name="Path 1068551" d="M23.73,38.325H13.6A10.607,10.607,0,0,1,3,27.73V17.6A10.607,10.607,0,0,1,13.6,7h3.167a1.382,1.382,0,0,1,0,2.764H13.6A7.84,7.84,0,0,0,5.764,17.6V27.73A7.84,7.84,0,0,0,13.6,35.561H23.73a7.84,7.84,0,0,0,7.831-7.831V23.584a1.382,1.382,0,1,1,2.764,0V27.73A10.607,10.607,0,0,1,23.73,38.325Z" transform="translate(0 -0.551)" fill="#242424"/>
      <path id="Path_1068552" data-name="Path 1068552" d="M29.236,19.751a1.934,1.934,0,0,1-1.369-.564,1.974,1.974,0,0,1-.579-1.542l.4-5.83-4.1-4.056A1.99,1.99,0,0,1,23.538,5a1.893,1.893,0,0,1,1.55-.606l5.662.408L34.694.614A1.937,1.937,0,0,1,36.078,0a1.961,1.961,0,0,1,1.983,2.1l-.4,5.83,4.1,4.059a1.987,1.987,0,0,1,.046,2.759,1.922,1.922,0,0,1-1.543.608L34.6,14.952l-3.943,4.186a1.936,1.936,0,0,1-1.385.613h-.033ZM27.056,7.3l2.832,2.8a1.979,1.979,0,0,1,.58,1.539L30.2,15.591l2.652-2.816a1.95,1.95,0,0,1,1.545-.609l3.9.282-2.832-2.8A1.961,1.961,0,0,1,34.878,8.1l.271-3.944L32.5,6.976a1.951,1.951,0,0,1-1.562.608l-3.88-.28Z" transform="translate(-1.574)" fill="#242424"/>
    </g>
  </g>
</svg>
