<svg xmlns="http://www.w3.org/2000/svg" id="ICONS" width="44" height="44" viewBox="0 0 44 44">
  <defs>
    <style>
      .fill {
        fill: #222;
      }
    </style>
  </defs>
  <rect id="Canvas" fill="#ff13dc" opacity="0" width="44" height="44" /><path class="fill" d="m22.5459,26.09375c-.81592,0-1.48486-.6543-1.49951-1.47363-.02783-1.56738.81592-2.99414,2.20166-3.72266,1.4917-.78516,3.2876-.58789,4.57373.50391.63184.53516.70947,1.48242.17383,2.11426-.53662.63281-1.48291.70996-2.11426.17285-.34814-.29492-.8335-.34863-1.23682-.13672-.37646.19824-.60596.58789-.59814,1.01562.01465.82812-.64502,1.51172-1.47314,1.52637h-.02734Zm5.17432,9.52246c.30518-.77051-.07178-1.6416-.8418-1.94727-1.00586-.39844-1.65576-1.3584-1.65576-2.44531,0-1.44824,1.17432-2.62695,2.61768-2.62695.59717,0,1.15967.19629,1.62598.56836.64941.5166,1.59229.41016,2.10791-.23926.51611-.64844.40918-1.5918-.23877-2.1084-.98877-.78711-2.22998-1.2207-3.49512-1.2207-3.09766,0-5.61768,2.52441-5.61768,5.62695,0,2.3252,1.39355,4.37891,3.55029,5.23438.18115.07227.36816.10547.55225.10547.59717,0,1.16162-.3584,1.39502-.94727Zm16.27979.9873c0-4.07812-3.31152-7.39648-7.38232-7.39648s-7.38232,3.31836-7.38232,7.39648,3.31152,7.39648,7.38232,7.39648,7.38232-3.31836,7.38232-7.39648Zm-3,0c0,2.42383-1.96582,4.39648-4.38232,4.39648s-4.38232-1.97266-4.38232-4.39648,1.96582-4.39648,4.38232-4.39648,4.38232,1.97266,4.38232,4.39648ZM27.5,4H3.5c-1.92969,0-3.5,1.57031-3.5,3.5v2c0,.82812.67139,1.5,1.5,1.5s1.5-.67188,1.5-1.5v-2c0-.27539.22412-.5.5-.5h10.5v28.99512c0,.00171.00049.00317.00049.00488h-2.50049c-.82861,0-1.5.67188-1.5,1.5s.67139,1.5,1.5,1.5h8c.82861,0,1.5-.67188,1.5-1.5s-.67139-1.5-1.5-1.5h-2.50049c0-.00171.00049-.00317.00049-.00488V7h10.5c.27588,0,.5.22461.5.5v2c0,.82812.67139,1.5,1.5,1.5s1.5-.67188,1.5-1.5v-2c0-1.92969-1.57031-3.5-3.5-3.5Z" />
</svg>