<svg xmlns="http://www.w3.org/2000/svg" id="ICONS" width="44" height="44" viewBox="0 0 44 44">
  <defs>
    <style>
      .fill {
        fill: #222;
      }
    </style>
  </defs>
  <rect id="Canvas" fill="#ff13dc" opacity="0" width="44" height="44" /><path class="fill" d="m5.07129,12.81055c-.55664,0-1.09473-.30176-1.37109-.8291-1.56641-2.99316-.41016-6.70605,2.57617-8.27734,1.44727-.76172,3.10449-.91309,4.66309-.42578,1.56348.48633,2.84277,1.55371,3.60352,3.00586.39648.75684.10449,1.69141-.65137,2.08691-.75684.39551-1.69043.10547-2.08691-.65137-.37695-.71973-1.01074-1.24902-1.78516-1.49023-.76953-.23828-1.58789-.16406-2.30371.21094-1.48145.7793-2.05371,2.62109-1.27539,4.10742.39551.75684.10352,1.69043-.65332,2.08691-.22852.11914-.47363.17578-.71582.17578Z" />
  <path class="fill" d="m13.81055,29.59082c-4.82617,0-8.75195-3.93359-8.75195-8.76953s3.92578-8.76953,8.75195-8.76953c2.82812,0,5.49609,1.38086,7.1377,3.69336.49414.69629.33008,1.66113-.36621,2.15527-.69531.49316-1.66016.33105-2.15527-.36621-1.0625-1.49707-2.78809-2.39062-4.61621-2.39062-3.12109,0-5.66016,2.54688-5.66016,5.67773s2.53906,5.67773,5.66016,5.67773c.85352,0,1.5459.69238,1.5459,1.5459s-.69238,1.5459-1.5459,1.5459Z" />
  <path class="fill" d="m29.4541,41c-6.36621,0-11.5459-5.19043-11.5459-11.57031s5.17969-11.57031,11.5459-11.57031,11.5459,5.19043,11.5459,11.57031-5.17969,11.57031-11.5459,11.57031Zm0-20.04883c-4.66113,0-8.4541,3.80371-8.4541,8.47852s3.79297,8.47852,8.4541,8.47852,8.4541-3.80371,8.4541-8.47852-3.79297-8.47852-8.4541-8.47852Z" />
</svg>