<svg width="22" height="22" viewBox="0 0 22 22" fill="none" xmlns="http://www.w3.org/2000/svg">
<g id="Frame">
<path id="iconFill" fill-rule="evenodd" clip-rule="evenodd" d="M7.33377 20.7778H14.6671C18.0366 20.7778 20.7782 18.0361 20.7782 14.6667V8.34548C20.7782 7.36675 20.3969 6.4453 19.704 5.75304L15.0252 1.07421C14.3329 0.381944 13.4115 0 12.4321 0H7.33377C3.9643 0 1.22266 2.74164 1.22266 6.11111V14.6667C1.22266 18.0361 3.9643 20.7778 7.33377 20.7778ZM13.4449 2.95052L17.8277 7.33333H14.6671C13.9933 7.33333 13.4449 6.78549 13.4449 6.11111V2.95052ZM3.6671 6.11111C3.6671 4.08919 5.31185 2.44444 7.33377 2.44444H11.0004V6.11111C11.0004 8.13303 12.6452 9.77778 14.6671 9.77778H18.3338V14.6667C18.3338 16.6886 16.689 18.3333 14.6671 18.3333H7.33377C5.31185 18.3333 3.6671 16.6886 3.6671 14.6667V6.11111Z" fill="#292929"/>
</g>
</svg>
