<svg width="18" height="18" viewBox="0 0 18 18" fill="none" xmlns="http://www.w3.org/2000/svg">
    <g clip-path="url(#clip0_2_7088)">
        <path fill-rule="evenodd" clip-rule="evenodd"
            d="M16.5044 10.1094C15.5728 8.98144 15.1001 7.95117 15.1001 7.04785C15.1001 4.48242 13.9356 2.72656 11.6338 1.82715C11.1875 0.72558 10.1533 0 9.00002 0C7.84475 0 6.81154 0.72558 6.3677 1.82715C4.06741 2.72461 2.90188 4.48047 2.90188 7.04688C2.90139 7.9502 2.42825 8.98047 1.49612 10.1084C0.75589 11.0039 0.60452 12.2158 1.1011 13.2715C1.60305 14.3379 2.64553 15 3.82131 15H6.00002V15.4004C6.00002 16.834 7.34572 18 9.00002 18C10.6543 18 12 16.834 12 15.4004V15H14.1787C15.3545 15 16.397 14.3379 16.8989 13.2725C17.3955 12.2168 17.2446 11.0049 16.5044 10.1094ZM10 15.4004C10 15.6836 9.57229 16 9.00002 16C8.42775 16 8.00002 15.6836 8.00002 15.4004V15H10V15.4004ZM15.0894 12.4199C15.0254 12.5557 14.77 13 14.1787 13H3.82131C3.23 13 2.97463 12.5557 2.91067 12.419C2.83108 12.25 2.68411 11.8105 3.03762 11.3828C4.29104 9.86524 4.9009 8.44727 4.90188 7.04786C4.90188 4.80079 6.06057 4.07032 7.19094 3.65333C7.66506 3.48048 8.05032 3.09474 8.19631 2.64649C8.3008 2.3252 8.58986 2.00001 9.00002 2.00001C9.41018 2.00001 9.7007 2.32618 9.80764 2.65235C9.9551 3.09766 10.3399 3.48145 10.8071 3.65235C11.9409 4.07032 13.1001 4.80176 13.1001 7.04786C13.1001 8.44825 13.7095 9.8672 14.9629 11.3828C15.3164 11.8105 15.169 12.251 15.0894 12.4199Z"
            fill="#ffffff" />
    </g>
    <defs>
        <clipPath id="clip0_2_7088">
            <rect width="18" height="18" fill="white" />
        </clipPath>
    </defs>
</svg>