<?xml version="1.0" encoding="UTF-8"?>
<svg xmlns="http://www.w3.org/2000/svg" width="22" height="22" viewBox="0 0 22 22">
  <g id="b" data-name="Wiki">
    <rect x="-319" y="-3544.42838" width="3230" height="4539" fill="none" stroke="var(--R=232 G=232 B=232, #e8e8e8)" stroke-miterlimit="10" stroke-width="20"/>
  </g>
  <g id="g" data-name="ICONS">
    <path d="m14.50928,9.81576h2.89014v.21484c0,.55273.44775,1,1,1s1-.44727,1-1v-.56055c0-.9873-.36914-1.93066-1.03906-2.65723l-4.19531-4.54492c-.73975-.80078-1.78857-1.25977-2.87793-1.25977h-5.04395C3.54688,1.00814,1.35352,3.20248,1.35352,5.89877v9.23828c0,2.69629,2.19336,4.88965,4.88965,4.88965h4.1333c.55225,0,1-.44727,1-1s-.44775-1-1-1h-4.1333c-1.59326,0-2.88965-1.2959-2.88965-2.88965V5.89877c0-1.59375,1.29639-2.89062,2.88965-2.89062h4.34863v2.89062c0,2.16016,1.75732,3.91699,3.91748,3.91699Zm2.05414-2h-2.05414c-1.05713,0-1.91748-.86035-1.91748-1.91699v-2.36499c.03381.03174.07239.05737.104.09155l3.86761,4.19043Z" fill="#222" stroke-width="0"/>
    <path d="m19.26221,14.81112v-.71997c0-1.54883-1.25977-2.80859-2.80811-2.80859-1.54883,0-2.80859,1.25977-2.80859,2.80859v.71997c-.66827.33569-1.13232,1.02075-1.13232,1.81812v2.08008c0,1.125.91504,2.04004,2.04004,2.04004h3.80127c1.125,0,2.04053-.91504,2.04053-2.04004v-2.08008c0-.79736-.46436-1.48242-1.13281-1.81812Zm-2.80811-2.02856c.72119,0,1.30811.58691,1.30811,1.30859v.49707h-2.6167v-.49707c0-.72168.58691-1.30859,1.30859-1.30859Zm2.44092,5.92676c0,.29785-.24268.54004-.54053.54004h-3.80127c-.29785,0-.54004-.24219-.54004-.54004v-2.08008c0-.29785.24219-.54102.54004-.54102h3.80127c.29785,0,.54053.24316.54053.54102v2.08008Z" fill="#222" stroke-width="0"/>
    <path d="m16.45947,16.59798c-.41406,0-.75.33594-.75.75v.63086c0,.41406.33594.75.75.75s.75-.33594.75-.75v-.63086c0-.41406-.33594-.75-.75-.75Z" fill="#222" stroke-width="0"/>
  </g>
</svg>