<?xml version="1.0" encoding="UTF-8"?>
<svg xmlns="http://www.w3.org/2000/svg" width="22" height="22" viewBox="0 0 22 22">
  <g id="b" data-name="Wiki">
    <rect x="-739.01769" y="-3544.66503" width="3230" height="4539" fill="none" stroke="var(--R=232 G=232 B=232, #e8e8e8)" stroke-miterlimit="10" stroke-width="20"/>
  </g>
  <g id="g" data-name="ICONS">
    <path d="m20.9668,9.4756c-.44971-1.79004-1.62744-3.01465-3.14209-3.31738.04492-1.30664-.47852-2.57129-1.51416-3.66016-.93164-.97852-2.521-1.58496-3.93555-1.48535-2.15674.06738-3.92969,1.26953-4.73633,3.13867-.14111-.0127-.28125-.01953-.41943-.01953h-.00342c-1.25537.00586-2.50977.58203-3.33008,1.63867-.68018.87695-.98682,1.94336-.89844,3.0791-1.19531.4873-2.00293,1.73047-2.00293,3.26367,0,2.06445,1.31592,3.57617,3.25342,3.67871h4.46387c.55225,0,1-.44727,1-1s-.44775-1-1-1l-4.41016.00098c-.96387-.05078-1.30713-.90137-1.30713-1.67969,0-.86133.48584-1.48633,1.15527-1.48633h1.32227l-.35986-1.27246c-.32422-1.14355.01904-1.91406.36377-2.3584.4165-.53613,1.04785-.86523,1.68018-.86523.30127.00098.5918.03809.87451.12305l1.01367.30469.24658-1.0293c.36621-1.52637,1.54639-2.46777,3.18896-2.51953.83252-.06738,1.87012.31836,2.3916.86719.6709.7041.99512,1.4541.96338,2.26758,0,.17578-.02783.44434-.07764.80762l-.16992,1.24121,1.24756-.10938c.07275-.00586.18506-.00391.33496.00293.88379.03711,1.58154.73926,1.86768,1.87695.13428.53516.68164.85938,1.21338.72559.53564-.13477.86084-.67773.72607-1.21387Z" fill="#222" stroke-width="0"/>
    <path d="m19.43848,16.1504c-.396-.12598-.81592.09766-.93896.49316-.04639.14844-.10352.29297-.16943.43164-.55664,1.16602-1.75732,1.91895-3.05957,1.91895-.74396,0-1.43201-.2583-2.0058-.68262h.1889c.41406,0,.75-.33594.75-.75s-.33594-.75-.75-.75h-2.30615c-.41406,0-.75.33594-.75.75v2.28711c0,.41406.33594.75.75.75s.75-.33594.75-.75v-.69727c.89661.85449,2.09265,1.34277,3.37305,1.34277,1.87646,0,3.60889-1.08789,4.41309-2.77246.09717-.20312.18066-.41406.24854-.63281.12305-.39551-.09814-.81543-.49365-.93848Z" fill="#222" stroke-width="0"/>
    <path d="m16.12549,14.37501c0,.41406.33594.75.75.75h2.30615c.41406,0,.75-.33594.75-.75v-2.28613c0-.41406-.33594-.75-.75-.75s-.75.33594-.75.75v.24219c-.87262-.7334-1.98627-1.15332-3.1543-1.15332-1.87695,0-3.60889,1.08789-4.41211,2.77148-.09717.20312-.18018.41406-.24902.63184-.12402.39551.09619.81641.49121.94043.07471.02344.15039.03418.22461.03418.31934,0,.61523-.20508.71582-.52539.04639-.14941.10303-.29395.17041-.43359.55615-1.16602,1.75684-1.91895,3.05908-1.91895.88184,0,1.71051.35254,2.33514.94727h-.737c-.41406,0-.75.33594-.75.75Z" fill="#222" stroke-width="0"/>
  </g>
</svg>