<?xml version="1.0" encoding="UTF-8"?>
<svg xmlns="http://www.w3.org/2000/svg" width="22" height="22" viewBox="0 0 22 22">
  <g id="b" data-name="Wiki">
    <rect x="-599" y="-3544.71458" width="3230" height="4539" fill="none" stroke="var(--R=232 G=232 B=232, #e8e8e8)" stroke-miterlimit="10" stroke-width="20"/>
  </g>
  <g id="g" data-name="ICONS">
    <path d="m7.85254,17.52761h-2.43262c-1.59521,0-2.89258-1.29785-2.89258-2.89258v-5.3252h2.89258c2.16113,0,3.91895-1.75879,3.91895-3.91992v-2.8916h4.35205c1.59521,0,2.89258,1.29688,2.89258,2.8916v1.94629c0,.55273.44775,1,1,1s1-.44727,1-1v-1.94629c0-2.69727-2.19482-4.8916-4.89258-4.8916h-5.04688c-1.09082,0-2.14014.45898-2.87988,1.25977L1.56641,6.30593c-.66992.72656-1.03906,1.66992-1.03906,2.6582v5.6709c0,2.69824,2.19482,4.89258,4.89258,4.89258h2.43262c.55225,0,1-.44727,1-1s-.44775-1-1-1Zm-.61865-14.41211c.03186-.03467.0708-.06055.10498-.09229v2.3667c0,1.05859-.86084,1.91992-1.91895,1.91992h-2.0575l3.87146-4.19434Z" fill="#222" stroke-width="0"/>
    <path d="m15.39404,9.25613c-3.36865,0-6.10889,2.74023-6.10889,6.1084,0,3.36914,2.74023,6.10938,6.10889,6.10938s6.10889-2.74023,6.10889-6.10938c0-3.36816-2.74023-6.1084-6.10889-6.1084Zm0,10.21777c-2.26562,0-4.10889-1.84375-4.10889-4.10938s1.84326-4.1084,4.10889-4.1084,4.10889,1.84277,4.10889,4.1084-1.84326,4.10938-4.10889,4.10938Z" fill="#222" stroke-width="0"/>
    <path d="m17.58966,13.6448c-.06433-.00903-.1297.00537-.1842.04077-.23309.15601-.45605.32666-.66754.51099-.1236.104-.24329.20264-.36102.29175-.09729-.1731-.19464-.35767-.29193-.54199-.15179-.28711-.30408-.5752-.46124-.82715-.08893-.12671-.26373-.15747-.39038-.06836-.02661.01855-.0498.04175-.06848.06836-.16101.26123-.3172.55469-.47095.84619-.09491.17896-.18878.35718-.2832.52393-.11774-.09009-.23694-.1897-.36005-.29199-.21161-.1853-.43457-.35718-.66754-.51465-.12506-.08081-.29193-.04492-.37268.08008-.03528.05469-.04962.12012-.04041.18457.0647.46655.48315,1.83472.53961,2.23804.01819.1333.13171.23267.26611.23315l3.23657.00195c.13477,0,.24884-.09937.26709-.23315.05646-.40723.4754-1.77783.53961-2.23804.02075-.14746-.08197-.28369-.22937-.30444Z" fill="#222" stroke-width="0"/>
    <path d="m16.95441,17.03591h-3.12073c-.19147-.00708-.35248.14233-.35968.33374-.00714.19141.14221.35254.33368.35962.00867.00024.01733.00024.026,0h3.12073c.19147-.00708.34088-.16821.33368-.35962-.00677-.1814-.15228-.3269-.33368-.33374Z" fill="#222" stroke-width="0"/>
  </g>
</svg>