<?xml version="1.0" encoding="UTF-8"?>
<svg xmlns="http://www.w3.org/2000/svg" width="22" height="22" viewBox="0 0 22 22">
  <g id="b" data-name="Wiki">
    <rect x="-179" y="-3544.42838" width="3230" height="4539" fill="none" stroke="var(--R=232 G=232 B=232, #e8e8e8)" stroke-miterlimit="10" stroke-width="20"/>
  </g>
  <g id="g" data-name="ICONS">
    <path d="m19.25732,12.43685h-5.58203c-.6333,0-1.14893.52734-1.14893,1.17578v.85059c0,.41406.33594.75.75.75s.75-.33594.75-.75v-.52637h1.68994v5.30566h-.73877c-.41406,0-.75.33594-.75.75s.33594.75.75.75h2.97754c.41406,0,.75-.33594.75-.75s-.33594-.75-.75-.75h-.73877v-5.30566h1.68994v.52637c0,.41406.33594.75.75.75s.75-.33594.75-.75v-.85059c0-.64844-.51562-1.17578-1.14893-1.17578Z" fill="#222" stroke-width="0"/>
    <path d="m11.17871,18.01986h-4.91943c-1.59277,0-2.88867-1.2959-2.88867-2.88867V5.89584c0-1.59277,1.2959-2.88867,2.88867-2.88867h4.34668v2.88867c0,2.16016,1.75684,3.91699,3.9165,3.91699h2.88867v.21387c0,.55273.44775,1,1,1s1-.44727,1-1v-.56055c0-.9873-.36914-1.93066-1.03857-2.65625l-4.19336-4.54199c-.73877-.80176-1.7876-1.26074-2.87793-1.26074h-5.04199C3.56348,1.00716,1.37061,3.20052,1.37061,5.89584v9.23535c0,2.69531,2.19287,4.88867,4.88867,4.88867h4.91943c.55225,0,1-.44727,1-1s-.44775-1-1-1Zm1.42725-14.48657c.03363.03149.07208.05688.10352.09106l3.86658,4.18848h-2.05359c-1.05664,0-1.9165-.86035-1.9165-1.91699v-2.36255Z" fill="#222" stroke-width="0"/>
  </g>
</svg>