<?xml version="1.0" encoding="UTF-8"?>
<svg id="ICONS" xmlns="http://www.w3.org/2000/svg" width="22" height="22" viewBox="0 0 22 22">
  <defs>
    <style>
      .fill {
        fill: #222;
      }
    </style>
  </defs>
  <path class="fill" d="m16.70693,8.22949l-.88183-.88184L8.77045.29297c-.1875-.1875-.4414-.29297-.70703-.29297-.27441.00195-.53027.11133-.71679.30273l-1.9016,1.95581L3.47947.29297c-.39062-.39062-1.02343-.39062-1.41405,0s-.39062,1.02344,0,1.41406l1.98534,1.98535L.80957,7.02637c-.52148.52148-.80957,1.21582-.80957,1.9541s.28808,1.43262.80957,1.9541l4.36423,4.36621c.54101.53906,1.25097.80859,1.958.80859.70507,0,1.40722-.2666,1.93944-.79883l6.0361-5.85254.18555.18555c.39062.39062,1.02343.39062,1.41405,0s.39062-1.02344,0-1.41406Zm-9.03901,5.65625c-.29687.29688-.78125.29688-1.08007,0l-4.36423-4.36523c-.29785-.29785-.29785-.78223.00977-1.08984l3.23167-3.32397.84545.84546c.19531.19531.45117.29297.70703.29297s.51172-.09766.70703-.29297c.39062-.39062.39062-1.02344,0-1.41406l-.86547-.86548,1.2141-1.24878,5.62008,5.62012-6.02535,5.8418Z"/>
  <path class="fill" d="m16.40127,18.99707c-.30371,0-.60644-.11035-.84082-.33203-.26562-.25391-.40136-.60254-.37988-.96094l.14062-1.96484-1.44042-1.3623c-.24219-.23145-.37597-.53906-.38086-.86816-.00488-.32812.12109-.63867.35254-.87305.25195-.25195.60156-.38379.94531-.36133l2.02635.13965,1.39843-1.42188c.47265-.47363,1.24316-.48535,1.72167-.02637.25781.24219.39648.59277.375.95605-.00098.01172-.14062,1.96387-.14062,1.96387l1.44042,1.36426c.2373.22461.37597.54102.38086.86719s-.125.64648-.35644.87695c-.24512.25-.60156.39746-.95605.35645l-2.01171-.13867-1.39843,1.42188c-.23926.24219-.55761.36328-.87597.36328Zm.43554-4.57715l.12793.12109c.27148.26562.40429.61719.37695.97559l-.01562.21484.17383-.17578c.2539-.25391.60058-.39551.94921-.36328l.21484.01465-.12891-.12207c-.2666-.25098-.40625-.60742-.37793-.97461l.01562-.21484-.17285.17578c-.25293.25391-.58105.3916-.95019.36328l-.21289-.01465Z"/>
  <path class="fill" d="m12.88394,17.60616l-.12838,1.47636,1.0557,1.04001c.31562.31093.06862.84622-.37277.80784l-1.47636-.12838-1.04001,1.0557c-.31093.31562-.84622.06862-.80784-.37277l.12838-1.47636-1.0557-1.04001c-.31562-.31093-.06862-.84622.37277-.80784l1.47636.12838,1.04001-1.0557c.31093-.31562.84622-.06862.80784.37277Z"/>
</svg>