<svg id="SX_Users_22_N" xmlns="http://www.w3.org/2000/svg" width="22.003" height="22.001" viewBox="0 0 22.003 22.001">
  <g id="SMOCK" transform="translate(0.002 0.001)">
    <rect id="Canvas" width="22" height="22" fill="rgba(255,19,220,0)"/>
  </g>
  <g id="ICONS" transform="translate(0.002 0.001)">
    <path id="Path_125875" data-name="Path 125875" d="M14.5,15a8.261,8.261,0,0,0-7.4,4.561A1,1,0,0,0,7.561,20.9.982.982,0,0,0,8,21a1,1,0,0,0,.9-.561,6.283,6.283,0,0,1,11.2,0,1,1,0,0,0,1.8-.878A8.262,8.262,0,0,0,14.5,15Z" fill="#484848"/>
    <path id="Path_125876" data-name="Path 125876" d="M9.5,9a5,5,0,1,0,5-5A5,5,0,0,0,9.5,9Zm5-3a3,3,0,1,1-3,3,3,3,0,0,1,3-3Z" fill="#484848"/>
    <path id="Path_125877" data-name="Path 125877" d="M8.5,12a1,1,0,0,0-1-1A8.261,8.261,0,0,0,.1,15.561,1,1,0,0,0,.561,16.9.982.982,0,0,0,1,17a1,1,0,0,0,.9-.561A6.252,6.252,0,0,1,7.5,13a1,1,0,0,0,1-1Z" fill="#484848"/>
    <path id="Path_125878" data-name="Path 125878" d="M7.5,10a1,1,0,0,0,0-2,3,3,0,1,1,2.611-4.478,1,1,0,0,0,1.741-.986A5,5,0,1,0,7.5,10Z" fill="#484848"/>
  </g>
</svg>
