<svg id="SXmock_QuickActions_22_N" xmlns="http://www.w3.org/2000/svg" width="22" height="22" viewBox="0 0 22 22">
  <g id="SMOCK" transform="translate(0 0)">
    <rect id="Canvas" width="22" height="22" fill="rgba(255,19,220,0)"/>
  </g>
  <g id="ICONS" transform="translate(0 0)">
    <path id="Path_600625" data-name="Path 600625" d="M13,11a1.246,1.246,0,0,0-.787-1.161L9.32,8.68,8.163,5.787A1.246,1.246,0,0,0,7,5H7a1.247,1.247,0,0,0-1.162.786L4.68,8.68,1.787,9.838a1.252,1.252,0,0,0,0,2.324L4.68,13.32l1.159,2.9A1.246,1.246,0,0,0,7,17H7a1.246,1.246,0,0,0,1.162-.787L9.32,13.32l2.9-1.16A1.243,1.243,0,0,0,13,11Zm-4.722.581a1.26,1.26,0,0,0-.7.7L7,13.727l-.58-1.449a1.26,1.26,0,0,0-.7-.7L4.273,11l1.449-.58a1.26,1.26,0,0,0,.7-.7L7,8.273l.58,1.449a1.26,1.26,0,0,0,.7.7L9.727,11Z" fill="#444"/>
    <path id="Path_600626" data-name="Path 600626" d="M20.175,3.822l-2.2-.8-.8-2.2a1.253,1.253,0,0,0-2.355,0l-.8,2.2-2.2.8a1.253,1.253,0,0,0,0,2.356l2.2.8.8,2.2a1.253,1.253,0,0,0,2.355,0l.8-2.2,2.2-.8a1.253,1.253,0,0,0,0-2.356ZM16.968,5.216a1.249,1.249,0,0,0-.751.75l-.217.6-.216-.594a1.249,1.249,0,0,0-.75-.751L14.438,5l.594-.216a1.249,1.249,0,0,0,.751-.75l.217-.6.216.594a1.249,1.249,0,0,0,.75.751l.6.217Z" fill="#444"/>
    <path id="Path_600627" data-name="Path 600627" d="M20.175,14.822l-2.2-.8-.8-2.2a1.253,1.253,0,0,0-2.355,0l-.8,2.2-2.2.8a1.253,1.253,0,0,0,0,2.356l2.2.8.8,2.2a1.253,1.253,0,0,0,2.355,0l.8-2.2,2.2-.8a1.253,1.253,0,0,0,0-2.356Zm-3.207,1.394a1.249,1.249,0,0,0-.751.75l-.217.6-.216-.594a1.249,1.249,0,0,0-.75-.751l-.6-.217.594-.216a1.249,1.249,0,0,0,.751-.75l.217-.6.216.594a1.249,1.249,0,0,0,.75.751l.6.217Z" fill="#444"/>
  </g>
  <g id="ICONS-2" data-name="ICONS" transform="translate(0 0)">
    <path id="Path_600625-2" data-name="Path 600625" d="M13,11a1.246,1.246,0,0,0-.787-1.161L9.32,8.68,8.163,5.787A1.246,1.246,0,0,0,7,5H7a1.247,1.247,0,0,0-1.162.786L4.68,8.68,1.787,9.838a1.252,1.252,0,0,0,0,2.324L4.68,13.32l1.159,2.9A1.246,1.246,0,0,0,7,17H7a1.246,1.246,0,0,0,1.162-.787L9.32,13.32l2.9-1.16A1.243,1.243,0,0,0,13,11Zm-4.722.581a1.26,1.26,0,0,0-.7.7L7,13.727l-.58-1.449a1.26,1.26,0,0,0-.7-.7L4.273,11l1.449-.58a1.26,1.26,0,0,0,.7-.7L7,8.273l.58,1.449a1.26,1.26,0,0,0,.7.7L9.727,11Z" fill="#444"/>
    <path id="Path_600626-2" data-name="Path 600626" d="M20.175,3.822l-2.2-.8-.8-2.2a1.253,1.253,0,0,0-2.355,0l-.8,2.2-2.2.8a1.253,1.253,0,0,0,0,2.356l2.2.8.8,2.2a1.253,1.253,0,0,0,2.355,0l.8-2.2,2.2-.8a1.253,1.253,0,0,0,0-2.356ZM16.968,5.216a1.249,1.249,0,0,0-.751.75l-.217.6-.216-.594a1.249,1.249,0,0,0-.75-.751L14.438,5l.594-.216a1.249,1.249,0,0,0,.751-.75l.217-.6.216.594a1.249,1.249,0,0,0,.75.751l.6.217Z" fill="#444"/>
    <path id="Path_600627-2" data-name="Path 600627" d="M20.175,14.822l-2.2-.8-.8-2.2a1.253,1.253,0,0,0-2.355,0l-.8,2.2-2.2.8a1.253,1.253,0,0,0,0,2.356l2.2.8.8,2.2a1.253,1.253,0,0,0,2.355,0l.8-2.2,2.2-.8a1.253,1.253,0,0,0,0-2.356Zm-3.207,1.394a1.249,1.249,0,0,0-.751.75l-.217.6-.216-.594a1.249,1.249,0,0,0-.75-.751l-.6-.217.594-.216a1.249,1.249,0,0,0,.751-.75l.217-.6.216.594a1.249,1.249,0,0,0,.75.751l.6.217Z" fill="#444"/>
  </g>
</svg>
