<?xml version="1.0" encoding="UTF-8"?>
<svg xmlns="http://www.w3.org/2000/svg" width="22" height="22" viewBox="0 0 22 22">
  <g id="b" data-name="Wiki">
    <rect x="-879" y="-3544.62346" width="3230" height="4539" fill="none" stroke="var(--R=232 G=232 B=232, #e8e8e8)" stroke-miterlimit="10" stroke-width="20"/>
  </g>
  <g id="g" data-name="ICONS">
    <path d="m19.43884,12.48738h-5.86621c-.86194,0-1.56067.7041-1.56067,1.57227v5.34399c0,.86816.69873,1.57202,1.56067,1.57202h5.86621c.86194,0,1.56067-.70386,1.56067-1.57202v-5.34399c0-.86816-.69873-1.57227-1.56067-1.57227Zm-2.76196,5.72705v.00024c-.1264.17896-.30237.31665-.5274.41284-.22522.09668-.49042.14478-.79596.14478-.22504,0-.42902-.01904-.61194-.05737-.18292-.03809-.33667-.0874-.46118-.14746-.03223-.01611-.04828-.05029-.04828-.10254v-.71753c0-.01611.00507-.0271.01508-.0332s.02319-.00513.03925.00293c.16882.10474.34766.18286.53662.23511.18884.05249.37384.07861.55457.07861.22919,0,.39294-.03516.49152-.10571.09833-.07007.14758-.15747.14758-.26221,0-.06836-.01605-.12964-.04816-.18384-.03223-.0542-.08844-.10742-.16882-.15967-.08051-.05225-.19092-.10645-.3316-.16284l-.30145-.12671c-.24518-.10449-.43719-.21606-.57581-.33447-.13867-.11865-.23413-.24634-.28638-.38306-.05225-.13647-.07831-.2832-.07831-.43994,0-.21704.0542-.41406.16266-.59106.10864-.17676.26935-.31641.48248-.41895.21283-.10254.47815-.15381.79565-.15381.19312,0,.37286.01221.53979.03613.16663.02417.30029.0625.40082.11475.02814.01611.04224.04199.04224.07812v.6814c0,.00806-.00507.01733-.01508.0271-.01001.01025-.02313.00928-.03918-.00293-.12054-.06421-.26129-.1145-.422-.15063-.16083-.03638-.32776-.05444-.50055-.05444-.11658,0-.21503.01025-.29541.03027-.08032.02002-.14563.04517-.1958.07544-.05035.03003-.08752.06836-.11163.1145-.02417.04614-.03619.09351-.03619.1416,0,.06445.01807.12158.05426.17188s.09656.10059.18091.15063c.08435.05054.20093.10962.34967.17798l.22314.08447c.26526.1084.47217.22412.62097.34668.14868.12256.25317.25513.31348.39795.06036.14258.09052.29639.09052.46094,0,.2373-.06335.44531-.19006.62402Zm1.71832-.2168h.00006c.0462.05811.13165.0874.25616.0874.03619,0,.07031-.00098.10254-.00293.0321-.0022.06421-.00513.09656-.00928.01196-.00391.02307-.00293.03308.00317s.01508.01904.01508.03906v.49438c0,.04443-.01605.07031-.04816.07861-.07654.02393-.15686.04395-.24121.06006s-.18091.02417-.28949.02417c-.26123,0-.46631-.06836-.61493-.20508-.14868-.13647-.22302-.35571-.22302-.65698v-1.50317h-.36407c-.03223,0-.04828-.01807-.04828-.0542l.00452-.59375c0-.03198.01813-.0481.05432-.0481h.36407c.00397-.06836.00452-.14307.01056-.23364s.01404-.18091.02417-.27124c.00989-.09058.01892-.16382.02698-.22021.00403-.01196.01001-.02295.01813-.0332.00806-.00977.01813-.01685.03015-.021l.71741-.09033c.01202-.00391.02203-.00391.03015,0s.01208.01611.01208.03613c-.00812.09229-.01416.21802-.01813.37671-.00397.15894-.00342.30811-.00739.45679h.52795c.02417,0,.03619.01611.03619.0481l-.00452.60571c0,.02417-.01013.03833-.03015.04224h-.53156v1.2981c0,.13672.01453.23413.06073.29248Z" fill="#222" stroke-width="0"/>
    <path d="m12.11499,4.64388c-.66492,0-1.20398.53906-1.20398,1.2041,0,.66479.53906,1.20386,1.20398,1.20386s1.20392-.53906,1.20392-1.20386c0-.66504-.539-1.2041-1.20392-1.2041Z" fill="#222" stroke-width="0"/>
    <path d="m15.84717,10.9742c.30176.22754.70898.2666,1.04785.09668.33984-.16992.5542-.5166.5542-.89551v-4.84082c0-2.39258-1.97363-4.33887-4.39941-4.33887h-7.64844C2.97559.99568,1.00195,2.94197,1.00195,5.33455v5.84277c0,2.39258,1.97363,4.33887,4.39941,4.33887h3.82422c.55225,0,1-.44727,1-1s-.44775-1-1-1h-3.82422c-1.32324,0-2.39941-1.04883-2.39941-2.33887v-.26221l3.07275-3.07275.11377.02734,4.35547,4.02344c.19189.17676.43506.26562.67871.26562s.4873-.08887.67871-.26562l2.32129-2.14453,1.62451,1.22559Zm-2.91455-2.75684l-1.70996,1.58008-3.64844-3.36914c-.80273-.80273-2.11084-.80273-2.91357,0l-1.65869,1.65869v-2.75244c0-1.29004,1.07617-2.33887,2.39941-2.33887h7.64844c1.32324,0,2.39941,1.04883,2.39941,2.33887v2.83887l-.20312-.15234c-.71143-.43359-1.62305-.37109-2.31348.19629Z" fill="#222" stroke-width="0"/>
  </g>
</svg>