<?xml version="1.0" encoding="UTF-8"?>
<svg xmlns="http://www.w3.org/2000/svg" width="22.00002" height="22" viewBox="0 0 22.00002 22">
  <g id="b" data-name="Wiki">
    <rect x="-1158.99999" y="-3544.5745" width="3230" height="4539" fill="none" stroke="var(--R=232 G=232 B=232, #e8e8e8)" stroke-miterlimit="10" stroke-width="20"/>
  </g>
  <g id="g" data-name="ICONS">
    <path d="m13.58497,9.41281l1.50488,1.13574c.30371.22754.70898.26562,1.04883.09668.33887-.16992.55371-.5166.55371-.89551v-4.58691c0-2.2959-1.89355-4.16309-4.2207-4.16309h-7.24609C2.89845.99972,1.00587,2.86691,1.00587,5.16281v5.53613c0,2.2959,1.89258,4.16309,4.21973,4.16309h3.6123c.55273,0,1-.44727,1-1s-.44727-1-1-1h-3.6123c-1.22363,0-2.21973-.9707-2.21973-2.16309v-.22412l2.92969-2.87061,4.12695,3.81152c.19141.17676.43555.26562.67871.26562s.4873-.08887.67871-.26562l2.16504-2.00293Zm-6.2627-3.24902c-.75586-.75977-2.08105-.75879-2.83496-.00098l-1.48145,1.48096v-2.48096c0-1.19238.99609-2.16309,2.21973-2.16309h7.24609c1.22461,0,2.2207.9707,2.2207,2.16309v2.58496l-.11035-.08301c-.69434-.42578-1.58496-.36426-2.25684.19141l-1.58398,1.46387-3.41895-3.15625Z" fill="#222" stroke-width="0"/>
    <path d="m12.72694,5.64987c0-.63013-.51062-1.14062-1.1405-1.14062-.63,0-1.14062.5105-1.14062,1.14062,0,.62988.51062,1.14038,1.14062,1.14038.62988,0,1.1405-.5105,1.1405-1.14038Z" fill="#222" stroke-width="0"/>
    <path d="m15.709,14.85226c-.25928-.15234-.5957.02295-.5957.3103v1.94873c0,.28735.33643.46265.5957.3103l1.6593-.97437c.24402-.14331.24402-.47729,0-.62061l-1.6593-.97437Z" fill="#222" stroke-width="0"/>
    <path d="m17.79786,11.26632h-3.39941c-1.74805,0-3.16992,1.42188-3.16992,3.16992v3.39941c0,1.74805,1.42188,3.16992,3.16992,3.16992h3.39941c1.74805,0,3.1709-1.42188,3.1709-3.16992v-3.39941c0-1.74805-1.42285-3.16992-3.1709-3.16992Zm1.1709,6.56934c0,.64551-.52539,1.16992-1.1709,1.16992h-3.39941c-.64551,0-1.16992-.52441-1.16992-1.16992v-3.39941c0-.64551.52441-1.16992,1.16992-1.16992h3.39941c.64551,0,1.1709.52441,1.1709,1.16992v3.39941Z" fill="#222" stroke-width="0"/>
  </g>
</svg>