<svg xmlns="http://www.w3.org/2000/svg" id="ICONS" width="44" height="44" viewBox="0 0 44 44">
  <defs>
    <style>
      .fill {
        fill: #222;
      }
    </style>
  </defs>
  <rect id="Canvas" fill="#ff13dc" opacity="0" width="44" height="44" /><circle class="fill" cx="25.5" cy="10.5" r="2.5" />
  <path class="fill" d="m26.44141,2h-15.88281C5.83984,2,2,5.7832,2,10.43359v12.13281c0,4.65039,3.83984,8.43359,8.55859,8.43359h11.94141c.82812,0,1.5-.67188,1.5-1.5s-.67188-1.5-1.5-1.5h-11.94141c-3.06543,0-5.55859-2.4375-5.55859-5.43359v-1.78223l6.5498-6.5498c.17871-.17871.3877-.20508.49609-.20508s.31738.02637.53906.24609l9.04492,8.35547c.28711.26562.65234.39844,1.01758.39844s.73047-.13281,1.01855-.39844l4.89355-4.52637c.15234-.125.36133-.14648.53516-.06348l3.50195,2.6416c.45508.34277,1.0625.39746,1.57227.14551.50879-.25391.83105-.77344.83105-1.34277v-9.05176c0-4.65039-3.83984-8.43359-8.55859-8.43359Zm5.55859,14.47461l-1.17773-.8877c-.03906-.03027-.08008-.05762-.12207-.08301-1.26855-.77441-2.89551-.66113-4.11133.33984l-3.94141,3.64355-7.98438-7.37402c-1.44336-1.44336-3.79102-1.44336-5.23438,0l-4.42871,4.42871v-6.1084c0-2.99609,2.49316-5.43359,5.55859-5.43359h15.88281c3.06543,0,5.55859,2.4375,5.55859,5.43359v6.04102Z" />
  <path class="fill" d="m34.5,44c-5.32715,0-9.5-4.1123-9.5-9.36133,0-5.33398,5.65723-9.47559,8.08984-11.00781.85547-.54102,1.96387-.54102,2.82129,0,2.43164,1.53223,8.08887,5.67383,8.08887,11.00781,0,5.24902-4.17285,9.36133-9.5,9.36133Zm0-17.71094c-3.17871,2.04688-6.5,5.27441-6.5,8.34961,0,3.62695,2.79395,6.36133,6.5,6.36133s6.5-2.73438,6.5-6.36133c0-3.0752-3.32227-6.30371-6.5-8.34961Z" />
</svg>