<svg width="19" height="18" viewBox="0 0 19 18" fill="none" xmlns="http://www.w3.org/2000/svg">
<path fill-rule="evenodd" clip-rule="evenodd" d="M9.4834 18C13.9255 18 17.5 14.4233 17.5 10.0113V3.00177C17.5 1.34393 16.1569 0 14.5 0H4.5C2.84314 0 1.5 1.34393 1.5 3.00177V10.0118C1.5 14.4236 5.07428 18 9.4834 18ZM6.5 5C6.5 4.44769 6.94769 4 7.5 4H9.34705C10.6537 4 11.8506 4.9339 11.9861 6.23352C12.0262 6.61792 11.9783 6.98865 11.8599 7.32617C12.9843 7.90075 13.7009 9.16315 13.4499 10.5551C13.1892 12.0007 11.8411 13 10.3723 13H7.50001C6.9477 13 6.50001 12.5522 6.50001 12L6.5 5Z" fill="#5258E4"/>
<path fill-rule="evenodd" clip-rule="evenodd" d="M11.5 10C11.5 9.44824 11.0513 9 10.5 9H8.5V11H10.5C11.0513 11 11.5 10.5518 11.5 10Z" fill="#5258E4"/>
<path fill-rule="evenodd" clip-rule="evenodd" d="M10 6.5C10 6.22461 9.77588 6 9.5 6H8.5V7H9.5C9.77588 7 10 6.77539 10 6.5Z" fill="#5258E4"/>
</svg>
