<svg xmlns="http://www.w3.org/2000/svg" id="ICONS" width="44" height="44" viewBox="0 0 44 44">
  <defs>
    <style>
      .fill {
        fill: #222;
      }
    </style>
  </defs>
  <rect id="Canvas" fill="#ff13dc" opacity="0" width="44" height="44" /><circle class="fill" cx="25.5" cy="13.5" r="2.5" />
  <path class="fill" d="m27.44141,4h-15.88281c-4.71924,0-8.55859,3.7832-8.55859,8.43359v12.13281c0,4.65039,3.83936,8.43359,8.55859,8.43359h4.17578c.82861,0,1.5-.67188,1.5-1.5s-.67139-1.5-1.5-1.5h-4.17578c-3.06494,0-5.55859-2.4375-5.55859-5.43359v-.78271l6.54932-6.54932c.27295-.27344.71875-.27344,1.04541.05078l5.81592,5.27637c.61279.55371,1.56152.50879,2.11865-.10352.55664-.61328.51074-1.5625-.10303-2.11914l-5.76318-5.22559c-1.44385-1.44336-3.79199-1.44336-5.23486,0l-4.42822,4.42822v-7.10791c0-2.99609,2.49365-5.43359,5.55859-5.43359h15.88281c3.06494,0,5.55859,2.4375,5.55859,5.43359v4.06641c0,.82812.67139,1.5,1.5,1.5s1.5-.67188,1.5-1.5v-4.06641c0-4.65039-3.83936-8.43359-8.55859-8.43359Z" />
  <circle class="fill" cx="25.5" cy="13.5" r="2.5" />
  <path class="fill" d="m32,25.11523c-3.79639,0-6.88477,3.08887-6.88477,6.88477s3.08838,6.88477,6.88477,6.88477,6.88477-3.08887,6.88477-6.88477-3.08838-6.88477-6.88477-6.88477Zm0,10.76953c-2.14209,0-3.88477-1.74316-3.88477-3.88477s1.74268-3.88477,3.88477-3.88477,3.88477,1.74316,3.88477,3.88477-1.74268,3.88477-3.88477,3.88477Z" />
  <path class="fill" d="m32,24c.82861,0,1.5-.67188,1.5-1.5v-1c0-.82812-.67139-1.5-1.5-1.5s-1.5.67188-1.5,1.5v1c0,.82812.67139,1.5,1.5,1.5Z" />
  <path class="fill" d="m32,40c-.82861,0-1.5.67188-1.5,1.5v1c0,.82812.67139,1.5,1.5,1.5s1.5-.67188,1.5-1.5v-1c0-.82812-.67139-1.5-1.5-1.5Z" />
  <path class="fill" d="m42.5,30.5h-1c-.82861,0-1.5.67188-1.5,1.5s.67139,1.5,1.5,1.5h1c.82861,0,1.5-.67188,1.5-1.5s-.67139-1.5-1.5-1.5Z" />
  <path class="fill" d="m24,32c0-.82812-.67139-1.5-1.5-1.5h-1c-.82861,0-1.5.67188-1.5,1.5s.67139,1.5,1.5,1.5h1c.82861,0,1.5-.67188,1.5-1.5Z" />
  <path class="fill" d="m24.22266,26.34277c.29248.29297.67627.43945,1.06006.43945s.76807-.14648,1.06104-.43945c.58545-.58594.58545-1.53613-.00098-2.12109l-.70752-.70703c-.58496-.58594-1.53516-.58594-2.12109,0-.58545.58594-.58545,1.53613.00098,2.12109l.70752.70703Z" />
  <path class="fill" d="m39.77734,37.65723c-.58496-.58594-1.53516-.58594-2.12109,0-.58545.58594-.58545,1.53613.00098,2.12109l.70752.70703c.29248.29297.67627.43945,1.06006.43945s.76807-.14648,1.06104-.43945c.58545-.58594.58545-1.53613-.00098-2.12109l-.70752-.70703Z" />
  <path class="fill" d="m38.71729,26.78223c.38379,0,.76758-.14648,1.06006-.43945l.70752-.70703c.58643-.58496.58643-1.53516.00098-2.12109-.58545-.58496-1.53564-.58691-2.12109,0l-.70752.70703c-.58643.58496-.58643,1.53516-.00098,2.12109.29297.29297.67676.43945,1.06104.43945Z" />
  <path class="fill" d="m24.22266,37.65723l-.70752.70703c-.58643.58496-.58643,1.53516-.00098,2.12109.29297.29297.67676.43945,1.06104.43945.38379,0,.76758-.14648,1.06006-.43945l.70752-.70703c.58643-.58496.58643-1.53516.00098-2.12109s-1.53564-.58594-2.12109,0Z" />
</svg>