<svg xmlns="http://www.w3.org/2000/svg" id="ICONS" width="44" height="44" viewBox="0 0 44 44">
  <defs>
    <style>
      .fill {
        fill: #222;
      }
    </style>
  </defs>
  <rect id="Canvas" fill="#ff13dc" opacity="0" width="44" height="44" /><path class="fill" d="m22,8c-.82861,0-1.5-.67188-1.5-1.5V2.5c0-.82812.67139-1.5,1.5-1.5s1.5.67188,1.5,1.5v4c0,.82812-.67139,1.5-1.5,1.5Z" />
  <path class="fill" d="m22,43c-.82861,0-1.5-.67188-1.5-1.5v-4c0-.82812.67139-1.5,1.5-1.5s1.5.67188,1.5,1.5v4c0,.82812-.67139,1.5-1.5,1.5Z" />
  <path class="fill" d="m41.5,23.5h-4c-.82861,0-1.5-.67188-1.5-1.5s.67139-1.5,1.5-1.5h4c.82861,0,1.5.67188,1.5,1.5s-.67139,1.5-1.5,1.5Z" />
  <path class="fill" d="m6.5,23.5H2.5c-.82861,0-1.5-.67188-1.5-1.5s.67139-1.5,1.5-1.5h4c.82861,0,1.5.67188,1.5,1.5s-.67139,1.5-1.5,1.5Z" />
  <path class="fill" d="m11.04004,12.54004c-.38379,0-.76807-.14648-1.06055-.43945l-2.82861-2.8291c-.58594-.58594-.58594-1.53516,0-2.12109s1.53613-.58594,2.12109,0l2.82861,2.8291c.58594.58594.58594,1.53516,0,2.12109-.29297.29297-.67676.43945-1.06055.43945Z" />
  <path class="fill" d="m35.78857,37.28906c-.38379,0-.76807-.14648-1.06055-.43945l-2.82861-2.8291c-.58594-.58594-.58594-1.53516,0-2.12109s1.53613-.58594,2.12109,0l2.82861,2.8291c.58594.58594.58594,1.53516,0,2.12109-.29297.29297-.67676.43945-1.06055.43945Z" />
  <path class="fill" d="m32.95996,12.54004c-.38379,0-.76758-.14648-1.06055-.43945-.58594-.58594-.58594-1.53516,0-2.12109l2.82861-2.8291c.58496-.58594,1.53516-.58594,2.12109,0s.58594,1.53516,0,2.12109l-2.82861,2.8291c-.29248.29297-.67676.43945-1.06055.43945Z" />
  <path class="fill" d="m8.21143,37.28906c-.38379,0-.76758-.14648-1.06055-.43945-.58594-.58594-.58594-1.53516,0-2.12109l2.82861-2.8291c.58496-.58594,1.53516-.58594,2.12109,0s.58594,1.53516,0,2.12109l-2.82861,2.8291c-.29248.29297-.67676.43945-1.06055.43945Z" />
  <path class="fill" d="m22,10.5c-6.34131,0-11.5,5.15918-11.5,11.5s5.15869,11.5,11.5,11.5,11.5-5.15918,11.5-11.5-5.15869-11.5-11.5-11.5Zm0,20V13.5c4.68701,0,8.5,3.81348,8.5,8.5s-3.81299,8.5-8.5,8.5Z" />
</svg>