<svg xmlns="http://www.w3.org/2000/svg" width="44" height="44" viewBox="0 0 44 44">
  <g id="SXmock_BusinessCard_44_N" transform="translate(22 22)">
    <g id="SXmock_BusinessCard_44_N-2" data-name="SXmock_BusinessCard_44_N" transform="translate(-22 -22)">
      <rect id="Canvas" width="44" height="44" fill="#ff13dc" opacity="0"/>
      <path id="Path_602646" data-name="Path 602646" d="M25.5,18h5a1.5,1.5,0,0,0,0-3h-5a1.5,1.5,0,0,0,0,3Z" fill="#444"/>
      <path id="Path_602647" data-name="Path 602647" d="M35.5,20h-10a1.5,1.5,0,0,0,0,3h10a1.5,1.5,0,0,0,0-3Z" fill="#444"/>
      <path id="Path_602648" data-name="Path 602648" d="M35.5,25h-10a1.5,1.5,0,0,0,0,3h10a1.5,1.5,0,1,0,0-3Z" fill="#444"/>
      <path id="Path_602649" data-name="Path 602649" d="M32.5,5h-21A9.511,9.511,0,0,0,2,14.5v15A9.511,9.511,0,0,0,11.5,39h21A9.511,9.511,0,0,0,42,29.5v-15A9.511,9.511,0,0,0,32.5,5ZM39,29.5A6.508,6.508,0,0,1,32.5,36h-21A6.508,6.508,0,0,1,5,29.5v-15A6.508,6.508,0,0,1,11.5,8h21A6.508,6.508,0,0,1,39,14.5Z" fill="#444"/>
      <path id="Path_602650" data-name="Path 602650" d="M14.5,24A5.5,5.5,0,1,0,9,18.5,5.5,5.5,0,0,0,14.5,24Zm0-8A2.5,2.5,0,1,1,12,18.5,2.5,2.5,0,0,1,14.5,16Z" fill="#444"/>
      <path id="Path_602651" data-name="Path 602651" d="M14.5,25a8.166,8.166,0,0,0-7.367,4.882,1.5,1.5,0,0,0,2.733,1.236A5.163,5.163,0,0,1,14.5,28a5.163,5.163,0,0,1,4.633,3.117,1.5,1.5,0,1,0,2.733-1.236A8.166,8.166,0,0,0,14.5,25Z" fill="#444"/>
    </g>
  </g>
</svg>
