<svg width="22" height="22" viewBox="0 0 22 22" fill="none" xmlns="http://www.w3.org/2000/svg">
<g id="Frame" clip-path="url(#clip0_5485_14667)">
<path id="iconFill" fill-rule="evenodd" clip-rule="evenodd" d="M7.43689 5.72965C6.859 5.38253 6.10938 5.7818 6.10938 6.43674V10.8775C6.10938 11.5324 6.859 11.9317 7.43689 11.5846L11.1337 9.36422C11.6774 9.03762 11.6774 8.27661 11.1337 7.95003L7.43689 5.72965Z" fill="#292929"/>
<path id="iconFill_2" fill-rule="evenodd" clip-rule="evenodd" d="M18.638 22.0004H11.9158C10.0622 22.0004 8.55469 20.4929 8.55469 18.6393V15.5838C8.55469 13.7301 10.0622 12.2227 11.9158 12.2227H18.638C20.4916 12.2227 21.9991 13.7301 21.9991 15.5838V18.6393C21.9991 20.4929 20.4916 22.0004 18.638 22.0004ZM11.9158 14.056C11.0731 14.056 10.388 14.7411 10.388 15.5838V18.6393C10.388 19.482 11.0731 20.1671 11.9158 20.1671H18.638C19.4807 20.1671 20.1658 19.482 20.1658 18.6393V15.5838C20.1658 14.7411 19.4807 14.056 18.638 14.056H11.9158Z" fill="#292929"/>
<path id="iconFill_3" fill-rule="evenodd" clip-rule="evenodd" d="M14.0398 16.2299C14.3418 16.2299 14.5244 16.2741 14.6378 16.3159C14.7035 16.3314 14.7643 16.3206 14.8133 16.2848C14.8419 16.2621 14.8908 16.2108 14.8908 16.1153L14.898 15.3324C14.898 15.219 14.8491 15.1426 14.7548 15.108C14.5913 15.0447 14.3454 15.0137 14.0016 15.0137C12.6457 15.0137 11.6992 15.8909 11.6992 17.1478C11.6992 18.3819 12.5861 19.2449 13.8572 19.2449C14.2535 19.2449 14.5423 19.2031 14.75 19.1184C14.8049 19.1028 14.898 19.0551 14.898 18.9107V18.1205L14.8873 18.0119L14.824 17.9654C14.7894 17.9415 14.7297 17.9164 14.6426 17.9427C14.5435 17.9725 14.3298 18.006 14.0541 18.006C13.7641 18.006 13.0909 17.9188 13.0909 17.1108C13.0909 16.551 13.4371 16.2299 14.0398 16.2299Z" fill="#292929"/>
<path id="iconFill_4" fill-rule="evenodd" clip-rule="evenodd" d="M18.906 17.9654C18.8714 17.9415 18.8106 17.9164 18.7246 17.9427C18.6256 17.9725 18.4119 18.006 18.1362 18.006C17.8461 18.006 17.1718 17.9188 17.1718 17.1108C17.1718 16.551 17.5179 16.2299 18.1219 16.2299C18.4238 16.2299 18.6064 16.2741 18.7198 16.3159C18.7855 16.3314 18.8464 16.3206 18.8953 16.2848C18.9239 16.2621 18.9729 16.2108 18.9729 16.1153L18.98 15.3324C18.98 15.219 18.9311 15.1426 18.8368 15.108C18.6733 15.0447 18.4274 15.0137 18.0837 15.0137C16.7278 15.0137 15.7812 15.8909 15.7812 17.1478C15.7812 18.3819 16.6681 19.2449 17.938 19.2449C18.3355 19.2449 18.6243 19.2031 18.832 19.1184C18.8869 19.1028 18.98 19.0551 18.98 18.9107V18.1205L18.9693 18.0119L18.906 17.9654Z" fill="#292929"/>
<path id="iconFill_5" fill-rule="evenodd" clip-rule="evenodd" d="M5.41287 17.1111C2.42774 17.1111 0 14.6834 0 11.6982V5.41287C0 2.42774 2.42774 0 5.41287 0H11.6982C14.6834 0 17.1111 2.42774 17.1111 5.41287V8.91959C17.1111 9.59515 16.5644 10.1418 15.8889 10.1418C15.2133 10.1418 14.6667 9.59515 14.6667 8.91959V5.41287C14.6667 3.77647 13.3346 2.44444 11.6982 2.44444H5.41287C3.77647 2.44444 2.44444 3.77647 2.44444 5.41287V11.6982C2.44444 13.3346 3.77647 14.6667 5.41287 14.6667C6.08843 14.6667 6.63509 15.2133 6.63509 15.8889C6.63509 16.5644 6.08843 17.1111 5.41287 17.1111Z" fill="#292929"/>
</g>
<defs>
<clipPath id="clip0_5485_14667">
<rect width="22" height="22" fill="white"/>
</clipPath>
</defs>
</svg>
