<svg xmlns="http://www.w3.org/2000/svg" width="40" height="40" viewBox="0 0 40 40">
  <g id="EDU_Work-together" transform="translate(-4862 -3325)">
    <rect id="Rectangle_758353" data-name="Rectangle 758353" width="40" height="40" transform="translate(4862 3325)" fill="none"/>
    <g id="SX_Feedback_44_N" transform="translate(4861.666 3324.642)">
      <path id="Path_1068553" data-name="Path 1068553" d="M33.049,2.41H7.62A5.616,5.616,0,0,0,2.01,8.02V22.852a5.616,5.616,0,0,0,5.61,5.61h.743V36.4a1.9,1.9,0,0,0,1.173,1.76,1.871,1.871,0,0,0,.733.147,1.9,1.9,0,0,0,1.348-.559L20.9,28.462H33.049a5.616,5.616,0,0,0,5.61-5.61V8.029a5.616,5.616,0,0,0-5.61-5.61Zm2.86,20.451a2.864,2.864,0,0,1-2.86,2.86H20.463a1.708,1.708,0,0,0-1.2.5L11.1,34.375V27.417a1.7,1.7,0,0,0-1.7-1.7h-1.8a2.864,2.864,0,0,1-2.86-2.86V8.029a2.864,2.864,0,0,1,2.86-2.86H33.04a2.864,2.864,0,0,1,2.86,2.86V22.861Z" fill="#242424"/>
      <circle id="Ellipse_30785" data-name="Ellipse 30785" cx="2.008" cy="2.008" r="2.008" transform="translate(12.066 13.438)" fill="#242424"/>
      <circle id="Ellipse_30786" data-name="Ellipse 30786" cx="2.008" cy="2.008" r="2.008" transform="translate(18.318 13.438)" fill="#242424"/>
      <circle id="Ellipse_30787" data-name="Ellipse 30787" cx="2.008" cy="2.008" r="2.008" transform="translate(24.569 13.438)" fill="#242424"/>
    </g>
  </g>
</svg>
