<svg width="18" height="19" viewBox="0 0 18 19" fill="none" xmlns="http://www.w3.org/2000/svg">
<g id="Frame" clip-path="url(#clip0_3052_4663)">
<path id="iconFill" fill-rule="evenodd" clip-rule="evenodd" d="M9 0.5C4.0376 0.5 0 4.53711 0 9.5C0 14.4629 4.0376 18.5 9 18.5C13.9624 18.5 18 14.4629 18 9.5C18 4.53711 13.9624 0.5 9 0.5ZM12 10.5H6C5.44775 10.5 5 10.0527 5 9.5C5 8.94727 5.44775 8.5 6 8.5H12C12.5522 8.5 13 8.94727 13 9.5C13 10.0527 12.5522 10.5 12 10.5Z" fill="#5258E4"/>
</g>
<defs>
<clipPath id="clip0_3052_4663">
<rect width="18" height="18" fill="white" transform="translate(0 0.5)"/>
</clipPath>
</defs>
</svg>
