<svg xmlns="http://www.w3.org/2000/svg" width="838.418" height="336.359" viewBox="0 0 838.418 336.359">
  <g id="CCX-JDI037-color-marquee-localisation-desktop" transform="translate(17613.721 24005.098)">
    <rect id="Rectangle_361901" data-name="Rectangle 361901" width="83.92" height="167.625" transform="translate(-17194.574 -23837.375)" opacity="0.1"/>
    <path id="Path_973391" data-name="Path 973391" d="M167.619,335.251V167.62A167.627,167.627,0,0,0,0,335.251Z" transform="translate(-17446 -24171.619)" opacity="0.2"/>
    <path id="Path_973392" data-name="Path 973392" d="M167.619,167.62V335.251A167.627,167.627,0,0,1,0,167.62Z" transform="translate(-17613.721 -24003.988)" opacity="0.3"/>
    <path id="Path_973386" data-name="Path 973386" d="M167.62,83.71v83.91H83.71a83.913,83.913,0,0,1,83.91-83.91" transform="translate(-17278.387 -24005.098)" opacity="0.2"/>
    <path id="Path_973388" data-name="Path 973388" d="M167.618,167.618V83.71H83.71a83.911,83.911,0,0,0,83.908,83.908" transform="translate(-17362.295 -23837.379)" opacity="0.2"/>
    <path id="Path_973387" data-name="Path 973387" d="M167.62,0V83.71a83.913,83.913,0,0,0-83.91,83.91H0A167.625,167.625,0,0,1,167.62,0" transform="translate(-17278.387 -24005.098)" opacity="0.3"/>
    <path id="Path_973383" data-name="Path 973383" d="M1087.431,167.62a167.612,167.612,0,0,1-167.62,167.62V167.62Z" transform="translate(-17862.734 -24005)" opacity="0.1"/>
    <path id="Path_973384" data-name="Path 973384" d="M1087.431,167.62h-83.71a83.915,83.915,0,1,0-83.91,83.92v83.7a167.62,167.62,0,1,1,167.62-167.62" transform="translate(-17862.734 -24005)" opacity="0.3"/>
    <path id="Path_973385" data-name="Path 973385" d="M919.811,83.71V251.54a83.915,83.915,0,1,1,0-167.83" transform="translate(-17862.734 -24005)" opacity="0.2"/>
    <circle id="Ellipse_26512" data-name="Ellipse 26512" cx="83.915" cy="83.915" r="83.915" transform="translate(-17446 -23836.83)" opacity="0.2"/>
  </g>
</svg>
