<svg xmlns="http://www.w3.org/2000/svg" id="ICONS" width="44" height="44" viewBox="0 0 44 44">
  <defs>
    <style>
      .fill {
        fill: #222;
      }
    </style>
  </defs>
  <rect id="Canvas" fill="#ff13dc" opacity="0" width="44" height="44" /><path class="fill" d="m32.09618,7.44514c0-1.07453.87109-1.94562,1.94562-1.94562s1.94562.87109,1.94562,1.94562-.87109,1.94562-1.94562,1.94562-1.94562-.87109-1.94562-1.94562Zm1.94561-1.94562c-1.0745,0-1.94562.87108-1.94562,1.94562s.87112,1.94562,1.94562,1.94562,1.94562-.87108,1.94562-1.94562-.87108-1.94562-1.94562-1.94562Zm-6.98124,31.93994c-.58594-.58594-1.53516-.58594-2.12109,0l-1.43945,1.43945v-7.01562c0-.82812-.67188-1.5-1.5-1.5s-1.5.67188-1.5,1.5v7.01562l-1.43945-1.43945c-.58594-.58594-1.53516-.58594-2.12109,0s-.58594,1.53516,0,2.12109l4,4c.29297.29297.67676.43945,1.06055.43945s.76758-.14648,1.06055-.43945l4-4c.58594-.58594.58594-1.53516,0-2.12109ZM35.5,0h-11.99609C19.82422,0,16.71387,2.64258,16.10742,6.2832c-.13672.81641.41602,1.58984,1.2334,1.72559.80957.13672,1.58984-.41504,1.72559-1.2334.36426-2.1875,2.23047-3.77539,4.4375-3.77539h11.99609c2.48145,0,4.5,2.0332,4.5,4.5332v6.42163l-1.93066-1.80249c-1.05469-.98242-2.66699-1.00781-3.79492-.01953l-2.54785,2.41602c-.55957-.47559-1.40234-.47754-1.96777.02734-.61719.55273-.66992,1.50098-.11816,2.11816.50879.56836,1.20898.89941,1.97168.93066.76074.02344,1.48633-.24121,2.03809-.7666l2.51172-2.38281,3.11328,2.90723c.06445.06006.14374.08838.21509.13501-.74615,1.46631-2.24542,2.48218-3.99048,2.48218h-4.5c-.82812,0-1.5.67188-1.5,1.5s.67188,1.5,1.5,1.5h4.5c4.13574,0,7.5-3.37891,7.5-7.5332v-7.93359C43,3.37891,39.63574,0,35.5,0Zm-18.20379,19.50203c1.07453,0,1.94562-.87109,1.94562-1.94562s-.87109-1.94562-1.94562-1.94562-1.94562.87109-1.94562,1.94562.87109,1.94562,1.94562,1.94562Zm16.74559-10.11127c1.07453,0,1.94562-.87109,1.94562-1.94562s-.87109-1.94562-1.94562-1.94562-1.94562.87109-1.94562,1.94562.87109,1.94562,1.94562,1.94562Zm-7.0418,8.10924v8c0,.4043-.03223.80957-.09668,1.20508-.00085.00513-.00311.00977-.00397.01465-.01031.05981-.02936.11816-.04712.17676-.01154.03833-.01941.07837-.03375.11523-.01337.03394-.03314.06592-.04907.09912-.0282.05908-.05579.11816-.09094.17236-.00226.00342-.00336.00732-.00562.01074-.00684.01025-.01648.01709-.0235.0271-.05908.08496-.12634.16235-.20074.23267-.02014.01904-.04053.03662-.06158.0542-.0733.06226-.15173.1167-.2356.16357-.01575.00879-.03021.01904-.0462.02734-.2016.10352-.42645.16187-.66309.16357-.00684,0-.01343.00244-.02026.00244-.01605,0-.03186-.00635-.04791-.00684-.0636-.00244-.12677-.00171-.19135-.0127-.04327-.00684-.08258-.02271-.12433-.0332-.03351-.0083-.06616-.01562-.0993-.02637-.12677-.04126-.24615-.09521-.35431-.16577-.00348-.0022-.00745-.00293-.01093-.00513l-4.5791-3.03711c-.01562-.00977-.03027-.02051-.0459-.03125l-2.51953,2.3916c-.55371.52637-1.28418.80762-2.04102.76562-.76172-.03223-1.46191-.3623-1.96973-.93164l-5.5127-5.46582-4.87549,4.55298c.2337,2.26343,2.12939,4.04077,4.45361,4.04077h8.49609c.82812,0,1.5.67188,1.5,1.5s-.67188,1.5-1.5,1.5H7.50391C3.36816,33,.00391,29.63574.00391,25.5v-.17798c.00024-.01099-.00049-.02124,0-.03247v-7.78955C.00391,13.36426,3.36816,10,7.50391,10h11.99609c4.13574,0,7.5,3.36426,7.5,7.5Zm-5.24219,4.7334l2.24219,1.48755v-6.22095c0-2.48145-2.01855-4.5-4.5-4.5H7.50391c-2.48145,0-4.5,2.01855-4.5,4.5v4.39941l3.07129-2.86621c1.15625-.96777,2.75879-.91504,3.79004.07129l5.66406,5.62012,2.54395-2.41309c1.09277-.95605,2.63086-.96191,3.68457-.07812Z" />
</svg>