<svg width="19" height="18" viewBox="0 0 19 18" fill="none" xmlns="http://www.w3.org/2000/svg">
<g clip-path="url(#clip0_16775_18442)">
<path d="M12.5 11C14.7091 11 16.5 9.20914 16.5 7C16.5 4.79086 14.7091 3 12.5 3C10.2909 3 8.5 4.79086 8.5 7C8.5 9.20914 10.2909 11 12.5 11Z" fill="#5258E4"/>
<path fill-rule="evenodd" clip-rule="evenodd" d="M12.5 12C8.87302 12 6.5 14.9588 6.5 15.9999C6.5 16.6992 7.11069 17 7.49998 17L17.5 16.999C17.8814 16.999 18.5 16.7001 18.5 15.9988C18.5 14.9766 16.1849 12 12.5 12Z" fill="#5258E4"/>
<path fill-rule="evenodd" clip-rule="evenodd" d="M6.5 8C7.05225 8 7.5 7.55273 7.5 7C7.5 6.44727 7.05225 6 6.5 6C5.39697 6 4.5 5.10254 4.5 4C4.5 2.89746 5.39697 2 6.5 2C7.09619 2 7.65723 2.26367 8.03857 2.72266C8.39111 3.14649 9.02246 3.20411 9.44677 2.85254C9.87157 2.49902 9.92968 1.86816 9.57665 1.44336C8.81397 0.52636 7.69288 0 6.5 0C4.29444 0 2.5 1.79394 2.5 4C2.5 6.20606 4.29443 8 6.5 8Z" fill="#5258E4"/>
<path fill-rule="evenodd" clip-rule="evenodd" d="M7.58591 11.1009C8.08225 11.1009 8.58387 10.7031 8.58387 10.0996C8.58387 9.05024 7.3746 9 6.50024 9C2.89122 9 0.5 11.9403 0.5 12.9992C0.5 13.5415 0.93805 14 1.49927 14C1.86548 14 2.21851 13.7978 2.3938 13.4492C3.14087 11.9609 4.75269 11 6.50025 11C7.13656 11 7.36212 11.1009 7.58591 11.1009Z" fill="#5258E4"/>
</g>
<defs>
<clipPath id="clip0_16775_18442">
<rect width="18" height="18" fill="white" transform="translate(0.5)"/>
</clipPath>
</defs>
</svg>
