<svg width="22" height="22" viewBox="0 0 22 22" fill="none" xmlns="http://www.w3.org/2000/svg">
<g id="Frame" clip-path="url(#clip0_5485_17149)">
<path id="iconFill" fill-rule="evenodd" clip-rule="evenodd" d="M13.4394 4.79107C14.1651 4.76242 14.6891 4.19308 14.6616 3.51871C14.6425 3.04963 14.5363 2.59726 14.3465 2.17116C14.072 1.55527 13.3487 1.27478 12.7328 1.55289C12.1157 1.82741 11.8388 2.54952 12.1145 3.1666C12.1778 3.30863 12.2124 3.46021 12.2196 3.61897C12.2458 4.27663 12.7877 4.79107 13.4394 4.79107Z" fill="#292929"/>
<path id="iconFill_2" fill-rule="evenodd" clip-rule="evenodd" d="M9.67085 2.44444C10.4049 2.44444 10.9987 1.89778 10.9987 1.22222C10.9987 0.546663 10.4049 0 9.67085 0H8.65989C7.92584 0 7.33203 0.546663 7.33203 1.22222C7.33203 1.89778 7.92584 2.44444 8.65989 2.44444H9.67085Z" fill="#292929"/>
<path id="iconFill_3" fill-rule="evenodd" clip-rule="evenodd" d="M1.22222 6.11198C1.89778 6.11198 2.44444 5.52056 2.44444 4.7895V3.75228C2.44444 3.02122 1.89778 2.44531 1.22222 2.44531C0.546663 2.44531 0 3.05106 0 3.78212V4.7895C0 5.52056 0.546663 6.11198 1.22222 6.11198Z" fill="#292929"/>
<path id="iconFill_4" fill-rule="evenodd" clip-rule="evenodd" d="M3.77317 2.44444H4.78413C5.51819 2.44444 6.11199 1.89778 6.11199 1.22222C6.11199 0.546663 5.51819 0 4.78413 0H3.77317C3.03912 0 2.44531 0.546663 2.44531 1.22222C2.44531 1.89778 3.03912 2.44444 3.77317 2.44444Z" fill="#292929"/>
<path id="iconFill_5" fill-rule="evenodd" clip-rule="evenodd" d="M15.8889 7.33355H14.647C14.5954 6.65172 14.0854 6.11133 13.4445 6.11133C12.7689 6.11133 12.2222 6.70513 12.2222 7.43888V8.45014C12.2222 9.18419 12.7689 9.77799 13.4445 9.77799H15.8889C17.9108 9.77799 19.5556 11.4227 19.5556 13.4447V15.8891C19.5556 17.911 17.9108 19.5558 15.8889 19.5558H13.4445C12.4201 19.5558 11.495 19.1315 10.829 18.4517L13.9487 15.2365C13.9696 15.215 13.9902 15.193 14.0102 15.1706C14.8944 14.1894 14.8932 12.7106 14.0078 11.731C13.9896 11.7107 13.9711 11.6907 13.952 11.6713L10.5342 8.13382C9.99861 7.60358 9.34452 7.33353 8.65255 7.33353C7.94685 7.33382 7.25995 7.62237 6.7673 8.12576C6.31016 8.59961 6.05115 9.20028 6.02012 9.83973C5.96402 9.8436 5.90882 9.84629 5.85451 9.84778L5.7447 9.84957C5.47585 9.84957 5.23236 9.81674 4.9999 9.749C4.70867 9.66485 4.40372 9.51835 4.08711 9.31096C3.65594 9.02749 3.15583 8.87739 2.6402 8.87739C2.57424 8.87739 2.51009 8.89231 2.44444 8.89738V8.55572C2.44444 7.88016 1.89778 7.3335 1.22222 7.3335C0.546663 7.3335 0 7.88016 0 8.55572C0 8.55572 0.00716222 11.4203 0.00985111 11.4442C-0.00507222 11.967 0.127123 12.496 0.430589 12.9633C0.775231 13.4932 1.16046 13.9796 1.57613 14.4099C1.76859 14.6089 1.97151 14.8008 2.18575 14.9834C2.87236 15.5742 3.67742 16.0705 4.56991 16.4512C5.05421 16.6601 5.54297 16.8254 6.01772 16.9609C6.02846 17.6329 6.28956 18.2667 6.75594 18.7501C7.23755 19.2463 7.8976 19.5289 8.58062 19.5483C9.69692 21.028 11.4524 22.0002 13.4444 22.0002H15.8889C19.2584 22.0002 22 19.2585 22 15.8891V13.4446C22 10.0751 19.2584 7.33355 15.8889 7.33355ZM8.77697 17.0573C8.73669 17.097 8.69342 17.1113 8.65374 17.1113C8.59287 17.1113 8.53975 17.0782 8.51528 17.0531C8.48276 17.0194 8.46187 16.9729 8.46187 16.9174L8.46158 15.0223C7.53089 14.8313 6.50322 14.6233 5.52897 14.2029C4.891 13.9307 4.28646 13.5664 3.77173 13.1236C3.61775 12.9923 3.47214 12.8541 3.33399 12.7112C3.00844 12.3743 2.72586 12.0091 2.48059 11.6319C2.43523 11.5621 2.43195 11.4547 2.50446 11.3798C2.54087 11.3422 2.5901 11.3219 2.64022 11.3219C2.67573 11.3219 2.71154 11.332 2.74377 11.3532C3.24924 11.6841 3.78218 11.9419 4.3163 12.0959C4.79224 12.2347 5.26938 12.294 5.74471 12.294C5.8032 12.294 5.86168 12.2932 5.92016 12.2914C6.74373 12.2693 7.55716 12.0789 8.46129 11.8724V9.97075C8.46129 9.91554 8.48217 9.869 8.5147 9.83528C8.53857 9.81081 8.59168 9.77798 8.65255 9.77798C8.69253 9.77798 8.73581 9.79231 8.77639 9.83229L12.1942 13.3698C12.253 13.4348 12.216 13.5103 12.1942 13.5345L8.77697 17.0573Z" fill="#292929"/>
</g>
<defs>
<clipPath id="clip0_5485_17149">
<rect width="22" height="22" fill="white"/>
</clipPath>
</defs>
</svg>
