<svg xmlns="http://www.w3.org/2000/svg" id="ICONS" width="44" height="44" viewBox="0 0 44 44">
  <defs>
    <style>
      .fill {
        fill: #222;
      }
    </style>
  </defs>
  <rect id="Canvas" fill="#ff13dc" opacity="0" width="44" height="44" /><path class="fill" d="m28.71069,25.53866c-.74469-.48573-1.71069.07298-1.71069.98945v6.21406c0,.91642.966,1.47513,1.71069.98945l4.76379-3.10703c.70068-.45703.70068-1.52192,0-1.97889l-4.76379-3.10703Z" />
  <path class="fill" d="m19.70215,6.00488c.65625.02832,1.2832.19531,1.86328.49512.2207.11426.45605.16797.68848.16797.54297,0,1.06641-.29492,1.33301-.81055.38086-.73535.09277-1.64062-.64258-2.02148-.96973-.50195-2.0166-.78125-3.11133-.8291-.81934-.03125-1.52734.60547-1.56445,1.43359-.03613.82715.60547,1.52734,1.43359,1.56445Z" />
  <path class="fill" d="m23.7793,9.10254c.14648.4502.2207.91992.2207,1.39746v.70312c0,.82812.67188,1.5,1.5,1.5s1.5-.67188,1.5-1.5v-.70312c0-.79297-.12402-1.5752-.36719-2.3252-.25586-.78809-1.10059-1.22168-1.89062-.96289-.78809.25586-1.21875,1.10254-.96289,1.89062Z" />
  <path class="fill" d="m12.49902,6h2.5957c.82812,0,1.5-.67188,1.5-1.5s-.67188-1.5-1.5-1.5h-2.5957c-.82812,0-1.5.67188-1.5,1.5s.67188,1.5,1.5,1.5Z" />
  <path class="fill" d="m9.29199,4.31738c-.22852-.79785-1.06055-1.25684-1.85449-1.03027-1.05078.30078-2.00293.81543-2.83301,1.53125-.62695.54102-.69629,1.48828-.15527,2.11621.29688.34375.71582.51953,1.13672.51953.34668,0,.69531-.12012.97949-.36426.49707-.42969,1.06836-.73828,1.69629-.91797.79688-.22852,1.25781-1.05859,1.03027-1.85449Z" />
  <path class="fill" d="m3.63672,8.51855c-.82031-.05762-1.54785.5498-1.61328,1.37695-.0166.20215-.02441.40625-.02344.60449v2.1084c0,.82812.67188,1.5,1.5,1.5s1.5-.67188,1.5-1.5v-2.11719c-.00098-.12109.00488-.24121.01367-.35938.06543-.8252-.55078-1.54785-1.37695-1.61328Z" />
  <path class="fill" d="m3.5,15.83301c-.82812,0-1.5.67188-1.5,1.5v1.25c0,.82812.67188,1.5,1.5,1.5s1.5-.67188,1.5-1.5v-1.25c0-.82812-.67188-1.5-1.5-1.5Z" />
  <path class="fill" d="m34.5,17h-7.5v-1.125c0-.82812-.67188-1.5-1.5-1.5s-1.5.67188-1.5,1.5v2.5957c0,.00488.00146.00977.00146.01465s-.00146.00977-.00146.01465c0,.82812.67188,1.5,1.5,1.5h9c2.48145,0,4.5,2.01855,4.5,4.5v10c0,2.48145-2.01855,4.5-4.5,4.5h-10c-2.48145,0-4.5-2.01855-4.5-4.5v-1c0-.0144-.00378-.02759-.00415-.04199l3.12842-3.22046c.02136-.02197.04236-.04419.06311-.06689.92932-1.01733,1.07751-2.45972.46887-3.62573.23621-.04834.46692-.1333.66406-.29883.82715-.69434,1.50684-1.5752,1.96582-2.5498.35254-.74902.03125-1.64258-.71875-1.99609-.74902-.35156-1.64258-.03125-1.99609.71875-.27441.58301-.68262,1.1123-1.17871,1.52832-.20752.17432-.34985.39478-.43726.63208l-4.42798-4.57666c-.01575-.01636-.03174-.03247-.04785-.04858-.62317-.61548-1.44397-.95435-2.31116-.95435h-.00037c-.89172,0-1.75854.36621-2.37805,1.00439-.60327.61987-.93616,1.44287-.93506,2.31519v.6687c-.43506.06934-.849.11523-1.24536.12573-.07422.00244-.1394.00342-.20483.00342-.53845,0-1.03088-.06714-1.50549-.20508-.57117-.16455-1.16284-.44653-1.76538-.84058-.54614-.35767-1.1731-.54492-1.8186-.54492-.88806,0-1.75281.36523-2.37268,1.0022-1.09119,1.12354-1.25745,2.82373-.40649,4.13647.53076.81567,1.12183,1.56128,1.75977,2.2207.29736.30737.60925.60059.92749.87183,1.04956.9021,2.28101,1.65942,3.65039,2.24292,1.00647.43359,2.01208.74316,2.98206.98901l.00012.69336c0,.8667.33044,1.68604.93054,2.30688.62195.64233,1.49036,1.01025,2.38403,1.01025.75269,0,1.46277-.26929,2.04688-.7395.79529,3.28735,3.75427,5.73926,7.28271,5.73926h10c4.13574,0,7.5-3.36426,7.5-7.5v-10c0-4.13574-3.36426-7.5-7.5-7.5Zm-19.32959,17.00024c-.09973,0-.18701-.0542-.22705-.09546-.0531-.05493-.08752-.13135-.08752-.22192l-.00037-3.10132c-1.52527-.3125-3.20935-.65308-4.80603-1.34082-1.0459-.44556-2.03674-1.04126-2.88-1.76611-.25232-.21509-.49121-.44067-.71753-.67456-.53357-.55151-.99683-1.14917-1.39844-1.76636-.07422-.1145-.07983-.29028.03894-.4126.05994-.06152.14062-.09448.22278-.09448.05798,0,.11658.01636.16919.05078l.00757.00488c.82849.54175,1.69434.9585,2.57007,1.21069.78076.22681,1.56335.32422,2.34265.32422.09534,0,.19043-.00146.28564-.00439,1.34985-.03638,2.68286-.34766,4.16467-.68555l-.00012-3.11182c-.00012-.09058.0343-.16699.08752-.22168.03894-.04004.1261-.09399.22595-.09399.06555,0,.1366.02319.203.08887l5.60107,5.78906c.09644.10596.03613.22998,0,.26953l-5.6001,5.76489c-.06616.06494-.13672.08813-.2019.08813Z" />
</svg>