<svg width="31" height="31" viewBox="0 0 31 31" fill="none" xmlns="http://www.w3.org/2000/svg">
<g clip-path="url(#clip0_2533_109698)">
<path d="M28.866 22.412H24.188V17.736C24.188 17.3977 24.0536 17.0733 23.8144 16.8341C23.5752 16.5949 23.2508 16.4605 22.9125 16.4605C22.5742 16.4605 22.2498 16.5949 22.0106 16.8341C21.7714 17.0733 21.637 17.3977 21.637 17.736V22.412H16.963C16.6247 22.412 16.3003 22.5464 16.0611 22.7856C15.8219 23.0248 15.6875 23.3492 15.6875 23.6875C15.6875 24.0258 15.8219 24.3502 16.0611 24.5894C16.3003 24.8286 16.6247 24.963 16.963 24.963H21.639V29.639C21.639 29.9773 21.7734 30.3017 22.0126 30.5409C22.2518 30.7801 22.5762 30.9145 22.9145 30.9145C23.2528 30.9145 23.5772 30.7801 23.8164 30.5409C24.0556 30.3017 24.19 29.9773 24.19 29.639V24.961H28.866C29.2043 24.961 29.5287 24.8266 29.7679 24.5874C30.0071 24.3482 30.1415 24.0238 30.1415 23.6855C30.1415 23.3472 30.0071 23.0228 29.7679 22.7836C29.5287 22.5444 29.2043 22.41 28.866 22.41V22.412Z" fill="#F8F8F8"/>
<path d="M20.31 13.069H25.292V14.991C25.292 15.296 25.4132 15.5885 25.6288 15.8042C25.8445 16.0198 26.137 16.141 26.442 16.141C26.747 16.141 27.0395 16.0198 27.2552 15.8042C27.4708 15.5885 27.592 15.296 27.592 14.991V12.951C27.5937 11.5019 27.0492 10.1054 26.067 9.04L19.454 1.855C18.916 1.27133 18.2632 0.805236 17.5364 0.486005C16.8097 0.166773 16.0248 0.00130583 15.231 0H7.281C5.34821 0.00503056 3.49631 0.776356 2.1314 2.14483C0.76649 3.5133 -6.54658e-06 5.36721 0 7.3V21.91C-6.54658e-06 23.8428 0.76649 25.6967 2.1314 27.0652C3.49631 28.4336 5.34821 29.205 7.281 29.21H14.181C14.4868 29.21 14.7801 29.0885 14.9963 28.8723C15.2125 28.6561 15.334 28.3628 15.334 28.057C15.334 27.7512 15.2125 27.4579 14.9963 27.2417C14.7801 27.0255 14.4868 26.904 14.181 26.904H7.281C5.95804 26.8992 4.69089 26.3704 3.7571 25.4332C2.8233 24.496 2.29899 23.227 2.299 21.904V7.3C2.29899 5.97703 2.8233 4.70798 3.7571 3.77081C4.69089 2.83365 5.95804 2.30476 7.281 2.3H14.562V7.3C14.5612 8.82637 15.166 10.2907 16.2436 11.3717C17.3212 12.4527 18.7836 13.062 20.31 13.066V13.069ZM16.861 2.738C17.1967 2.91397 17.5008 3.14444 17.761 3.42L24.377 10.6C24.422 10.649 24.455 10.707 24.498 10.758H20.31C19.3941 10.7556 18.5165 10.39 17.8699 9.74129C17.2233 9.09262 16.8605 8.21391 16.861 7.298V2.738Z" fill="#F8F8F8"/>
</g>
<defs>
<clipPath id="clip0_2533_109698">
<rect width="30.141" height="30.914" fill="white"/>
</clipPath>
</defs>
</svg>
