<svg width="44" height="44" viewBox="0 0 44 44" fill="none" xmlns="http://www.w3.org/2000/svg">
<path d="M36.5 12H32.2833C32.9667 10.9785 33.3667 9.7522 33.3667 8.43359C33.3667 4.88574 30.481 2 26.9336 2C24.9537 2 23.1808 2.90015 21.9999 4.31152C20.8187 2.90014 19.0463 2 17.0664 2C13.5191 2 10.6333 4.88574 10.6333 8.43359C10.6333 9.75219 11.0333 10.9785 11.7167 12H7.5C4.46729 12 2 14.4678 2 17.5V20.5C2 22.6318 3.22192 24.4805 5 25.3928V34.5156C5.04443 38.6426 8.44629 42 12.5835 42H31.0728C33.2129 42 35.3189 41.1152 36.8516 39.5723C38.2495 38.165 39.0127 36.3594 39 34.5V25.3928C40.7781 24.4805 42 22.6318 42 20.5V17.5C42 14.4678 39.5327 12 36.5 12ZM26.9336 5C28.8267 5 30.3667 6.54004 30.3667 8.43359C30.3667 10.3262 28.8267 11.8662 26.9336 11.8662H23.5V8.43359C23.5 6.54004 25.0405 5 26.9336 5ZM17.0664 5C18.9595 5 20.5 6.54004 20.5 8.43359V11.8662H17.0664C15.1734 11.8662 13.6333 10.3262 13.6333 8.43359C13.6333 6.54004 15.1733 5 17.0664 5ZM5.00001 17.5C5.00001 16.1211 6.12159 15 7.50001 15H20.5V23H7.50001C6.12159 23 5.00001 21.8789 5.00001 20.5V17.5ZM8.00001 34.5V26H20.5V38.5664C20.5 38.7183 20.5292 38.8618 20.5712 39H12.5835C10.125 39 8.02589 36.9316 8.00001 34.5ZM34.7232 37.458C33.7642 38.4238 32.3994 39 31.0728 39H23.4288C23.4708 38.8618 23.5 38.7183 23.5 38.5664V26H36V34.5098C36.0073 35.5752 35.5537 36.6221 34.7232 37.458ZM39 20.5C39 21.8789 37.8784 23 36.5 23H23.5V15H36.5C37.8784 15 39 16.1211 39 17.5V20.5Z" fill="#222222"/>
</svg>
