<svg width="33" height="34" viewBox="0 0 33 34" fill="none" xmlns="http://www.w3.org/2000/svg">
<path fill-rule="evenodd" clip-rule="evenodd" d="M4.45463 12.8414L7.12765 10.2597L6.86805 6.55362C6.86805 6.54825 6.86625 6.54108 6.86625 6.53571C6.83045 5.93056 7.05782 5.33975 7.50004 4.90648C8.32541 4.10977 9.64669 4.13125 10.4541 4.9584L13.0305 7.63142L16.7311 7.37182C17.3417 7.33244 17.9576 7.55801 18.3765 7.99486C18.7668 8.3941 18.978 8.92227 18.9709 9.48264C18.9637 10.0412 18.7364 10.564 18.3335 10.9543L15.6605 13.536L15.9201 17.2331C15.9666 17.8562 15.7339 18.4613 15.2881 18.8892C14.896 19.2688 14.384 19.4747 13.8397 19.4747H13.7967C13.2381 19.4639 12.7171 19.2347 12.3376 18.8373L9.75764 16.1643L6.05874 16.4239C5.44645 16.4543 4.83413 16.2377 4.40446 15.7919C3.60417 14.9647 3.62749 13.6417 4.45463 12.8414Z" fill="#292929"/>
<path fill-rule="evenodd" clip-rule="evenodd" d="M19.7474 23.7515L19.5576 21.0391C19.5317 20.6846 19.6642 20.339 19.9202 20.0902C20.3955 19.6283 21.1564 19.6408 21.6201 20.1206L23.5045 22.0775L26.2222 21.8859C26.5776 21.8662 26.9223 21.9951 27.1631 22.2493C27.386 22.4785 27.5059 22.7829 27.5006 23.1033C27.4961 23.4238 27.3663 23.7228 27.1353 23.9466L25.1811 25.839L25.3736 28.555C25.396 28.8988 25.268 29.2389 25.0164 29.4896C24.7837 29.7188 24.4802 29.8334 24.175 29.8334C23.8625 29.8334 23.5492 29.7134 23.3102 29.4699L21.4214 27.5202L18.709 27.7028C18.359 27.7368 18.0099 27.5936 17.7762 27.3483C17.5497 27.1192 17.4262 26.8148 17.4289 26.4925C17.4316 26.1703 17.5596 25.8677 17.7932 25.6403L19.7474 23.7515Z" fill="#292929"/>
</svg>
