<svg xmlns="http://www.w3.org/2000/svg" width="40" height="40" viewBox="0 0 40 40">
  <g id="EDU_All-in-one-editor" transform="translate(-4775 -3318)">
    <rect id="Rectangle_758351" data-name="Rectangle 758351" width="40" height="40" transform="translate(4775 3318)" fill="none"/>
    <path id="SX_Edit_44_N" d="M37.09,7.07a8.19,8.19,0,0,0-11.54,0L4.98,27.64a1.5,1.5,0,0,0-.44,1.06l-.02,9.41a1.5,1.5,0,0,0,1.5,1.5l9.44.02h0a1.5,1.5,0,0,0,1.06-.44L37.13,18.58a8.182,8.182,0,0,0-.05-11.51ZM7.53,36.62V29.57a7.625,7.625,0,0,1,7.06,7.06l-7.06-.02Zm9.68-2.34a10.664,10.664,0,0,0-7.3-7.32L23.94,12.92l7.31,7.31L17.21,34.27ZM34.97,16.51l-1.6,1.6L26.06,10.8l1.6-1.6a5.169,5.169,0,0,1,7.3,7.32Z" transform="translate(4772.499 3315.839)" fill="#242424"/>
  </g>
</svg>
