<?xml version="1.0" encoding="UTF-8"?>
<svg id="ICONS" xmlns="http://www.w3.org/2000/svg" width="22" height="22" viewBox="0 0 22 22">
  <defs>
    <style>
      .fill {
        fill: #444;
      }
    </style>
  </defs>
  <path class="fill" d="M13.53101,1.44884L1.30371,13.68363c-.1875,.1875-.29199,.44043-.29297,.70532l-.01074,5.59714c-.00098,.55298,.44531,1.00122,.99817,1.00219l5.61499,.01172c.2677,0,.52161-.10547,.70911-.29297l12.25549-12.25921c1.90747-1.93798,1.89478-5.07736-.0293-6.99996-1.93384-1.93016-5.08362-1.93114-7.01746,.00098ZM3,18.99171l.00732-3.99168c2.11572,.20972,3.78674,1.88329,3.99268,3.99998l-4-.0083Zm5.70361-1.49535c-.62744-1.98998-2.19946-3.56419-4.18787-4.19553L12.65234,5.16049l4.19116,4.19456-8.13989,8.14131ZM19.13281,7.06551l-.87524,.87548L14.06592,3.74619l.87646-.87695c1.15625-1.15429,3.03613-1.15331,4.19043-.00098,1.14844,1.14745,1.15625,3.02244,0,4.19724Z"/>
</svg>