<?xml version="1.0" encoding="UTF-8"?>
<svg id="ICONS" xmlns="http://www.w3.org/2000/svg" viewBox="0 0 44 44">
  <defs>
    <style>
      .fill {
        fill: #222;
        stroke-width: 0px;
      }
    </style>
  </defs>
  <path class="fill" d="m37.09,7.07c-3.18-3.17-8.36-3.17-11.54,0L4.98,27.64c-.28.28-.44.66-.44,1.06l-.02,9.41c0,.83.67,1.5,1.5,1.5l9.44.02h0c.4,0,.78-.16,1.06-.44l20.61-20.61c3.14-3.19,3.12-8.35-.05-11.51ZM7.53,36.62v-7.05c3.78.27,6.8,3.29,7.06,7.06l-7.06-.02Zm9.68-2.34c-1-3.53-3.78-6.31-7.3-7.32l14.03-14.04,7.31,7.31-14.04,14.04Zm17.76-17.77l-1.6,1.6-7.31-7.31,1.6-1.6c2.01-2.01,5.29-2.01,7.3,0,2,2,2.02,5.27,0,7.32Z"/>
</svg>