<svg xmlns="http://www.w3.org/2000/svg" id="ICONS" width="44" height="44" viewBox="0 0 44 44">
  <defs>
    <style>
      .fill {
        fill: #222;
      }
    </style>
  </defs>
  <rect id="Canvas" fill="#ff13dc" opacity="0" width="44" height="44" /><circle class="fill" cx="25.5" cy="13" r="2.5" />
  <path class="fill" d="m27.44141,4h-15.88281c-4.71924,0-8.55859,3.7832-8.55859,8.43359v12.13281c0,4.65039,3.83936,8.43359,8.55859,8.43359h5.94141c.82861,0,1.5-.67188,1.5-1.5s-.67139-1.5-1.5-1.5h-5.94141c-3.06494,0-5.55859-2.4375-5.55859-5.43359v-.78271l6.54932-6.54932c.27295-.27246.71924-.27246,1.03516.04102l9.04492,8.35547c.2876.26562.65283.39844,1.01807.39844s.73096-.13281,1.01807-.39844l4.89307-4.52637c.15234-.125.36182-.14746.53516-.06348l3.50293,2.6416c.4541.34277,1.06299.39941,1.57227.14551s.83105-.77344.83105-1.34277v-10.05176c0-4.65039-3.83936-8.43359-8.55859-8.43359Zm5.55859,15.47559l-1.17822-.88867c-.03906-.03027-.07959-.05762-.12158-.08301-1.27148-.77441-2.89551-.66113-4.11133.33984l-3.94189,3.64355-7.98389-7.37402c-1.44385-1.44336-3.79199-1.44336-5.23486,0l-4.42822,4.42822v-7.10791c0-2.99609,2.49365-5.43359,5.55859-5.43359h15.88281c3.06494,0,5.55859,2.4375,5.55859,5.43359v7.04199Z" />
  <path class="fill" d="m42.5,30h-8.79749c.00037.00098.00043.00171.00079.00269-.59442-1.46509-2.02771-2.50269-3.70331-2.50269s-3.10889,1.0376-3.70331,2.50269c.00037-.00098.00043-.00171.00079-.00269h-1.79749c-.82861,0-1.5.67188-1.5,1.5s.67139,1.5,1.5,1.5h1.79749c-.00037-.00098-.00043-.00171-.00079-.00244.59448,1.46484,2.02771,2.50244,3.70331,2.50244s3.10883-1.0376,3.70331-2.50244c-.00037.00073-.00043.00146-.00079.00244h8.79749c.82861,0,1.5-.67188,1.5-1.5s-.67139-1.5-1.5-1.5Zm-12.5,2.5c-.55127,0-1-.44824-1-1s.44873-1,1-1,1,.44824,1,1-.44873,1-1,1Z" />
  <path class="fill" d="m42.5,38.5h-1.79749c.00037.00098.00043.00171.00079.00269-.59442-1.46509-2.02771-2.50269-3.70331-2.50269s-3.10889,1.0376-3.70331,2.50269c.00037-.00098.00043-.00171.00079-.00269h-8.79749c-.82861,0-1.5.67188-1.5,1.5s.67139,1.5,1.5,1.5h8.79749c-.00037-.00098-.00043-.00171-.00079-.00244.59448,1.46484,2.02771,2.50244,3.70331,2.50244s3.10883-1.0376,3.70331-2.50244c-.00037.00073-.00043.00146-.00079.00244h1.79749c.82861,0,1.5-.67188,1.5-1.5s-.67139-1.5-1.5-1.5Zm-5.5,2.5c-.55127,0-1-.44824-1-1s.44873-1,1-1,1,.44824,1,1-.44873,1-1,1Z" />
</svg>