<?xml version="1.0" encoding="UTF-8"?><svg width="49" height="73" viewBox="0 0 49 73" fill="none" xmlns="http://www.w3.org/2000/svg">
<rect width="49" height="73"/>
<path d="M39.0186 66.1554C39.0439 66.1885 39.0594 66.2281 39.063 66.2696C39.0667 66.3111 39.0584 66.3528 39.0392 66.3898C39.0212 66.4263 38.9921 66.4563 38.9561 66.4754C38.9201 66.4945 38.879 66.5018 38.8386 66.4962L24.6993 64.4363C24.6581 64.4298 24.6197 64.4116 24.5886 64.3838C24.5575 64.356 24.535 64.3199 24.5239 64.2797C24.5122 64.2402 24.5124 64.1982 24.5244 64.1588C24.5364 64.1194 24.5597 64.0844 24.5914 64.0582L29.3974 60.2185L29.9459 54.7717C29.9494 54.7311 29.9652 54.6925 29.9912 54.6611C30.0172 54.6297 30.0522 54.607 30.0914 54.596C30.1313 54.5859 30.1733 54.5879 30.212 54.6018C30.2507 54.6157 30.2844 54.6409 30.3087 54.6741L39.0186 66.1554Z" stroke="white" stroke-width="8.00449"/>
<path d="M24.0241 4C24.0241 4 7.71544 11.9694 10.0119 32.6158C12.3085 53.2623 24.3296 58.2603 24.3296 58.2603" stroke="white" stroke-width="5.0028" stroke-linecap="round"/>
</svg>
