<svg width="18" height="18" viewBox="0 0 18 18" fill="none" xmlns="http://www.w3.org/2000/svg">
<mask id="mask0_3570_92675" style="mask-type:alpha" maskUnits="userSpaceOnUse" x="0" y="0" width="18" height="18">
<g clip-path="url(#clip0_3570_92675)">
<path d="M9.00063 10.5C8.44796 10.5 8.00075 10.0527 8.00075 9.5V5C8.00075 4.44727 8.44796 4 9.00063 4C9.5533 4 10.0005 4.44727 10.0005 5V9.5C10.0005 10.0527 9.5533 10.5 9.00063 10.5ZM9.00063 11.75C8.31036 11.75 7.75078 12.3097 7.75078 13C7.75078 13.6903 8.31036 14.25 9.00063 14.25C9.6909 14.25 10.2505 13.6903 10.2505 13C10.2505 12.3097 9.6909 11.75 9.00063 11.75ZM17.4967 15.3389C18.1372 14.2715 18.1695 12.9785 17.5758 11.8652L12.0003 1.81543C11.3939 0.67871 10.2729 0 9.00063 0C7.73125 0 6.61225 0.67578 6.00587 1.80762L0.416703 11.8799C-0.168187 12.9785 -0.135967 14.2715 0.504583 15.3389C1.12853 16.3789 2.21726 17 3.41634 17H14.5849C15.784 17 16.8727 16.3789 17.4967 15.3389ZM10.2436 2.77148L15.8191 12.8213C16.072 13.2939 16.0574 13.8506 15.782 14.3096C15.5184 14.748 15.0829 15 14.5849 15H3.41634C2.91835 15 2.48286 14.748 2.21922 14.3096C1.94386 13.8506 1.92922 13.2939 2.17333 12.8359L7.7664 2.75684C8.01832 2.28321 8.48018 2 9.00063 2C9.52108 2 9.98293 2.2832 10.2436 2.77148Z" fill="#292929"/>
</g>
</mask>
<g mask="url(#mask0_3570_92675)">
<rect width="18" height="18" fill="white"/>
</g>
<defs>
<clipPath id="clip0_3570_92675">
<rect width="18" height="18" fill="white"/>
</clipPath>
</defs>
</svg>
