<svg xmlns="http://www.w3.org/2000/svg" width="18" height="19" viewBox="0 0 18 19" fill="none">
  <g clip-path="url(#clip0_3042_9186)">
    <path fill-rule="evenodd" clip-rule="evenodd" d="M9 0.5C4.02942 0.5 0 4.52929 0 9.5C0 14.4707 4.02942 18.5 9 18.5C13.9706 18.5 18 14.4705 18 9.5C18 4.52954 13.9706 0.5 9 0.5ZM12 10.5H10V12.5C10 13.0527 9.55273 13.5 9 13.5C8.44727 13.5 8 13.0527 8 12.5V10.5H6C5.44727 10.5 5 10.0527 5 9.5C5 8.94727 5.44727 8.5 6 8.5H8V6.5C8 5.94727 8.44727 5.5 9 5.5C9.55273 5.5 10 5.94727 10 6.5V8.5H12C12.5527 8.5 13 8.94727 13 9.5C13 10.0527 12.5527 10.5 12 10.5Z" fill="#5258E4"/>
  </g>
  <defs>
    <clipPath id="clip0_3042_9186">
      <rect width="18" height="18" fill="white" transform="translate(0 0.5)"/>
    </clipPath>
  </defs>
</svg>