<svg width="22" height="22" viewBox="0 0 22 22" fill="none" xmlns="http://www.w3.org/2000/svg">
<g id="Frame" clip-path="url(#clip0_5485_8494)">
<path id="iconFill" fill-rule="evenodd" clip-rule="evenodd" d="M7.33377 9.77778C9.35569 9.77778 11.0004 8.13303 11.0004 6.11111V2.44444H14.6671C16.689 2.44444 18.3338 4.08919 18.3338 6.11111V8.41114C18.3338 9.0867 18.881 9.63336 19.556 9.63336C20.231 9.63336 20.7782 9.0867 20.7782 8.41114V6.11111C20.7782 2.74164 18.0366 0 14.6671 0H9.56874C8.58941 0 7.66796 0.381944 6.97569 1.07422L2.29688 5.75304C1.60401 6.44532 1.22266 7.36675 1.22266 8.34548V14.6667C1.22266 18.0361 3.9643 20.7778 7.33377 20.7778H8.5357C9.21067 20.7778 9.75792 20.2311 9.75792 19.5556C9.75792 18.88 9.21067 18.3333 8.5357 18.3333H7.33377C5.31185 18.3333 3.6671 16.6886 3.6671 14.6667V9.77778H7.33377ZM8.55599 2.95052V6.11111C8.55599 6.78549 8.00754 7.33333 7.33377 7.33333H4.17317L8.55599 2.95052Z" fill="#292929"/>
<path id="iconFill_2" fill-rule="evenodd" clip-rule="evenodd" d="M21.6461 19.9184L20.0904 18.3471C20.5162 17.6221 20.7778 16.7889 20.7778 15.8889C20.7778 13.1926 18.5846 11 15.8889 11C13.1932 11 11 13.1926 11 15.8889C11 18.5852 13.1932 20.7778 15.8889 20.7778C16.797 20.7778 17.6378 20.5125 18.3672 20.0794L19.9095 21.6372C20.1482 21.8795 20.4627 22 20.7778 22C21.0887 22 21.3996 21.8818 21.6377 21.6467C22.1176 21.1717 22.1211 20.397 21.6461 19.9184ZM13.4444 15.8889C13.4444 14.5413 14.5407 13.4444 15.8889 13.4444C17.237 13.4444 18.3333 14.5413 18.3333 15.8889C18.3333 17.2364 17.237 18.3333 15.8889 18.3333C14.5407 18.3333 13.4444 17.2364 13.4444 15.8889Z" fill="#292929"/>
</g>
<defs>
<clipPath id="clip0_5485_8494">
<rect width="22" height="22" fill="white"/>
</clipPath>
</defs>
</svg>
