<svg width="22" height="22" viewBox="0 0 22 22" fill="none" xmlns="http://www.w3.org/2000/svg">
<g id="Frame">
<path id="iconFill" fill-rule="evenodd" clip-rule="evenodd" d="M15.8889 0H6.11111C2.74164 0 0 2.74164 0 6.11111V14.6667C0 18.0361 2.74164 20.7778 6.11111 20.7778H15.8889C19.2584 20.7778 22 18.0361 22 14.6667V6.11111C22 2.74164 19.2584 0 15.8889 0ZM19.5556 14.6667C19.5556 16.6886 17.9108 18.3333 15.8889 18.3333H6.11111C4.08919 18.3333 2.44444 16.6886 2.44444 14.6667V6.11111C2.44444 4.08919 4.08919 2.44444 6.11111 2.44444H15.8889C17.9108 2.44444 19.5556 4.08919 19.5556 6.11111V14.6667Z" fill="#292929"/>
<path id="iconFill_2" fill-rule="evenodd" clip-rule="evenodd" d="M15.2453 9.25751L9.42287 5.70497C8.5127 5.14951 7.33203 5.78838 7.33203 6.83619V13.9416C7.33203 14.9894 8.5127 15.6282 9.42287 15.0728L15.2453 11.5202C16.1017 10.9976 16.1017 9.78014 15.2453 9.25751Z" fill="#292929"/>
</g>
</svg>
