<svg width="22" height="22" viewBox="0 0 22 22" fill="none" xmlns="http://www.w3.org/2000/svg">
<g id="Frame">
<path id="iconFill" d="M15.2786 8.55534C16.2912 8.55534 17.112 7.73453 17.112 6.72201C17.112 5.70948 16.2912 4.88867 15.2786 4.88867C14.2661 4.88867 13.4453 5.70948 13.4453 6.72201C13.4453 7.73453 14.2661 8.55534 15.2786 8.55534Z" fill="#292929"/>
<path id="iconFill_2" fill-rule="evenodd" clip-rule="evenodd" d="M15.8889 1.22266H6.11111C2.74164 1.22266 0 3.9643 0 7.33377V14.6671C0 18.0366 2.74164 20.7782 6.11111 20.7782H15.8889C19.2584 20.7782 22 18.0366 22 14.6671V7.33377C22 3.9643 19.2584 1.22266 15.8889 1.22266ZM15.8889 18.3338H6.11111C4.08919 18.3338 2.44444 16.689 2.44444 14.6671C2.44444 14.6523 6.12544 11.0899 6.12544 11.0899C6.2448 10.9706 6.43815 10.9718 6.55512 11.0888L11.0931 15.6279C11.5502 16.0863 12.2891 16.1065 12.7725 15.6745L15.1632 13.532C15.3136 13.3852 15.4055 13.3506 15.6323 13.5714L18.979 16.623C18.328 17.6477 17.1902 18.3338 15.8889 18.3338ZM19.5556 13.8408L17.32 11.8037C16.2505 10.7331 14.5055 10.7307 13.4838 11.7571L12.0038 13.082L8.28223 9.35925C7.21159 8.29218 5.46897 8.2886 4.41265 9.34612L2.44444 11.2507V7.33376C2.44444 5.31183 4.08919 3.66709 6.11111 3.66709H15.8889C17.9108 3.66709 19.5556 5.31183 19.5556 7.33376V13.8408Z" fill="#292929"/>
</g>
</svg>
