<svg xmlns="http://www.w3.org/2000/svg" id="ICONS" width="44" height="44" viewBox="0 0 44 44">
  <defs>
    <style>
      .fill {
        fill: #222;
      }
    </style>
  </defs>
  <rect id="Canvas" fill="#ff13dc" opacity="0" width="44" height="44" /><path class="fill" d="m34,28.5c-.13037,0-.26025-.02051-.38037-.08008-.11963-.0498-.22998-.12012-.32959-.20996-.09033-.10059-.16016-.2002-.21045-.33008-.0498-.12012-.07959-.25-.07959-.37988,0-.25977.10986-.52051.29004-.70996.37988-.37012,1.03955-.37012,1.41992,0,.17969.18945.29004.4502.29004.70996,0,.12988-.02002.25977-.08008.37988-.05029.12988-.12012.22949-.20996.33008-.18994.17969-.4502.29004-.70996.29004Z" />
  <path class="fill" d="m33,38.7002c0-.55078.44971-1,1-1h0c.5498,0,1,.44922,1,1h0c0,.5498-.4502,1-1,1h0c-.55029,0-1-.4502-1-1Zm0-2.80078c0-.5498.44971-1,1-1h0c.5498,0,1,.4502,1,1h0c0,.55078-.4502,1-1,1h0c-.55029,0-1-.44922-1-1Zm0-2.7998c0-.5498.44971-1,1-1h0c.5498,0,1,.4502,1,1h0c0,.5498-.4502,1-1,1h0c-.55029,0-1-.4502-1-1Zm0-2.7998c0-.5498.44971-1,1-1h0c.5498,0,1,.4502,1,1h0c0,.5498-.4502,1-1,1h0c-.55029,0-1-.4502-1-1Z" />
  <path class="fill" d="m34,42.5c-.26025,0-.52002-.10059-.70996-.29004-.18018-.19043-.29004-.4502-.29004-.70996,0-.12988.02979-.25977.07959-.37988.05029-.12988.12012-.23047.21045-.33008.37988-.37012,1.03955-.37012,1.41992,0,.08984.09961.15967.2002.20996.33008.0498.12012.08008.25.08008.37988s-.03027.25977-.08008.37988c-.05029.12988-.12012.22949-.20996.33008-.18994.18945-.4502.29004-.70996.29004Z" />
  <path class="fill" d="m27.1001,41.00293c-.22803,0-.45996-.03711-.68896-.11426-.85352-.28613-1.40527-1.04395-1.40527-1.93164v-7.90527c0-.8916.5542-1.65234,1.41113-1.94043.87598-.29102,1.79639-.01172,2.34766.71875l2.70215,3.57812c.71582.94727.71582,2.21973,0,3.16699l-2.71826,3.59863c-.4043.53516-1.00928.8291-1.64844.8291Zm-.09375-9.96777l-.00049,7.92188c0,.01074.00146.01562.00146.01562l.14551-.00391,2.71826-3.59863c.1709-.22656.1709-.53027,0-.75684l-2.70264-3.57812h-.16211Z" />
  <path class="fill" d="m41.59424,29.11133c-.87061-.29395-1.79053-.01172-2.33936.71387l-2.7207,3.59863c-.71729.94824-.71729,2.2207-.00049,3.16895l2.70557,3.57812c.40674.53711,1.01465.83203,1.65674.83203.229,0,.46289-.03809.69287-.11523.85742-.28711,1.41113-1.04883,1.41113-1.93945v-7.90527c0-.88672-.55176-1.64551-1.40576-1.93164Z" />
  <circle class="fill" cx="25.5" cy="13" r="2.5" />
  <path class="fill" d="m27.44141,4h-15.88281c-4.71924,0-8.55859,3.7832-8.55859,8.43359v12.13281c0,4.65039,3.83936,8.43359,8.55859,8.43359h5.94141c.82861,0,1.5-.67188,1.5-1.5s-.67139-1.5-1.5-1.5h-5.94141c-3.06494,0-5.55859-2.4375-5.55859-5.43359v-.78271l6.54932-6.54932c.27344-.27246.71875-.27246,1.03516.04102l9.04492,8.35547c.2876.26562.65283.39844,1.01807.39844s.73096-.13281,1.01807-.39844l4.89307-4.52637c.15186-.125.36182-.14746.53516-.06348l3.50293,2.6416c.4541.34277,1.06299.39941,1.57227.14551s.83105-.77344.83105-1.34277v-10.05176c0-4.65039-3.83936-8.43359-8.55859-8.43359Zm5.55859,15.47559l-1.17822-.88867c-.03906-.03027-.07959-.05762-.12158-.08301-1.27051-.77441-2.89551-.66113-4.11133.33984l-3.94189,3.64355-7.98389-7.37402c-1.44336-1.44336-3.7915-1.44336-5.23486,0l-4.42822,4.42822v-7.10791c0-2.99609,2.49365-5.43359,5.55859-5.43359h15.88281c3.06494,0,5.55859,2.4375,5.55859,5.43359v7.04199Z" />
</svg>