<svg xmlns="http://www.w3.org/2000/svg" id="ICONS" width="44" height="44" viewBox="0 0 44 44">
  <defs>
    <style>
      .fill {
        fill: #222;
      }
    </style>
  </defs>
  <rect id="Canvas" fill="#ff13dc" opacity="0" width="44" height="44" /><path class="fill" d="m22,5.5c-.40039,0-.78027-.16016-1.06006-.44043-.28027-.28027-.43994-.66016-.43994-1.05957,0-.39062.15967-.78027.43994-1.06055.5498-.55957,1.56006-.55957,2.12012,0,.27979.28027.43994.66992.43994,1.06055,0,.39941-.16016.7793-.43994,1.05957-.28027.28027-.66016.44043-1.06006.44043Z" />
  <path class="fill" d="m20.5,34c0-.83008.66992-1.5,1.5-1.5h0c.82959,0,1.5.66992,1.5,1.5h0c0,.83008-.67041,1.5-1.5,1.5h0c-.83008,0-1.5-.66992-1.5-1.5Zm0-6c0-.83008.66992-1.5,1.5-1.5h0c.82959,0,1.5.66992,1.5,1.5h0c0,.83008-.67041,1.5-1.5,1.5h0c-.83008,0-1.5-.66992-1.5-1.5Zm0-6c0-.83008.66992-1.5,1.5-1.5h0c.82959,0,1.5.66992,1.5,1.5h0c0,.83008-.67041,1.5-1.5,1.5h0c-.83008,0-1.5-.66992-1.5-1.5Zm0-6c0-.83008.66992-1.5,1.5-1.5h0c.82959,0,1.5.66992,1.5,1.5h0c0,.83008-.67041,1.5-1.5,1.5h0c-.83008,0-1.5-.66992-1.5-1.5Zm0-6c0-.83008.66992-1.5,1.5-1.5h0c.82959,0,1.5.66992,1.5,1.5h0c0,.83008-.67041,1.5-1.5,1.5h0c-.83008,0-1.5-.66992-1.5-1.5Z" />
  <path class="fill" d="m22,41.5c-.1001,0-.2002-.00977-.29004-.03027-.1001-.01953-.18994-.0498-.28027-.08008-.08984-.04004-.17969-.08984-.25977-.13965-.08008-.06055-.16016-.12012-.22998-.19043-.07031-.06934-.12988-.13965-.18994-.22949-.05029-.08008-.1001-.16992-.13037-.26074-.04004-.08984-.06982-.17969-.08984-.2793-.02002-.08984-.02979-.19043-.02979-.29004,0-.10059.00977-.2002.02979-.29004.02002-.10059.0498-.19043.08984-.28027.03027-.08984.08008-.17969.13037-.25977.06006-.08008.11963-.16016.18994-.23047.56006-.55957,1.56006-.55957,2.12012,0,.06982.07031.12988.15039.18994.23047.0498.08008.09961.16992.13965.25977.03027.08984.06006.17969.08008.28027.02002.08984.03027.18945.03027.29004,0,.09961-.01025.2002-.03027.29004-.02002.09961-.0498.18945-.08008.2793-.04004.09082-.08984.18066-.13965.26074-.06006.08984-.12012.16016-.18994.22949-.07031.07031-.14014.12988-.23047.19043-.07959.0498-.15967.09961-.25977.13965-.08984.03027-.18018.06055-.27979.08008-.09033.02051-.19043.03027-.29004.03027Z" />
  <path class="fill" d="m6.62256,35.50391c-.45117,0-.91064-.07422-1.36426-.22559-1.67578-.5625-2.7583-2.04688-2.7583-3.78223V12.52344c0-1.74414,1.08838-3.23535,2.77197-3.80078,1.73242-.58008,3.54932-.02637,4.63477,1.41016l6.49414,8.58789c1.47412,1.94824,1.47412,4.56836.00049,6.51855l-6.53125,8.63574c-.7959,1.05273-1.98779,1.62891-3.24756,1.62891Zm.01807-24.00488c-.18506,0-.3374.04199-.41406.06738-.21826.07324-.72656.31348-.72656.95703v18.97266c0,.63086.49854.86621.71289.9375.18555.0625.82129.21875,1.26465-.36816l6.53076-8.63477c.65576-.86816.65576-2.03418,0-2.90039l-6.49414-8.58887c-.26807-.35352-.60449-.44238-.87354-.44238Z" />
  <path class="fill" d="m38.7417,8.72168c-1.72021-.57422-3.53125-.02637-4.61182,1.40332l-6.53125,8.63574c-1.47363,1.9502-1.47363,4.57031.00049,6.51855l6.49414,8.58789c.7998,1.05859,1.99707,1.6377,3.26367,1.6377.45312,0,.91504-.07422,1.37109-.22754,1.68359-.56543,2.77197-2.05664,2.77197-3.80078V12.50391c0-1.73535-1.08252-3.21973-2.7583-3.78223Z" />
</svg>