<svg id="Group_455191" data-name="Group 455191" xmlns="http://www.w3.org/2000/svg" width="63.938" height="54.706" viewBox="0 0 63.938 54.706">
  <g id="Illu_EmptyState_NoAssets">
    <g id="Group_295632" data-name="Group 295632">
      <path id="Path_130776" data-name="Path 130776" d="M-475.419,84.769c.1-.014.2-35.213.3-35.223a6.26,6.26,0,0,1,6.811,5.309l3.886,26.174a6.259,6.259,0,0,1-5.272,7.11l-30.993,4.6a6.26,6.26,0,0,1-7.1-5.232c0-.013,0-.682-.006-.7" transform="translate(528.291 -38.105)" fill="#dedef9"/>
      <path id="Path_130777" data-name="Path 130777" d="M-486.99,85.086h-31.333a7.251,7.251,0,0,1-7.243-7.243V61.278a.984.984,0,0,1,.984-.984.984.984,0,0,1,.984.984V77.843a5.281,5.281,0,0,0,5.276,5.275h31.333a5.281,5.281,0,0,0,5.275-5.275V51.382a5.282,5.282,0,0,0-5.275-5.276h-22.459a.984.984,0,0,1-.984-.984.984.984,0,0,1,.984-.984h22.459a7.251,7.251,0,0,1,7.243,7.243V77.843A7.251,7.251,0,0,1-486.99,85.086Z" transform="translate(534.405 -36.255)" fill="#242424"/>
      <path id="Path_130778" data-name="Path 130778" d="M-481.31,87.211a.98.98,0,0,1-.7-.289l-7.4-7.4a2.105,2.105,0,0,0-2.906,0l-4.668,4.667a.983.983,0,0,1-1.391,0l-11.483-11.484a2.059,2.059,0,0,0-2.907,0l-9.271,9.272a.983.983,0,0,1-1.391,0,.983.983,0,0,1,0-1.391l9.271-9.272a4.028,4.028,0,0,1,5.69,0l10.787,10.788,3.972-3.971a3.994,3.994,0,0,1,2.844-1.179,3.994,3.994,0,0,1,2.845,1.179l7.4,7.4a.983.983,0,0,1,0,1.391A.981.981,0,0,1-481.31,87.211Z" transform="translate(533.766 -45.201)" fill="#242424"/>
      <path id="Path_130779" data-name="Path 130779" d="M-476.358,64.558A4.644,4.644,0,0,1-481,59.92a4.644,4.644,0,0,1,4.639-4.638,4.643,4.643,0,0,1,4.638,4.638A4.643,4.643,0,0,1-476.358,64.558Zm0-7.308a2.674,2.674,0,0,0-2.671,2.67,2.674,2.674,0,0,0,2.671,2.67,2.673,2.673,0,0,0,2.67-2.67A2.673,2.673,0,0,0-476.358,57.25Z" transform="translate(519.07 -40.089)" fill="#242424"/>
      <circle id="Ellipse_25323" data-name="Ellipse 25323" cx="10.776" cy="10.776" r="10.776" fill="#dedef9"/>
      <g id="Group_292522" data-name="Group 292522" transform="translate(2.636 2.637)">
        <path id="Path_130780" data-name="Path 130780" d="M-519.726,49.017h-14.312a.984.984,0,0,1-.984-.984.984.984,0,0,1,.984-.984h14.312a.984.984,0,0,1,.984.984A.984.984,0,0,1-519.726,49.017Z" transform="translate(535.022 -39.893)" fill="#5c5ce0"/>
        <path id="Path_130781" data-name="Path 130781" d="M-523.128,52.419a.984.984,0,0,1-.984-.984V37.123a.984.984,0,0,1,.984-.984.984.984,0,0,1,.984.984V51.435A.983.983,0,0,1-523.128,52.419Z" transform="translate(531.268 -36.139)" fill="#5c5ce0"/>
      </g>
    </g>
  </g>
</svg>
