<svg width="22" height="22" viewBox="0 0 22 22" fill="none" xmlns="http://www.w3.org/2000/svg">
<g id="Frame" clip-path="url(#clip0_5485_8398)">
<path id="iconFill" fill-rule="evenodd" clip-rule="evenodd" d="M11.2613 22.1576C10.6615 22.1576 10.1381 21.716 10.0528 21.1049C9.95907 20.4365 10.4246 19.8182 11.0936 19.7251C11.4081 19.6809 11.7196 19.6069 12.0186 19.5043C12.6572 19.2847 13.3524 19.6248 13.5714 20.2622C13.7905 20.9008 13.4509 21.5966 12.8123 21.8151C12.3659 21.969 11.9022 22.08 11.4325 22.1457C11.3753 22.154 11.318 22.1576 11.2613 22.1576ZM7.7623 21.753C7.62445 21.753 7.4842 21.7303 7.34694 21.6802C6.93217 21.5298 6.51741 21.3484 6.11338 21.1371C5.51479 20.8256 5.28146 20.0879 5.59298 19.4888C5.9039 18.8908 6.64154 18.6557 7.2413 18.9696C7.54865 19.1283 7.86136 19.2668 8.17766 19.3814C8.81264 19.6105 9.14147 20.3111 8.91172 20.9461C8.73209 21.4438 8.26241 21.753 7.7623 21.753ZM15.2633 19.8349C15.0025 19.8349 14.7394 19.7514 14.5168 19.5807C13.9826 19.1677 13.8842 18.4002 14.2965 17.8655C14.4911 17.6137 14.6671 17.3379 14.8181 17.0479C15.1308 16.4499 15.8697 16.2184 16.4677 16.5299C17.0656 16.8426 17.2978 17.5802 16.9857 18.1794C16.7678 18.596 16.5136 18.9934 16.2313 19.3599C15.9908 19.6714 15.6286 19.8349 15.2633 19.8349ZM3.88497 19.0961C3.55197 19.0961 3.22014 18.9612 2.97905 18.695C2.68842 18.374 2.41091 18.0338 2.14832 17.6745C1.75026 17.1291 1.86961 16.364 2.41508 15.9665C2.96054 15.5679 3.72503 15.6896 4.12249 16.2327C4.33375 16.5227 4.55635 16.7961 4.7897 17.0527C5.24325 17.5528 5.20566 18.3262 4.70555 18.7786C4.4716 18.9911 4.1774 19.0961 3.88497 19.0961ZM16.7732 15.4151C16.7571 15.4151 16.741 15.4151 16.7243 15.4139C16.0499 15.3876 15.5247 14.8195 15.5516 14.1439C15.5558 14.0401 15.5575 13.9351 15.5575 13.8312C15.5575 13.5937 15.5468 13.3526 15.5265 13.1115C15.468 12.4383 15.9663 11.8463 16.6389 11.789C17.3163 11.7114 17.9035 12.2282 17.9614 12.9014C17.9889 13.2141 18.002 13.5245 18.002 13.8312C18.002 13.9685 17.999 14.1045 17.9936 14.2418C17.968 14.8995 17.4261 15.4151 16.7732 15.4151ZM1.51752 15.0224C1.00248 15.0224 0.523862 14.6954 0.355574 14.1797C0.216522 13.7548 0.103136 13.3275 0.0148062 12.9038C-0.123048 12.2426 0.301271 11.5956 0.961906 11.4584C1.62196 11.3104 2.26946 11.7448 2.40793 12.4049C2.47835 12.7427 2.56907 13.0816 2.67947 13.4206C2.88895 14.0628 2.53863 14.7526 1.89708 14.9615C1.77115 15.0033 1.64284 15.0224 1.51752 15.0224ZM1.12603 10.3376C1.058 10.3376 0.988771 10.3317 0.918945 10.3197C0.253531 10.2063 -0.193473 9.57491 -0.0800749 8.9101C-0.00248828 8.45654 0.107316 8.01014 0.24577 7.58523C0.455246 6.94547 1.14633 6.58979 1.78667 6.80344C2.42882 7.01232 2.77913 7.7022 2.56965 8.34434C2.4676 8.65586 2.38704 8.98529 2.32974 9.32069C2.22769 9.91628 1.71087 10.3376 1.12603 10.3376ZM3.30191 6.22336C2.96472 6.22336 2.62993 6.08491 2.38823 5.81396C1.93944 5.30908 1.9848 4.53684 2.48908 4.08805C2.84418 3.77175 3.23149 3.49007 3.6397 3.25016C4.22216 2.90521 4.97114 3.10334 5.31249 3.68462C5.65446 4.26708 5.4593 5.01665 4.87743 5.35801C4.60709 5.51676 4.34987 5.70415 4.11354 5.91422C3.88079 6.1219 3.59076 6.22336 3.30191 6.22336ZM8.84547 4.81852C8.7673 4.81852 8.68733 4.81136 8.60736 4.79585C8.27614 4.73021 7.94611 4.69081 7.62624 4.68007C6.95187 4.6574 6.42311 4.09283 6.4458 3.41846C6.46847 2.7429 7.01812 2.2022 7.7086 2.23801C8.15977 2.25233 8.62108 2.30604 9.08121 2.39675C9.74365 2.52804 10.1739 3.17138 10.0432 3.83262C9.92806 4.41508 9.41719 4.81852 8.84547 4.81852Z" fill="#292929"/>
<path id="iconFill_2" fill-rule="evenodd" clip-rule="evenodd" d="M16.2285 8.55523C15.9438 8.55523 15.6592 8.45259 15.4384 8.2461C15.1841 8.00381 15.0552 7.67198 15.0791 7.32943L15.2307 5.1989L13.6629 3.71648C13.4355 3.49926 13.309 3.21041 13.3048 2.90007C13.3 2.59094 13.4176 2.29851 13.6355 2.07889C13.8724 1.83659 14.2042 1.71365 14.5366 1.73752L16.7292 1.88791L18.2498 0.341046C18.6944 -0.104161 19.4201 -0.114905 19.8713 0.317176C20.119 0.552307 20.2479 0.884128 20.224 1.22668L20.0712 3.35483L21.6402 4.83963C21.864 5.05209 21.9941 5.34928 21.9988 5.65604C22.003 5.96159 21.8819 6.26237 21.6658 6.47961C21.4361 6.71236 21.1031 6.84843 20.7826 6.81978L18.5751 6.667L17.0532 8.21387C16.8289 8.44065 16.5287 8.55523 16.2285 8.55523ZM16.3102 3.69618L16.7274 4.09125C16.9775 4.32996 17.1064 4.66178 17.0825 5.00434L17.0389 5.61425L17.4871 5.1583C17.7294 4.91719 18.0636 4.78472 18.3901 4.81693L18.9934 4.85871L18.5763 4.46364C18.3262 4.22731 18.1949 3.8943 18.2194 3.55055L18.2629 2.94302L17.816 3.39777C17.5695 3.64365 17.2335 3.77375 16.8969 3.73675L16.3102 3.69618ZM19.8349 3.13043L19.8379 3.13281C19.8367 3.13161 19.8355 3.13043 19.8349 3.13043Z" fill="#292929"/>
<path id="iconFill_3" fill-rule="evenodd" clip-rule="evenodd" d="M12.8291 6.53582L12.6917 8.11643L13.822 9.22989C14.1599 9.56277 13.8954 10.1359 13.4229 10.0948L11.8422 9.95733L10.7288 11.0876C10.3959 11.4255 9.82282 11.161 9.86391 10.6885L10.0013 9.10787L8.8711 7.99442C8.53319 7.66153 8.79764 7.08844 9.27019 7.12953L10.8508 7.26697L11.9643 6.13672C12.2971 5.79882 12.8702 6.06327 12.8291 6.53582Z" fill="#292929"/>
</g>
<defs>
<clipPath id="clip0_5485_8398">
<rect width="22" height="22" fill="white"/>
</clipPath>
</defs>
</svg>
