<svg width="21" height="22" viewBox="0 0 21 22" fill="none" xmlns="http://www.w3.org/2000/svg">
<g id="Frame" clip-path="url(#clip0_5485_4538)">
<path id="iconFill" fill-rule="evenodd" clip-rule="evenodd" d="M17.5 9.98373C16.8557 9.98373 16.3333 10.5304 16.3333 11.2059V14.5506L14.777 13.0655C13.8553 12.0987 12.1993 12.1453 11.3722 13.019L10.2391 14.0825L7.22787 10.9278C6.27825 9.9324 4.72991 9.9324 3.79168 10.9135L2.33334 12.3924V11.1105C2.33334 8.85937 4.08164 7.02843 6.2304 7.02843C6.87469 7.02843 7.39706 6.48177 7.39706 5.80621C7.39706 5.13065 6.87469 4.58398 6.2304 4.58398C2.79476 4.58398 0 7.51183 0 11.1105V15.4742C0 19.0728 2.79476 22.0006 6.23038 22.0006H12.4363C15.8719 22.0006 18.6667 19.0728 18.6667 15.4742V11.2059C18.6667 10.5304 18.1443 9.98373 17.5 9.98373ZM12.4363 19.5562H6.23038C4.17697 19.5562 2.50714 17.8786 2.36146 15.7657L5.42717 12.6561C5.46932 12.6132 5.53769 12.6132 5.5787 12.6561L9.36979 16.6284C9.80843 17.0879 10.5125 17.107 10.9728 16.6749L12.9285 14.8404C12.9444 14.8249 13.0356 14.7771 13.0509 14.7604L15.8498 17.4024C15.19 18.6777 13.9159 19.5562 12.4363 19.5562Z" fill="#292929"/>
<path id="iconFill_2" fill-rule="evenodd" clip-rule="evenodd" d="M13.3795 9.53803C13.4042 9.4747 13.4143 9.40997 13.4151 9.34501C13.4151 9.34189 13.4168 9.33915 13.4168 9.33604C13.4167 9.33187 13.4145 9.32826 13.4143 9.32414C13.4126 9.25879 13.3998 9.19555 13.3749 9.13499C13.3736 9.13188 13.3729 9.12866 13.3716 9.12559C13.344 9.06178 13.3083 9.00094 13.256 8.94973L12.2145 7.93279L12.2819 6.9558L12.3155 6.47188C12.3208 6.3967 12.3063 6.32589 12.2837 6.25838C12.2799 6.24731 12.2754 6.23743 12.2709 6.22664C12.2201 6.10227 12.1291 5.99699 12.0001 5.93872C11.9981 5.93781 11.9959 5.9379 11.994 5.93705C11.9678 5.92411 11.9426 5.92281 11.9155 5.91528C11.8723 5.90373 11.8297 5.89701 11.7862 5.89653C11.7819 5.89716 11.7776 5.89384 11.7734 5.89466C11.7688 5.89476 11.7648 5.8973 11.7602 5.89749C11.6988 5.89983 11.6395 5.91235 11.5824 5.93594C11.5758 5.93863 11.5691 5.94025 11.5625 5.94317C11.5024 5.97093 11.4452 6.00641 11.3965 6.05723L10.3912 7.11127L8.94684 7.00809C8.86543 7.00206 8.78933 7.01994 8.71773 7.04779C8.71755 7.04789 8.71793 7.04769 8.71773 7.04779C8.58884 7.09809 8.47946 7.19351 8.42028 7.32876C8.41658 7.33719 8.41653 7.34616 8.41327 7.35469C8.41299 7.35536 8.41294 7.35618 8.4127 7.35686C8.38877 7.42 8.37905 7.48444 8.37891 7.54917C8.37886 7.55703 8.37948 7.56451 8.37981 7.57238C8.38222 7.63111 8.39383 7.68778 8.41502 7.74269C8.41876 7.75276 8.42132 7.76263 8.42563 7.77251C8.45179 7.82986 8.48553 7.88389 8.53187 7.93082C8.5349 7.93399 8.53585 7.93825 8.53898 7.94137L9.57893 8.95984L9.52491 9.73671L9.47686 10.4238C9.47649 10.4298 9.47971 10.4353 9.47951 10.4412C9.4779 10.5054 9.48847 10.5663 9.50737 10.6246C9.51353 10.6437 9.52125 10.6609 9.5295 10.6793C9.55172 10.7286 9.58073 10.7732 9.6167 10.8136C9.62527 10.8234 9.62826 10.8365 9.63759 10.8457C9.64124 10.8493 9.64617 10.8503 9.64986 10.8538C9.69195 10.8926 9.73985 10.9259 9.79448 10.9504C9.79562 10.9509 9.79681 10.9507 9.79795 10.9512C9.86605 10.9812 9.93793 10.9992 10.011 10.9992C10.1509 10.9992 10.2904 10.9447 10.3962 10.835L11.4023 9.78557L12.8508 9.88376C12.8761 9.88669 12.8996 9.87461 12.9247 9.87302C12.9591 9.87005 12.9931 9.8677 13.0261 9.85835C13.0595 9.84843 13.0894 9.83616 13.1205 9.81938C13.1602 9.79953 13.1957 9.77407 13.2296 9.74487C13.2399 9.73567 13.2536 9.73183 13.2633 9.7219C13.2662 9.71884 13.2671 9.71457 13.27 9.71146C13.3117 9.66772 13.3479 9.6181 13.3735 9.56C13.3755 9.55544 13.3754 9.55055 13.3773 9.54595C13.3784 9.54336 13.3785 9.54063 13.3795 9.53803Z" fill="#292929"/>
<path id="iconFill_3" fill-rule="evenodd" clip-rule="evenodd" d="M15.4901 8.55719C15.2184 8.55719 14.9467 8.45455 14.7359 8.24805C14.4932 8.00576 14.3702 7.67394 14.393 7.33138L14.5376 5.20086L13.0412 3.71843C12.8241 3.50121 12.7033 3.21236 12.6994 2.90203C12.6948 2.59289 12.807 2.30046 13.0149 2.08084C13.2411 1.83855 13.5578 1.7156 13.8751 1.73947L15.9681 1.88987L17.4196 0.342999C17.844 -0.102208 18.5367 -0.112951 18.9673 0.319129C19.2038 0.55426 19.3268 0.886081 19.304 1.22863L19.1582 3.35678L20.6558 4.84158C20.8694 5.05404 20.9936 5.35124 20.9982 5.65799C21.0022 5.96355 20.8865 6.26432 20.6803 6.48156C20.461 6.71431 20.1431 6.85038 19.8372 6.82173L17.73 6.66895L16.2774 8.21582C16.0632 8.4426 15.7767 8.55719 15.4901 8.55719ZM15.5682 3.69815L15.9664 4.09322C16.205 4.33193 16.3281 4.66375 16.3053 5.0063L16.2637 5.61622L16.6915 5.16027C16.9228 4.91916 17.2418 4.78668 17.5534 4.8189L18.1294 4.86067L17.7312 4.4656C17.4925 4.22927 17.3672 3.89627 17.3905 3.55252L17.4321 2.94499L17.0054 3.39974C16.7702 3.64561 16.4494 3.77572 16.1282 3.73871L15.5682 3.69815ZM18.9326 3.13239L18.9354 3.13477C18.9343 3.13358 18.9332 3.13239 18.9326 3.13239ZM16.2432 1.91017L16.2626 1.91137C16.2563 1.91017 16.2495 1.91017 16.2432 1.91017Z" fill="#292929"/>
</g>
<defs>
<clipPath id="clip0_5485_4538">
<rect width="21" height="22" fill="white"/>
</clipPath>
</defs>
</svg>
