<svg xmlns="http://www.w3.org/2000/svg" width="14" height="14" viewBox="0 0 14 14" fill="none">
  <g clip-path="url(#clip0_3123_8965)">
    <path fill-rule="evenodd" clip-rule="evenodd" d="M6.22217 5.44436C6.22217 7.16018 7.61746 8.55547 9.33328 8.55547C11.0491 8.55547 12.4444 7.16018 12.4444 5.44436C12.4444 3.72855 11.0491 2.33325 9.33328 2.33325C7.61746 2.33325 6.22217 3.72855 6.22217 5.44436ZM9.33328 3.88881C10.1908 3.88881 10.8888 4.58683 10.8888 5.44436C10.8888 6.30189 10.1908 6.99992 9.33328 6.99992C8.47575 6.99992 7.77772 6.30189 7.77772 5.44436C7.77772 4.58683 8.47575 3.88881 9.33328 3.88881Z" fill="#222222"/>
    <path fill-rule="evenodd" clip-rule="evenodd" d="M9.33335 9.33325C6.52634 9.33325 4.6665 11.6204 4.6665 12.444C4.6665 12.8671 5.00932 13.2221 5.4437 13.2221C5.72853 13.2221 6.00273 13.0649 6.13944 12.793C6.7205 11.6362 7.97376 10.8888 9.33335 10.8888C10.6922 10.8888 11.9454 11.6362 12.5273 12.793C12.6638 13.0646 12.9375 13.2219 13.2223 13.2219C13.6347 13.2219 14.0002 12.8901 14.0002 12.4427C14.0002 11.6478 12.1989 9.33325 9.33335 9.33325Z" fill="#222222"/>
    <path fill-rule="evenodd" clip-rule="evenodd" d="M4.66678 6.22222C5.09668 6.22222 5.44455 5.87435 5.44455 5.44444C5.44455 5.01454 5.09668 4.66667 4.66678 4.66667C3.80924 4.66667 3.11122 3.96864 3.11122 3.11111C3.11122 2.25358 3.80924 1.55556 4.66678 1.55556C5.13086 1.55556 5.56684 1.75988 5.86307 2.11686C6.13803 2.44726 6.62793 2.49284 6.95833 2.21864C7.28873 1.94444 7.33431 1.45378 7.06011 1.12338C6.4669 0.409391 5.59494 0 4.66678 0C2.95096 0 1.55566 1.39529 1.55566 3.11111C1.55566 4.82694 2.95096 6.22222 4.66678 6.22222Z" fill="#222222"/>
    <path fill-rule="evenodd" clip-rule="evenodd" d="M5.50886 8.63397C5.89016 8.63397 6.2872 8.32734 6.2872 7.85454C6.2872 7.03905 5.3457 7 4.66685 7C1.85984 7 0 9.28713 0 10.1107C0 10.5338 0.342813 10.8889 0.777194 10.8889C1.06202 10.8889 1.33622 10.7317 1.47294 10.4597C2.05399 9.30295 3.30725 8.55556 4.66685 8.55556C5.1574 8.55556 5.33882 8.63397 5.50886 8.63397Z" fill="#222222"/>
  </g>
  <defs>
    <clipPath id="clip0_3123_8965">
      <rect width="14" height="14" fill="white"/>
    </clipPath>
  </defs>
</svg>