<!-- SVG Sprite -->
<svg>
  <symbol xmlns="http://www.w3.org/2000/svg" id="color-marquee-desktop">
    <g id="CCX-JDI037-color-marquee-desktop" transform="translate(20458.475 24004)">
      <path id="Path_973374" d="M1087.431,167.62a167.612,167.612,0,0,1-167.62,167.62V167.62Z" transform="translate(-20456.236 -24004)" opacity="0.1"></path>
      <path id="Path_973375" d="M1087.431,167.62h-83.71a83.915,83.915,0,1,0-83.91,83.92v83.7a167.62,167.62,0,1,1,167.62-167.62" transform="translate(-20456.236 -24004)" opacity="0.3"></path>
      <path id="Path_973376" d="M919.811,83.71V251.54a83.915,83.915,0,1,1,0-167.83" transform="translate(-20456.236 -24004)" opacity="0.2"></path>
      <rect id="Rectangle_361900" width="83.92" height="167.625" transform="translate(-19787.975 -24004)" opacity="0.3"></rect>
      <rect id="Rectangle_361901" width="83.92" height="167.625" transform="translate(-19787.975 -23836.377)" opacity="0.1"></rect>
      <path id="Path_973377" d="M503.055,0a167.625,167.625,0,1,0,167.63,167.62A167.625,167.625,0,0,0,503.055,0m0,251.54a83.915,83.915,0,1,1,83.92-83.92,83.915,83.915,0,0,1-83.92,83.92" transform="translate(-20458.66 -24004)" opacity="0.2"></path>
      <path id="Path_973378" d="M586.975,167.62a83.917,83.917,0,0,1-83.92,83.92V83.71a83.915,83.915,0,0,1,83.92,83.91" transform="translate(-20458.66 -24004)" opacity="0.1"></path>
      <path id="Path_973379" d="M335.25,167.62A167.629,167.629,0,0,1,167.62,335.25V251.54a83.917,83.917,0,0,0,83.92-83.92Z" transform="translate(-20458.475 -24004)" opacity="0.3"></path>
      <path id="Path_973380" d="M167.62,167.62V335.25A167.627,167.627,0,0,1,0,167.62Z" transform="translate(-20458.475 -24004)" opacity="0.2"></path>
      <path id="Path_973381" d="M167.62,83.71v83.91H83.71a83.913,83.913,0,0,1,83.91-83.91" transform="translate(-20458.475 -24004)" opacity="0.1"></path>
      <path id="Path_973382" d="M167.62,0V83.71a83.913,83.913,0,0,0-83.91,83.91H0A167.625,167.625,0,0,1,167.62,0" transform="translate(-20458.475 -24004)" opacity="0.3"></path>
      <g id="Group_381587" transform="translate(9.188 -1.693)">
        <path id="Path_973372" d="M1342.547,169.314h-167.83a83.915,83.915,0,0,1,167.83,0" transform="translate(-20469 -24004)" opacity="0.2"></path>
        <path id="Path_973373" d="M1426.257,169.314h-83.71a83.915,83.915,0,0,0-167.83,0h-83.71a167.625,167.625,0,0,1,335.25,0" transform="translate(-20469 -24004)" opacity="0.3"></path>
      </g>
      <rect id="Rectangle_361902" width="83.92" height="167.625" transform="translate(-19368.805 -23836.379)" opacity="0.2"></rect>
      <rect id="Rectangle_361903" width="83.915" height="167.625" transform="translate(-19284.885 -23836.379)" opacity="0.1"></rect>
    </g>
  </symbol>
  <symbol xmlns="http://www.w3.org/2000/svg" id="color-marquee-localisation-desktop">
    <g id="CCX-JDI037-color-marquee-localisation-desktop" transform="translate(17613.721 24005.098)">
      <rect id="Rectangle_361901" width="83.92" height="167.625" transform="translate(-17194.574 -23837.375)" opacity="0.1"></rect>
      <path id="Path_973391" d="M167.619,335.251V167.62A167.627,167.627,0,0,0,0,335.251Z" transform="translate(-17446 -24171.619)" opacity="0.2"></path>
      <path id="Path_973392" d="M167.619,167.62V335.251A167.627,167.627,0,0,1,0,167.62Z" transform="translate(-17613.721 -24003.988)" opacity="0.3"></path>
      <path id="Path_973386" d="M167.62,83.71v83.91H83.71a83.913,83.913,0,0,1,83.91-83.91" transform="translate(-17278.387 -24005.098)" opacity="0.2"></path>
      <path id="Path_973388" d="M167.618,167.618V83.71H83.71a83.911,83.911,0,0,0,83.908,83.908" transform="translate(-17362.295 -23837.379)" opacity="0.2"></path>
      <path id="Path_973387" d="M167.62,0V83.71a83.913,83.913,0,0,0-83.91,83.91H0A167.625,167.625,0,0,1,167.62,0" transform="translate(-17278.387 -24005.098)" opacity="0.3"></path>
      <path id="Path_973383" d="M1087.431,167.62a167.612,167.612,0,0,1-167.62,167.62V167.62Z" transform="translate(-17862.734 -24005)" opacity="0.1"></path>
      <path id="Path_973384" d="M1087.431,167.62h-83.71a83.915,83.915,0,1,0-83.91,83.92v83.7a167.62,167.62,0,1,1,167.62-167.62" transform="translate(-17862.734 -24005)" opacity="0.3"></path>
      <path id="Path_973385" d="M919.811,83.71V251.54a83.915,83.915,0,1,1,0-167.83" transform="translate(-17862.734 -24005)" opacity="0.2"></path>
      <circle id="Ellipse_26512" cx="83.915" cy="83.915" r="83.915" transform="translate(-17446 -23836.83)" opacity="0.2"></circle>
    </g>
  </symbol>
  <symbol xmlns="http://www.w3.org/2000/svg" id="color-marquee-localisation-mobile">
    <g id="CCX-JDI037-color-marquee-localisation-mobile" transform="translate(17613.721 24005.098)">
      <rect id="Rectangle_361901" width="49.899" height="99.67" transform="translate(-17364.496 -23905.369)" opacity="0.1"></rect>
      <path id="Path_973391" d="M99.667,267.294V167.62A99.671,99.671,0,0,0,0,267.294Z" transform="translate(-17513.994 -24172.064)" opacity="0.2"></path>
      <path id="Path_973392" d="M99.667,167.62v99.674A99.671,99.671,0,0,1,0,167.62Z" transform="translate(-17613.721 -24072.391)" opacity="0.3"></path>
      <path id="Path_973386" d="M133.6,83.71V133.6H83.71A49.9,49.9,0,0,1,133.6,83.71" transform="translate(-17448.266 -24039.033)" opacity="0.2"></path>
      <path id="Path_973388" d="M133.6,133.6V83.71H83.71A49.894,49.894,0,0,0,133.6,133.6" transform="translate(-17498.158 -23939.307)" opacity="0.2"></path>
      <path id="Path_973387" d="M99.667,0V49.774A49.9,49.9,0,0,0,49.774,99.667H0A99.67,99.67,0,0,1,99.667,0" transform="translate(-17414.33 -24005.098)" opacity="0.3"></path>
      <path id="Path_973383" d="M1019.478,167.62a99.663,99.663,0,0,1-99.667,99.667V167.62Z" transform="translate(-18134.674 -24072.992)" opacity="0.1"></path>
      <path id="Path_973384" d="M951.521,99.667H901.747a49.9,49.9,0,1,0-49.893,49.9v49.768a99.667,99.667,0,1,1,99.667-99.667" transform="translate(-18066.717 -24005.039)" opacity="0.3"></path>
      <path id="Path_973385" d="M885.79,83.71V183.5a49.9,49.9,0,1,1,0-99.792" transform="translate(-18100.652 -24038.975)" opacity="0.2"></path>
      <circle id="Ellipse_26512" cx="49.896" cy="49.896" r="49.896" transform="translate(-17513.994 -23905.045)" opacity="0.2"></circle>
    </g>
  </symbol>
  <symbol xmlns="http://www.w3.org/2000/svg" id="color-marquee-mobile">
    <g id="CCX-JDI037-color-marquee-mobile" transform="translate(20458.475 24004)">
      <path id="Path_973374" d="M1019.812,167.62a100,100,0,0,1-100,100v-100Z" transform="translate(-20828.221 -24071.627)" opacity="0.1"></path>
      <path id="Path_973375" d="M952.189,100H902.248a50.063,50.063,0,1,0-50.06,50.064v49.933a100,100,0,1,1,100-100" transform="translate(-20760.598 -24004)" opacity="0.3"></path>
      <path id="Path_973376" d="M885.957,83.71V183.828a50.059,50.059,0,1,1,0-100.118" transform="translate(-20794.365 -24037.77)" opacity="0.2"></path>
      <rect id="Rectangle_361900" width="50.066" height="100.004" transform="translate(-20058.477 -24004)" opacity="0.3"></rect>
      <rect id="Rectangle_361901" width="50.066" height="100.004" transform="translate(-20058.477 -23904.006)" opacity="0.1"></rect>
      <path id="Path_973377" d="M435.436,0A100,100,0,1,0,535.443,100,100,100,0,0,0,435.436,0m0,150.061A50.061,50.061,0,1,1,485.5,100a50.062,50.062,0,0,1-50.066,50.064" transform="translate(-20593.912 -24004)" opacity="0.2"></path>
      <path id="Path_973378" d="M553.121,133.766a50.062,50.062,0,0,1-50.066,50.062V83.71a50.061,50.061,0,0,1,50.066,50.056" transform="translate(-20661.533 -24037.77)" opacity="0.1"></path>
      <path id="Path_973379" d="M267.627,167.62A100.007,100.007,0,0,1,167.62,267.627V217.686a50.064,50.064,0,0,0,50.066-50.066Z" transform="translate(-20526.094 -24071.627)" opacity="0.3"></path>
      <path id="Path_973380" d="M100,167.62V267.627A100.005,100.005,0,0,1,0,167.62Z" transform="translate(-20458.475 -24071.627)" opacity="0.2"></path>
      <path id="Path_973381" d="M133.77,83.71v50.06H83.71a50.062,50.062,0,0,1,50.06-50.06" transform="translate(-20492.244 -24037.771)" opacity="0.1"></path>
      <path id="Path_973382" d="M100,0V49.941A50.062,50.062,0,0,0,49.941,100H0A100,100,0,0,1,100,0" transform="translate(-20458.475 -24004)" opacity="0.3"></path>
      <g id="Group_381587" transform="translate(-19808.418 -24004)">
        <path id="Path_973372" d="M1274.843,135.464H1174.717a50.063,50.063,0,0,1,100.126,0" transform="translate(-1124.776 -35.463)" opacity="0.2"></path>
        <path id="Path_973373" d="M1291.015,101.695h-49.941a50.063,50.063,0,0,0-100.126,0h-49.941a100,100,0,0,1,200.008,0" transform="translate(-1091.007 -1.694)" opacity="0.3"></path>
      </g>
      <rect id="Rectangle_361902" width="50.066" height="100.004" transform="translate(-19808.412 -23904.006)" opacity="0.2"></rect>
      <rect id="Rectangle_361903" width="50.063" height="100.004" transform="translate(-19758.352 -23904.006)" opacity="0.1"></rect>
    </g>
  </symbol>
</svg>