<svg width="0" height="0" class="hidden">
  <symbol xmlns="http://www.w3.org/2000/svg" viewBox="0 0 233.568 321.178" id="CCX-JDI037-color-meaning-desktop">
    <g id="hands-and-heart" transform="translate(-901 -635.998)">
      <g id="Group_381610">
        <g id="Group_381615">
          <g id="Group_381613" transform="translate(901.001 636.001)">
            <g id="Group_381617" opacity="0.4">
              <rect id="Rectangle_361734" width="107.5" height="16.839" rx="8.419" transform="translate(63 304.338)"></rect>
              <rect id="Rectangle_361733" width="215" height="16.839" rx="8.419" transform="translate(9 279.5)"></rect>
            </g>
            <g id="Group_381612">
              <path id="Path_973302" d="M67.576,316.328c.342-2.051.775-4.789,1.215-7.857h30.1v7.869ZM55.141,265.851c-11.448-5.755-27.13-13.64-35.954-27.434-1.708-2.672-3.2-4.884-4.52-6.836-4.051-6-6.188-9.173-7.247-15.069.237.263.48.53.729.8,4.621,4.928,10.654,9.48,14.644,12.493,1.778,1.342,3.458,2.608,4.034,3.187l.046.046s0,0,0,0c.318.347.844.971,1.452,1.7,5.567,6.631,20.346,24.254,37.6,22.336a3.254,3.254,0,1,0-.717-6.469c-13.771,1.541-26.937-14.149-31.894-20.052-.668-.8-1.2-1.432-1.62-1.885-.029-.035-.061-.064-.089-.1a.677.677,0,0,0-.055-.058.117.117,0,0,0-.011-.017,49.991,49.991,0,0,0-4.821-3.886c-4.043-3.051-9.581-7.229-13.82-11.752,0-.006-.008-.008-.015-.015-2.863-3.062-4.644-5.772-5.3-8.071v-.006a6.541,6.541,0,0,1-.277-1.695,4.491,4.491,0,0,1,.648-2.435,3.3,3.3,0,0,1,2.166-1.747c1.209-.289,4.075-.223,9.67,3.354.023.017.049.032.073.046,0,0,.006.006.008.006,7.634,4.9,15.24,13.074,16.689,14.667,6.449,7.059,13.261,8.594,13.548,8.655a3.226,3.226,0,0,0,.686.07,78.023,78.023,0,0,1,12.073.893c35.176,5.544,36.006,35.262,36.023,36.486v38.9H69.653c2.628-21.662.347-25.439-.55-26.914-1.928-3.146-6.714-5.552-13.961-9.2M7.332,163.711c.02-.089.046-.177.069-.263s.043-.153.069-.228.061-.168.093-.252.055-.148.087-.217.078-.159.115-.24.067-.136.1-.205.089-.153.136-.229.075-.127.119-.188.107-.148.159-.217.087-.119.13-.176.119-.136.179-.2.1-.11.145-.162.13-.127.2-.188.1-.1.156-.144c.069-.061.144-.119.217-.173.055-.041.107-.087.164-.128.078-.055.157-.1.237-.156.058-.035.113-.076.171-.11.084-.049.171-.092.254-.136.061-.032.119-.064.177-.092.089-.044.182-.081.275-.119.061-.026.121-.055.182-.076.1-.037.193-.063.292-.1.061-.021.121-.044.182-.061.1-.029.214-.049.321-.072.058-.012.113-.026.173-.037.121-.021.243-.035.367-.049.049-.006.1-.015.141-.017.174-.017.347-.023.523-.023a5.6,5.6,0,0,1,5.61,5.613v28.975l-.18-.075c-.075-.032-.15-.061-.225-.1-.252-.11-.5-.214-.749-.312-.081-.032-.159-.061-.24-.089q-.36-.139-.711-.261c-.084-.029-.168-.055-.252-.081-.228-.075-.454-.147-.677-.214-.083-.026-.171-.046-.254-.069-.22-.061-.436-.122-.653-.174-.087-.02-.171-.037-.254-.055-.211-.046-.422-.092-.634-.13l-.248-.041c-.206-.035-.414-.067-.616-.089-.081-.012-.162-.017-.243-.026-.2-.02-.4-.04-.6-.052l-.237-.006c-.156-.006-.309-.015-.462-.015l-.089,0c-.359,0-.709.023-1.056.058-.1.011-.208.026-.309.037-.324.043-.642.1-.957.165-.035.008-.067.008-.1.017a9.646,9.646,0,0,0-2.068.746c.093-6.267.286-13.864.521-23.039l.156-6.073c.012-.075.026-.15.041-.225s.035-.159.055-.237m56.552,56.433a84.014,84.014,0,0,0-12.663-.971,22.884,22.884,0,0,1-9.847-6.605,106.839,106.839,0,0,0-16.483-14.76V165.067c0-.419-.021-.833-.061-1.238a12.12,12.12,0,0,0-23.568-2.556,11.9,11.9,0,0,0-.44,1.859v0c-.017.1-.04.2-.055.306a3.255,3.255,0,0,0-.026.333v.011L.58,170.133C.2,185.009-.074,195.758.019,203.481c.208,18.32,2.672,21.972,9.259,31.738,1.3,1.92,2.767,4.1,4.433,6.7,9.786,15.3,27.073,24,38.513,29.748,4.864,2.447,10.373,5.217,11.327,6.767.229.379,2.149,4.312-.815,26.344-1.035,7.758-2.209,14.149-2.221,14.21a3.254,3.254,0,0,0,3.2,3.846l38.438.015a3.258,3.258,0,0,0,3.256-3.256V263.03a45.274,45.274,0,0,0-5.341-19.083c-4.809-9.014-14.988-20.463-36.185-23.8" transform="translate(0 -67.412)"></path>
              <path id="Path_973303" d="M324.622,192.32a16.9,16.9,0,0,0-8.415,1.776V165.067a5.618,5.618,0,0,1,5.61-5.613,5.526,5.526,0,0,1,5.524,4.71l.147,5.68c.244,9.519.44,17.18.533,23.438a9.844,9.844,0,0,0-3.4-.963m-55.971,64.744c17.236,1.911,32.032-15.7,37.6-22.333.61-.723,1.133-1.35,1.451-1.694.478-.517,2.326-1.911,4.113-3.259,4.419-3.337,10.6-8,15.28-13.213-1.1,6.006-3.283,9.23-7.181,15.011-1.316,1.955-2.814,4.167-4.52,6.839-8.823,13.794-24.5,21.677-35.951,27.435-7.243,3.643-12.033,6.049-13.97,9.21-2.556,4.216-1.894,16.073-.593,26.9H235.688V263.093a39.258,39.258,0,0,1,6.049-18.6c7.944-12.481,22.093-18.811,42.053-18.811a3.336,3.336,0,0,0,.682-.073c.289-.06,7.1-1.593,13.546-8.652a93.257,93.257,0,0,1,16.616-14.621c.077-.049.155-.1.228-.15,3.294-2.105,6.293-3.415,8.56-3.415.185,0,.368.012.544.029a3.269,3.269,0,0,1,2.66,1.83c4.032,6.77-11.919,18.811-18.733,23.953a43.606,43.606,0,0,0-4.973,4.039c-.422.457-.964,1.105-1.651,1.923-4.954,5.9-18.1,21.582-31.894,20.049a3.256,3.256,0,0,0-.724,6.472m-32.963,59.273v-7.865h30.06c.425,2.929.861,5.621,1.243,7.854ZM334,169.68l-.153-5.893c0-.052-.015-.1-.017-.15s0-.13-.01-.194a12.115,12.115,0,0,0-24.122,1.625v32.755a103.914,103.914,0,0,0-16.483,14.739,22.939,22.939,0,0,1-9.847,6.605c-27.527.121-40.814,11.922-47.119,21.827a45.573,45.573,0,0,0-7.064,22.067v56.532a3.252,3.252,0,0,0,3.253,3.256h0l38.438-.015a3.255,3.255,0,0,0,3.2-3.843c-.833-4.525-1.588-9.306-2.207-13.935a3.531,3.531,0,0,0-.077-.59c-1.625-12.351-2.259-23.542-.761-26.011.96-1.568,6.472-4.341,11.339-6.787,11.438-5.752,28.724-14.445,38.508-29.742,1.665-2.605,3.137-4.783,4.433-6.706,9.985-14.8,9.958-15.752,8.686-65.539" transform="translate(-101.014 -67.412)"></path>
              <path id="Path_973304" d="M145.6,131.443C134.127,123.467,71.866,78.436,71.866,40.7c0-23.49,17.773-34.189,34.288-34.189a41.574,41.574,0,0,1,36.575,22.1,3.257,3.257,0,0,0,5.737,0,41.563,41.563,0,0,1,36.567-22.1c16.509,0,34.279,10.7,34.279,34.189,0,37.732-62.245,82.763-73.714,90.739M225.819,40.7c0-12.42-4.346-22.914-12.571-30.347A41.828,41.828,0,0,0,185.028,0,47.932,47.932,0,0,0,145.6,20.837,47.965,47.965,0,0,0,106.152,0,41.815,41.815,0,0,0,77.928,10.354C69.7,17.787,65.351,28.281,65.351,40.7c0,44.832,75.242,95.273,78.443,97.4a3.23,3.23,0,0,0,1.8.544,3.264,3.264,0,0,0,1.8-.544c3.2-2.122,78.422-52.561,78.422-97.4" transform="translate(-28.803)"></path>
            </g>
          </g>
        </g>
      </g>
    </g>
  </symbol>
</svg>
<!-- SVG References -->
<svg class="icon">
  <use xlink:href="#CCX-JDI037-color-meaning-desktop"></use>
</svg>