<svg xmlns="http://www.w3.org/2000/svg" id="ICONS" width="44" height="44" viewBox="0 0 44 44">
  <defs>
    <style>
      .fill {
        fill: #222;
      }
    </style>
  </defs>
  <rect id="Canvas" fill="#ff13dc" opacity="0" width="44" height="44" /><circle class="fill" cx="25.5" cy="13" r="2.5" />
  <path class="fill" d="m27.44141,4h-15.88281c-4.71924,0-8.55859,3.7832-8.55859,8.43359v12.13281c0,4.65039,3.83936,8.43359,8.55859,8.43359h1.94141c.82861,0,1.5-.67188,1.5-1.5s-.67139-1.5-1.5-1.5h-1.94141c-3.06494,0-5.55859-2.4375-5.55859-5.43359v-1.78271l6.54932-6.54932c.27441-.27148.72021-.27344,1.04346.04883l4.89746,4.45703c.6123.55762,1.56104.51172,2.11914-.09961.55762-.61328.5127-1.56152-.09961-2.11914l-4.84668-4.4082c-1.44385-1.44434-3.79199-1.44238-5.23486,0l-4.42822,4.42822v-6.10791c0-2.99609,2.49365-5.43359,5.55859-5.43359h15.88281c3.06494,0,5.55859,2.4375,5.55859,5.43359v1.56641c0,.82812.67139,1.5,1.5,1.5s1.5-.67188,1.5-1.5v-1.56641c0-4.65039-3.83936-8.43359-8.55859-8.43359Z" />
  <path class="fill" d="m39.83185,27.37915c.00378-.10767.0163-.21313.0163-.32153,0-4.99414-4.06299-9.05762-9.05713-9.05762s-9.05713,4.06348-9.05713,9.05762c0,.18652.01685.36865.02802.55249-2.27411,1.64697-3.7619,4.31616-3.7619,7.33228,0,4.99414,4.06299,9.05762,9.05713,9.05762,1.41333,0,2.74677-.33472,3.93994-.91455,1.19464.57983,2.53021.91455,3.9458.91455,4.99414,0,9.05713-4.05078,9.05713-9.03027,0-3.18359-1.66504-5.98193-4.16815-7.59058Zm-8.83557,12.15527c-1.05792-.90796-1.79437-2.17188-2.02618-3.60425.58838.12061,1.19739.18408,1.82092.18408.77875,0,1.53076-.10938,2.25238-.29492-.21588,1.47827-.96356,2.78418-2.04712,3.71509Zm-5.8623-10.33057c.6051-.20337,1.25043-.31812,1.92316-.31812.38098,0,.75244.03955,1.11414.10718-.64105.72144-1.17426,1.53955-1.55957,2.43799-.64642-.61792-1.15387-1.37671-1.47772-2.22705Zm5.89178,1.17383c.7464.64966,1.3302,1.47778,1.68842,2.41821-.6051.20361-1.25043.31836-1.92316.31836-.53064,0-1.04279-.07568-1.53363-.20435.36328-.99048.9762-1.86108,1.76837-2.53223Zm2.88019-1.34424c.33765-.05835.6828-.09497,1.03693-.09497.52875,0,1.03912.07471,1.52838.20215-.27332.74243-.68652,1.41553-1.2099,1.9895-.35577-.76245-.81146-1.46704-1.35541-2.09668Zm-3.11493-8.03345c3.02124,0,5.5257,2.22632,5.97742,5.12305-.58984-.12109-1.20038-.18457-1.82556-.18457-1.39386,0-2.70996.32471-3.89069.88818-1.20697-.59668-2.56006-.94092-3.99506-.94092-.77875,0-1.53076.10938-2.25238.29492.42712-2.9248,2.94501-5.18066,5.98627-5.18066Zm-9.79102,13.94238c0-1.56885.60468-2.99561,1.58679-4.07251.72699,1.55786,1.88007,2.87476,3.31421,3.79932-.00336.10059-.01526.19897-.01526.30054,0,2.27002.85077,4.34131,2.24286,5.92969-.34845.0625-.70532.10059-1.07147.10059-3.33984,0-6.05713-2.71777-6.05713-6.05762Zm13.94287,6.05762c-.36896,0-.72852-.03809-1.07947-.10156,1.39673-1.59424,2.25085-3.67505,2.25085-5.95605,0-.18652-.01685-.36865-.02802-.55249,1.323-.95825,2.38214-2.25806,3.03314-3.77734,1.15601,1.09912,1.88062,2.64404,1.88062,4.35718,0,3.3252-2.71729,6.03027-6.05713,6.03027Z" />
</svg>