<svg width="44" height="44" viewBox="0 0 44 44" fill="none" xmlns="http://www.w3.org/2000/svg">
<path fill-rule="evenodd" clip-rule="evenodd" d="M38.7031 16.3857C38.0185 15.8535 37.6455 14.9453 37.7432 14.0986C38.0596 12.6123 37.9248 11.083 37.3525 9.67577C36.7949 8.30663 35.6914 7.20214 34.3242 6.64452C32.915 6.0703 31.3828 5.93554 29.9346 6.24804C29.0781 6.34667 28.1973 6.00097 27.6113 5.29199C26.7627 4.00683 25.5635 3.0166 24.1406 2.42578C22.7793 1.85937 21.2197 1.86035 19.8604 2.4248C18.4141 3.02539 17.2002 4.0371 16.4014 5.27734C15.8711 5.97461 14.9512 6.35351 14.0977 6.25586C12.6113 5.94238 11.0859 6.07617 9.68263 6.64648C8.30861 7.20312 7.20216 8.30957 6.64552 9.68164C6.07521 11.0869 5.94044 12.6143 6.24708 14.0635C6.35157 14.9199 6.00294 15.8018 5.29103 16.3887C4.00685 17.2373 3.01662 18.4365 2.4258 19.8594C1.86037 21.2197 1.86037 22.7803 2.42482 24.1397C3.02541 25.5859 4.03712 26.7998 5.27736 27.5986C5.97463 28.1289 6.35548 29.0459 6.25685 29.9014C5.94044 31.3877 6.07619 32.916 6.64747 34.3232C7.20411 35.6914 8.3086 36.7969 9.67872 37.3555C11.085 37.9268 12.6162 38.0615 14.0635 37.752C14.9209 37.6484 15.8018 37.9971 16.3887 38.708C17.2373 39.9932 18.4356 40.9834 19.8594 41.5742C20.5401 41.8574 21.2696 41.999 22 41.999C22.7305 41.999 23.46 41.8574 24.1397 41.5752C25.586 40.9746 26.7998 39.9629 27.5986 38.7236C28.1152 38.041 29.0186 37.6601 29.9746 37.7578C31.4365 38.0566 32.9375 37.918 34.3232 37.3545C35.6914 36.7969 36.7959 35.6914 37.3525 34.3223C37.9238 32.916 38.0596 31.3877 37.7529 29.9365C37.6485 29.0801 37.9971 28.1982 38.709 27.6113C39.9932 26.7627 40.9834 25.5635 41.5742 24.1406C42.1396 22.7803 42.1396 21.2197 41.5752 19.8603C40.9824 18.4346 39.9902 17.2344 38.7031 16.3857ZM38.8037 22.9893C38.4375 23.8721 37.8203 24.6123 37.0185 25.1318C36.9873 25.1514 36.9394 25.1865 36.9092 25.21C35.3545 26.3896 34.5361 28.3398 34.7744 30.2978C34.7803 30.3418 34.7998 30.4824 34.8096 30.5264C35 31.4219 34.918 32.3447 34.5732 33.1924C34.3193 33.8174 33.8154 34.3223 33.1924 34.5762C32.3437 34.9209 31.4248 35.002 30.5293 34.8086C30.4902 34.8008 30.4502 34.7939 30.4092 34.7881L30.2715 34.7715C28.3681 34.5537 26.4677 35.3311 25.2402 36.875C25.2021 36.9209 25.164 36.9688 25.1318 37.0186C24.6123 37.8203 23.872 38.4375 22.9883 38.8047C22.3613 39.0645 21.6396 39.0654 21.0107 38.8037C20.1279 38.4375 19.3877 37.8203 18.8681 37.0185C18.8486 36.9873 18.8135 36.9394 18.791 36.9101C17.747 35.5332 16.0967 34.7334 14.374 34.7334C14.1533 34.7334 13.9316 34.7461 13.7099 34.7734C13.708 34.7734 13.6074 34.7861 13.6054 34.7861C13.5605 34.792 13.5146 34.7998 13.4707 34.8086C12.5761 35.0029 11.6562 34.9209 10.8096 34.5771C10.1846 34.3223 9.68064 33.8174 9.42674 33.1933C9.08201 32.3447 8.99998 31.4219 9.20701 30.4385C9.20896 30.4238 9.22361 30.3125 9.22556 30.2978C9.45896 28.374 8.6738 26.458 7.12595 25.2383C7.08005 25.2002 7.03122 25.1641 6.98142 25.1318C6.17966 24.6123 5.56247 23.8721 5.19529 22.9883C4.93455 22.3603 4.93455 21.6396 5.19627 21.0107C5.56248 20.1279 6.17967 19.3877 6.98143 18.8682C7.01268 18.8486 7.06053 18.8135 7.09081 18.79C8.6455 17.6103 9.46386 15.6602 9.22558 13.7021C9.21972 13.6582 9.20019 13.5176 9.19042 13.4736C8.99999 12.5781 9.08104 11.6572 9.4248 10.8096C9.67871 10.1846 10.1836 9.68065 10.8105 9.42577C11.6562 9.08202 12.5762 9.00097 13.5615 9.20702C13.5752 9.20897 13.6855 9.22362 13.7002 9.22557C15.6152 9.4619 17.54 8.67674 18.7617 7.12596C18.7998 7.08006 18.8359 7.03123 18.8682 6.98143C19.3877 6.17967 20.1279 5.56248 21.0117 5.1953C21.6387 4.93553 22.3603 4.93456 22.9893 5.19628C23.8721 5.56249 24.6123 6.17968 25.1318 6.98144C25.1514 7.01269 25.1865 7.06054 25.209 7.08984C26.3838 8.64062 28.331 9.4541 30.2803 9.22754L30.4258 9.20899C30.4609 9.20313 30.4961 9.19727 30.5313 9.18946C31.4238 8.9961 32.3447 9.07618 33.1914 9.42188C33.8154 9.67676 34.3193 10.1817 34.5732 10.8057C34.918 11.6553 35 12.5772 34.793 13.5615C34.791 13.5762 34.7764 13.6875 34.7744 13.7022C34.5371 15.6524 35.3477 17.5947 36.9072 18.7891C36.9434 18.8174 36.9805 18.8438 37.0186 18.8682C37.8203 19.3877 38.4375 20.1279 38.8047 21.0117C39.0654 21.6396 39.0654 22.3603 38.8037 22.9893Z" fill="#292929"/>
<path fill-rule="evenodd" clip-rule="evenodd" d="M30.8603 13.2715C30.1836 12.7969 29.2461 12.96 28.7715 13.6397L19.2051 27.3057L13.458 22.5371C12.8193 22.0069 11.875 22.0967 11.3457 22.7334C10.8164 23.3711 10.9043 24.3164 11.542 24.8457L18.542 30.6543C18.8125 30.8789 19.1523 31 19.5 31C19.5664 31 19.6328 30.9951 19.7002 30.9864C20.1152 30.9307 20.4883 30.7032 20.7285 30.3604L31.2285 15.3604C31.7041 14.6817 31.5391 13.7461 30.8603 13.2715Z" fill="#292929"/>
</svg>
