<?xml version="1.0" encoding="UTF-8"?>
<svg id="ICONS" xmlns="http://www.w3.org/2000/svg" width="44" height="43.93471" viewBox="0 0 44 43.93471">
  <defs>
    <style>
      .fill {
        fill: #222;
      }
    </style>
  </defs>
  <path class="fill" d="m31.82022,3h-8.17871c-.82861,0-1.5.67188-1.5,1.5s.67139,1.5,1.5,1.5h8.17871c3.58398,0,6.5,2.91602,6.5,6.5v19c0,3.58398-2.91602,6.5-6.5,6.5H12.82022c-3.58398,0-6.5-2.91602-6.5-6.5v-7.53223c0-.82812-.67139-1.5-1.5-1.5s-1.5.67188-1.5,1.5v7.53223c0,5.23828,4.26172,9.5,9.5,9.5h19c5.23828,0,9.5-4.26172,9.5-9.5V12.5c0-5.23828-4.26172-9.5-9.5-9.5Z"/>
  <path class="fill" d="m35.91251,15.77246l-1.86279-3.1084-1.79688-3.24609c-.53564-.96777-1.56299-1.56934-2.68066-1.56934h-.00049c-1.11768,0-2.14502.60156-2.68115,1.56934h-.00049l-1.77051,3.20117-1.91504,3.19727c-.52686.95215-.51172,2.08008.04102,3.01758.55908.94824,1.55371,1.51465,2.66113,1.51465h7.33008c1.10742,0,2.10254-.56641,2.66113-1.51562.55273-.9375.56738-2.06543.01465-3.06055Zm-2.67578,1.57617h-7.33008l-.10303-.03418,1.91504-3.19727,1.79639-3.24609h.11279l1.82275,3.29004,1.87744,3.13477-.09131.05273Z"/>
  <path class="fill" d="m4.63223,14.36816c-.00635.17285-.04883.45703-.0791.6582-.13232.88672-.31396,2.10156.57666,2.99121.89111.89258,2.10449.71191,2.99365.5791.21729-.0332.53076-.08008.6416-.09766.11035.11914.27881.34863.39697.51074.50879.69434,1.27783,1.74512,2.57275,1.74512,1.29443,0,2.06348-1.0498,2.57275-1.74512.1123-.1543.27051-.36914.38037-.49219.17334.00586.45703.04883.6582.0791.88867.13379,2.10205.31348,2.99316-.57812.8916-.8916.70996-2.10547.57715-2.99219-.03223-.21777-.0791-.53027-.09717-.6416.11914-.11035.34863-.2793.51025-.39746.69531-.50879,1.74561-1.27734,1.74561-2.57227s-1.05029-2.06348-1.74512-2.57324c-.15381-.1123-.36963-.27051-.49268-.38086.00635-.17285.04883-.45703.0791-.6582.13281-.88672.31445-2.10059-.57764-2.99316-.8916-.89062-2.10596-.70898-2.9917-.57617-.21777.03223-.53076.0791-.64307.09668-.11035-.11914-.27832-.34863-.39648-.51074-.50928-.69434-1.27832-1.74512-2.57275-1.74512-1.29492,0-2.06348,1.05078-2.57227,1.74512-.11279.1543-.27051.36914-.38037.49316-.17334-.00684-.45752-.0498-.65967-.0791-.88574-.13281-2.10059-.31445-2.99121.57617-.89209.8916-.71045,2.10645-.57812,2.99316.03271.2168.07959.53027.09717.6416-.11914.11133-.34863.2793-.51025.39746-.69531.50977-1.74512,1.2793-1.74512,2.57324,0,1.29492,1.05029,2.06348,1.74512,2.57227.15381.11328.36914.27051.49219.38086Zm1.28076-3.10645c.56445-.41309,1.2041-.88184,1.51416-1.62988.31836-.76758.19873-1.56738.09326-2.27344-.00879-.05664-.01807-.12012-.02734-.18555.06543.00879.12939.01855.18604.02734.70654.10645,1.50537.22559,2.27246-.09277.74902-.31055,1.21777-.9502,1.63135-1.51562.04541-.0625.09814-.13379.15186-.20605.0542.07227.10645.14453.15234.20605.41357.56543.88232,1.20508,1.63135,1.51562.7666.31836,1.56689.19922,2.27197.09277.05713-.00879.12061-.01855.18652-.02734-.00928.06543-.01904.12891-.02734.18555-.10547.70605-.22559,1.50586.09229,2.27344.31055.74805.95068,1.2168,1.51514,1.62988.0625.0459.13428.09863.20654.15332-.07227.05371-.14404.10645-.20605.15234-.56494.41309-1.20459.88184-1.51562,1.63086-.31787.7666-.19775,1.56641-.09229,2.27246.0083.05664.01807.12012.02734.18652-.06592-.00977-.12988-.01953-.18701-.02832-.70557-.10352-1.50537-.22461-2.27246.09277-.74854.31152-1.21729.95117-1.63037,1.51562-.0459.0625-.09814.13379-.15234.20605-.0542-.07227-.10645-.14355-.15234-.20605-.41309-.56445-.88135-1.2041-1.63135-1.51562-.37061-.15332-.74951-.20508-1.12207-.20508-.39648,0-.78564.05859-1.14941.1123-.05713.00879-.12109.01855-.18701.02832.00977-.06641.01904-.12988.02783-.18652.10547-.70605.2251-1.50586-.09277-2.27344-.31055-.74805-.95068-1.2168-1.51514-1.62988-.0625-.0459-.13428-.09863-.20605-.15234.07227-.05469.14404-.10742.20654-.15332Z"/>
  <path class="fill" d="m14.82022,22.77734c-3.58398,0-6.5,2.91602-6.5,6.5s2.91602,6.5,6.5,6.5,6.5-2.91602,6.5-6.5-2.91602-6.5-6.5-6.5Zm0,10c-1.92969,0-3.5-1.57031-3.5-3.5s1.57031-3.5,3.5-3.5,3.5,1.57031,3.5,3.5-1.57031,3.5-3.5,3.5Z"/>
  <path class="fill" d="m32.44571,23.00781c-1.18652-.08301-2.15186.37402-2.87402.9707-.72217-.5957-1.68311-1.04199-2.87402-.9707-2.13818.13184-3.81738,2.03027-3.82275,4.32031-.00977,3.81348,2.77539,6.37207,5.20459,8.17676.4458.33008.96826.49609,1.49121.49609.52344,0,1.04688-.16602,1.49463-.49707,2.42725-1.80273,5.21191-4.3623,5.20312-8.17578-.00537-2.29004-1.68457-4.18848-3.82275-4.32031Zm-2.87402,9.86523c-2.59229-1.9834-3.70166-3.65234-3.69678-5.53711.00146-.70117.4541-1.2998,1.0083-1.33398.01904-.00098.03809-.00195.05664-.00195.7749,0,1.27393.98145,1.27441.98145.24414.52051.76904.84766,1.34473.85449h.01611c.56934,0,1.09375-.33008,1.34766-.83984.00488-.01074.52441-1.04297,1.3374-.99414.5542.03418,1.00684.63281,1.0083,1.33398.00439,1.88574-1.10596,3.55469-3.69678,5.53711Z"/>
</svg>