<?xml version="1.0" encoding="UTF-8"?>
<svg id="ICONS" xmlns="http://www.w3.org/2000/svg" width="22" height="22" viewBox="0 0 22 22">
  <defs>
    <style>
      .cls-1 {
        fill: #222;
      }
    </style>
  </defs>
  <path class="cls-1" d="m7,18c-1.6543,0-3-1.3457-3-3s1.3457-3,3-3,3,1.3457,3,3-1.3457,3-3,3Zm0-4.5c-.82715,0-1.5.67285-1.5,1.5s.67285,1.5,1.5,1.5,1.5-.67285,1.5-1.5-.67285-1.5-1.5-1.5Z"/>
  <path class="cls-1" d="m16,21H6c-2.75684,0-5-2.24316-5-5v-3.41602c0-.55273.44727-1,1-1s1,.44727,1,1v3.41602c0,1.6543,1.3457,3,3,3h10c1.6543,0,3-1.3457,3-3V6c0-1.6543-1.3457-3-3-3h-3.00293c-.55273,0-1-.44727-1-1s.44727-1,1-1h3.00293c2.75684,0,5,2.24316,5,5v10c0,2.75684-2.24316,5-5,5Z"/>
  <path class="cls-1" d="m5.44531,10.8125c-.80469,0-1.2627-.62598-1.56641-1.04004-.0459-.06348-.1084-.14844-.15918-.21191-.05566.0166-.1748.03516-.26172.04785-.50098.07422-1.25586.1875-1.80859-.36914-.55469-.55469-.44141-1.30762-.36719-1.80664.01172-.08008.02832-.18652.03613-.27051-.06152-.04883-.14062-.10742-.20117-.15137-.41406-.30273-1.03906-.76172-1.03906-1.56543,0-.80469.62598-1.2627,1.04004-1.56641.06348-.04688.14844-.1084.21191-.16016-.0166-.05469-.03516-.17383-.04785-.26074-.07422-.49902-.1875-1.25391.36914-1.80859.55371-.55566,1.30566-.44043,1.80664-.36719.08008.01172.18652.02832.27051.03613.04883-.06152.10645-.14062.15039-.2002.30371-.41406.76172-1.04004,1.56641-1.04004.80371,0,1.2627.625,1.56543,1.03906.04688.06445.10938.14941.16016.21289.05566-.0166.17383-.03418.26172-.04785.49805-.07324,1.25098-.18848,1.80762.36816.55566.55371.44238,1.30859.36816,1.80762-.01172.08008-.02832.18652-.03613.27051.06152.04883.14062.10645.2002.15039.41406.30371,1.04004.76172,1.04004,1.56641,0,.80371-.625,1.26172-1.03906,1.56543-.06445.04688-.14941.10938-.21289.16016.0166.05566.03418.17383.04785.26172.07422.49902.1875,1.25195-.36816,1.80762-.55664.55664-1.30957.44141-1.80762.36816-.08008-.01172-.18652-.02832-.27051-.03613-.0498.06152-.10742.14062-.15137.20117-.30371.41406-.76172,1.03906-1.56543,1.03906Zm-1.62012-3.24609c.22559,0,.45996.03125.68945.12598.42871.17773.70703.53027.93066.83398.22266-.30371.50195-.65625.93066-.83398.4248-.1748.86426-.13281,1.2373-.0791-.05371-.37109-.09668-.8125.0791-1.2373.17773-.42871.53027-.70801.83398-.93066-.30371-.22363-.65625-.50195-.83398-.93066-.17578-.4248-.13281-.86523-.0791-1.2373-.37305.05176-.8125.09473-1.2373-.0791-.42871-.17871-.70801-.53125-.93066-.83398-.22266.30273-.50098.65527-.92969.83301-.4248.17676-.86523.13281-1.23828.08008.05371.37207.09668.8125-.0791,1.2373-.17871.42871-.53125.70801-.83398.93066.30273.22266.65527.50195.83301.92969.17676.42578.13379.86621.08008,1.23828.1709-.02441.35645-.04688.54785-.04688Zm5.65918-.32715h0Zm-.58691-1.50195h.01074-.01074Z"/>
  <path class="cls-1" d="m15.99805,10.25h-2.57812c-.63281,0-1.19922-.32715-1.51562-.875-.31641-.54688-.31641-1.20117,0-1.75l1.28906-2.2334c.31641-.54785.88281-.875,1.51562-.875s1.19922.32715,1.51562.875l1.28906,2.2334c.31641.54883.31641,1.20312,0,1.75-.31641.54785-.88281.875-1.51562.875Zm-1.28906-4.2334c-.05371,0-.1543.01562-.2168.125h0l-1.28906,2.2334c-.0625.10938-.02734.20312,0,.25s.09082.125.2168.125h2.57812c.12598,0,.18945-.07812.2168-.125s.0625-.14062,0-.25l-1.28906-2.2334c-.0625-.10938-.16309-.125-.2168-.125Zm-.86621-.25h.00977-.00977Z"/>
  <path class="cls-1" d="m14.49414,17.75c-.25391,0-.50781-.07812-.72461-.2334-1.17578-.8457-2.52441-2.0459-2.51953-3.84863.00293-1.09277.82227-1.99707,1.86523-2.05957.57031-.01855,1.03027.17188,1.37891.44824.34961-.27539.81445-.47461,1.38086-.44824,1.04199.0625,1.86133.9668,1.86426,2.05957.00391,1.80176-1.34473,3.00293-2.51953,3.84766-.2168.15625-.4707.23438-.72559.23438Zm-1.26367-4.64453c-.00879,0-.01758,0-.02637.00098-.25.01465-.45312.26855-.4541.56543-.00195.85059.52148,1.60938,1.74414,2.5166,1.22266-.90723,1.74707-1.66602,1.74512-2.5166-.00098-.29688-.2041-.55078-.45312-.56543h-.00098c-.36914-.01953-.61816.43652-.62012.44043-.12988.24902-.38867.40918-.66895.40918h-.00977c-.2832-.00391-.54297-.16211-.66699-.41797h0s-.22949-.43262-.58887-.43262Z"/>
</svg>