<svg xmlns="http://www.w3.org/2000/svg" id="ICONS" width="44" height="44" viewBox="0 0 44 44">
  <defs>
    <style>
      .fill {
        fill: #222;
      }
    </style>
  </defs>
  <rect id="Canvas" fill="#ff13dc" opacity="0" width="44" height="44" /><path class="fill" d="m34.63519,16.9165c.02136-.3042.04645-.60718.04645-.9165,0-7.16797-5.83154-13-13-13s-13,5.83203-13,13c0,.41162.02417.81738.06177,1.21899-3.46234,2.33813-5.74341,6.2981-5.74341,10.78101,0,7.16797,5.83154,13,13,13,2.16266,0,4.19922-.53857,5.99512-1.47656,1.79822.93823,3.83838,1.47656,6.00488,1.47656,7.16846,0,13-5.81348,13-12.95996,0-4.72778-2.56097-8.86011-6.36481-11.12354Zm-6.4314,6.64722c-.69861-1.91528-1.82965-3.61938-3.28278-4.99463.97089-.31372,2.00433-.48804,3.07898-.48804,1.16235,0,2.27411.20874,3.31268.57349-.53394,1.93384-1.63086,3.63281-3.10889,4.90918Zm-6.20935,12.42139c-2.31293-1.73877-3.84131-4.448-3.97278-7.51855,1.16229.34204,2.38849.53345,3.65997.53345,1.51068,0,2.95569-.27246,4.3056-.74829-.07928,3.16016-1.62939,5.95459-3.9928,7.7334Zm-.31281-9.98511c-1.16479,0-2.27881-.21045-3.31927-.57837.59717-2.17651,1.91534-4.05347,3.68628-5.36597,1.677,1.27979,2.93903,3.07129,3.54529,5.14575-1.20239.51343-2.52448.79858-3.91229.79858Zm-6.01495-2.03027c-1.69373-1.28149-2.96875-3.08301-3.57904-5.17139,1.20239-.51318,2.52454-.79834,3.91235-.79834,1.11847,0,2.1908.19287,3.1958.53296-1.59875,1.47241-2.82825,3.33252-3.52911,5.43677Zm6.01495-17.96973c5.38367,0,9.77502,4.27954,9.98041,9.61328-1.1629-.34106-2.38977-.53223-3.66205-.53223-2.13336,0-4.1427.52441-5.92078,1.43604-1.8158-.96509-3.88336-1.51709-6.07922-1.51709-1.51068,0-2.95569.27246-4.3056.74829.13538-5.39673,4.55804-9.74829,9.98724-9.74829Zm-5.68164,32c-5.51416,0-10-4.48633-10-10,0-3.02148,1.3526-5.72852,3.47784-7.56372,1.03217,2.82959,3.01495,5.19751,5.56702,6.72144-.01996.29297-.04486.58447-.04486.88232,0,3.72803,1.59619,7.08374,4.1322,9.4502-.98651.32666-2.0376.50977-3.1322.50977Zm12,0c-1.09851,0-2.15302-.18408-3.14258-.51123,2.54193-2.37451,4.14258-5.74438,4.14258-9.48877,0-.41162-.02417-.81738-.06177-1.21899,2.35553-1.59082,4.15533-3.93628,5.07098-6.68237,2.41821,1.81958,3.99078,4.69751,3.99078,7.94141,0,5.49219-4.48584,9.95996-10,9.95996Z" />
</svg>