<svg width="22" height="22" viewBox="0 0 22 22" fill="none" xmlns="http://www.w3.org/2000/svg">
<g id="Frame">
<path id="iconFill" fill-rule="evenodd" clip-rule="evenodd" d="M14.6089 9.40418L9.93014 6.54948C9.19875 6.10312 8.25 6.61649 8.25 7.45849V13.1681C8.25 14.0101 9.19875 14.5235 9.93014 14.0772L14.6089 11.2225C15.297 10.8025 15.297 9.82416 14.6089 9.40418Z" fill="#292929"/>
<path id="iconFill_2" fill-rule="evenodd" clip-rule="evenodd" d="M15.8125 0H6.1875C2.77551 0 0 2.77551 0 6.1875V14.4375C0 17.8495 2.77551 20.625 6.1875 20.625H15.8125C19.2245 20.625 22 17.8495 22 14.4375V6.1875C22 2.77551 19.2245 0 15.8125 0ZM19.25 14.4375C19.25 16.3335 17.7085 17.875 15.8125 17.875H6.1875C4.2915 17.875 2.75 16.3335 2.75 14.4375V6.1875C2.75 4.2915 4.2915 2.75 6.1875 2.75H15.8125C17.7085 2.75 19.25 4.2915 19.25 6.1875V14.4375Z" fill="#292929"/>
</g>
</svg>
