<svg width="22" height="22" viewBox="0 0 22 22" fill="none" xmlns="http://www.w3.org/2000/svg">
<g id="Frame">
<path id="iconFill" fill-rule="evenodd" clip-rule="evenodd" d="M10.9983 14.6667C13.6945 14.6667 15.8872 12.4741 15.8872 9.77778V4.88889C15.8872 2.19259 13.6945 0 10.9983 0C8.30198 0 6.10938 2.19259 6.10938 4.88889V9.77778C6.10938 12.4741 8.30198 14.6667 10.9983 14.6667ZM8.55382 4.88889C8.55382 3.54134 9.65071 2.44444 10.9983 2.44444C12.3458 2.44444 13.4427 3.54134 13.4427 4.88889V9.77778C13.4427 11.1253 12.3458 12.2222 10.9983 12.2222C9.65071 12.2222 8.55382 11.1253 8.55382 9.77778V4.88889Z" fill="#292929"/>
<path id="iconFill_2" fill-rule="evenodd" clip-rule="evenodd" d="M18.3342 8.55469C17.6586 8.55469 17.112 9.10135 17.112 9.77691C17.112 13.1464 14.3703 15.888 11.0009 15.888C7.6314 15.888 4.88976 13.1464 4.88976 9.77691C4.88976 9.10135 4.34309 8.55469 3.66753 8.55469C2.99198 8.55469 2.44531 9.10135 2.44531 9.77691C2.44531 14.078 5.63992 17.6384 9.77865 18.2349V19.5547H8.55642C7.88086 19.5547 7.3342 20.1014 7.3342 20.7769C7.3342 21.4525 7.88086 21.9991 8.55642 21.9991H13.4453C14.1209 21.9991 14.6675 21.4525 14.6675 20.7769C14.6675 20.1014 14.1209 19.5547 13.4453 19.5547H12.2231V18.2349C16.3618 17.6384 19.5564 14.078 19.5564 9.77691C19.5564 9.10135 19.0098 8.55469 18.3342 8.55469Z" fill="#292929"/>
</g>
</svg>
