<svg width="23" height="22" viewBox="0 0 23 22" fill="none" xmlns="http://www.w3.org/2000/svg">
<path fill-rule="evenodd" clip-rule="evenodd" d="M17.8634 3.26416V2.77863H16.1059V1.91065C16.2249 1.89362 16.2849 1.85266 16.2954 1.78015L15.4454 1.73413V2.77759H13.6895V3.21661H17.8394L17.8634 3.26416Z" fill="#292929"/>
<path fill-rule="evenodd" clip-rule="evenodd" d="M15.4467 6.51502H13.6893V6.95447H15.3282C14.8933 7.79212 14.2731 8.5196 13.5147 9.08149C13.6707 9.21241 13.8093 9.36255 13.9272 9.52851C14.5309 9.01777 15.0445 8.40931 15.4467 7.72852V10.2475H15.8862V7.82849C16.3795 8.14911 16.8327 8.52747 17.2363 8.95551L17.6072 8.48047C17.3677 8.27002 16.1072 7.24146 16.1072 7.24146V6.95252H17.8647V6.29346H16.1057V5.45349C16.0832 5.45349 16.1447 5.41504 16.1447 5.41504H18.0827V4.75598H16.6752C16.9001 4.39301 17.0815 4.00488 17.2158 3.59949C17.3232 3.58948 17.3842 3.55896 17.4022 3.50647L16.6942 3.28296C16.5627 3.78619 16.392 4.27826 16.1865 4.75598H15.2067C15.1285 4.25695 14.9844 3.77056 14.7747 3.31103L14.2712 3.45099C14.449 3.87109 14.5831 4.30841 14.6712 4.75598H13.4697V5.41504H15.4467V6.51502Z" fill="#292929"/>
<path fill-rule="evenodd" clip-rule="evenodd" d="M17.4741 10.3545C17.7942 10.0445 18.0651 9.68756 18.2777 9.29602C18.4766 8.92511 18.6307 8.53186 18.7367 8.12451C18.9257 7.37109 19.0011 6.59368 18.9602 5.81799V5.41796H20.4977V10.2505H21.1567V4.75598H18.9617V3.19897C19.7587 3.01098 21.1582 2.492 21.1582 2.492V1.82153C20.3863 2.19055 19.5831 2.49023 18.7582 2.71704L18.3027 2.56751V5.81049C18.3027 5.81049 18.2362 8.76349 17.0361 9.91699C17.2131 10.0281 17.3629 10.1776 17.4741 10.3545Z" fill="#292929"/>
<path fill-rule="evenodd" clip-rule="evenodd" d="M12.7992 10.4397C12.7991 10.3822 12.7773 10.3269 12.7382 10.2848C12.6641 10.2186 12.5689 10.1812 12.4697 10.1792C12.4197 10.1792 12.3971 10.1792 12.2197 10.2827C11.6102 10.6379 11.0331 11.0456 10.4946 11.5012C10.4642 11.5012 10.4542 11.4912 10.4542 11.4607C10.4542 11.3468 10.6711 10.7583 11.7446 8.83725C11.8076 8.71378 11.8358 8.57553 11.8262 8.43723C11.8323 8.3071 11.7921 8.17899 11.7126 8.07578C11.4458 7.77146 11.0532 7.60752 10.6492 7.63175C10.6082 7.63175 9.76117 7.72422 8.67663 8.94321C8.29614 9.35642 7.95715 9.80612 7.66467 10.2857C7.48693 10.5763 7.38384 10.9062 7.36468 11.2462C7.36468 11.4637 7.38512 11.4962 7.43713 11.5462C7.61346 11.7405 7.8233 11.9014 8.05663 12.0212C8.15478 12.0625 8.26025 12.0835 8.36669 12.0827C8.88268 12.0827 9.32665 11.5882 9.79168 11.1443C9.7998 11.1361 9.81127 11.1322 9.82263 11.1338C9.83361 11.1347 9.84222 11.1433 9.84314 11.1543C8.71668 13.7748 8.58313 13.4983 7.79815 14.7063C7.28216 15.5017 7.09814 15.8423 7.09814 16.1003C7.09845 16.1771 7.10888 16.2536 7.12915 16.3277C7.1792 16.5243 7.46966 16.6278 7.66613 16.6278C7.98815 16.693 8.3078 16.5066 8.40966 16.1942C8.53369 15.9657 8.91565 15.0787 9.26666 14.2318C9.7937 12.9818 10.8052 12.0527 12.7167 10.6173C12.7712 10.5749 12.8019 10.5088 12.7992 10.4397ZM8.45519 11.2022C8.39306 11.2397 8.32104 11.2572 8.24865 11.2522C8.20617 11.2522 8.12462 11.2118 8.12462 11.1708C8.1491 11.0351 8.19078 10.9033 8.24865 10.7782C8.66979 10.0365 9.20269 9.36411 9.82866 8.78477C9.97313 8.65073 10.0557 8.64024 10.2622 8.4752C10.391 8.35032 10.5589 8.27366 10.7377 8.25828C10.7976 8.25773 10.857 8.26823 10.9132 8.28928C11.0162 8.33127 11.0162 8.36173 11.0162 8.39274C11.0162 8.41325 11.0366 8.4332 11.0366 8.45371C11.0334 8.48038 11.0227 8.50553 11.0057 8.52622C10.3321 9.57133 9.46667 10.4793 8.45519 11.2022Z" fill="#292929"/>
<path fill-rule="evenodd" clip-rule="evenodd" d="M6.4303 11.5447L6.48029 10.5122C6.4903 10.3777 6.5008 10.3666 6.59375 10.3057C6.7334 10.2315 6.89026 10.1958 7.04828 10.2022C7.44031 10.2022 7.66779 10.1401 7.79175 9.93366C7.81659 9.89301 7.83057 9.84669 7.83228 9.79914C7.83228 9.76765 7.82276 9.74915 7.7713 9.68568C7.5954 9.53968 7.3689 9.46925 7.1413 9.48963C6.96167 9.49354 6.78241 9.50721 6.60425 9.53065C6.54279 9.53065 6.54279 9.50013 6.54279 9.46912C6.54279 9.42866 6.6463 7.72413 6.76978 6.93915C6.78931 6.82648 6.79981 6.71247 6.80127 6.59815C6.80127 6.53565 6.9563 5.71015 6.9563 5.61719C6.9563 5.53467 6.90625 5.55518 6.87329 5.45215C6.85278 5.4021 6.6568 5.35913 6.52332 5.35913C6.30097 5.38898 6.08032 5.43036 5.86231 5.48316C5.8208 5.48316 5.8003 5.49317 5.63526 5.74115C4.49927 7.44513 3.63178 8.90113 2.8263 10.3987C2.75379 10.5331 2.73328 10.5432 2.70227 10.5432C2.56775 10.5432 2.42328 10.3677 2.2583 10.3677C2.21686 10.3687 2.17688 10.3831 2.14429 10.4086C2.05017 10.5837 1.99731 10.778 1.98975 10.9767C1.98975 11.1107 2.07227 11.1621 2.31983 11.2966C2.36078 11.3171 2.38129 11.3376 2.38129 11.3687C2.30664 11.6635 2.2616 11.9649 2.24683 12.2687C2.24683 12.7021 2.30878 12.8262 2.53626 12.9686C2.59583 13.0106 2.66211 13.0421 2.7323 13.0616C2.87683 13.0616 2.9903 12.9276 3.12476 12.8341C3.15576 12.8141 3.17481 12.7936 3.17481 12.7731C3.15174 12.5814 3.14136 12.3883 3.1438 12.1951C3.14783 11.9451 3.20423 11.6986 3.30933 11.4717C3.35925 11.3582 3.39179 11.3376 3.46375 11.3276C4.17572 11.1632 4.87622 10.9526 5.56079 10.6971C5.60132 10.6971 5.62183 10.7071 5.62183 10.7382C5.62183 11.2131 5.58081 11.6571 5.58081 12.1221C5.54883 12.5685 5.61597 13.0163 5.77728 13.4336C5.92432 13.5579 6.11182 13.6239 6.30432 13.6191C6.34625 13.623 6.38782 13.6083 6.41779 13.5786C6.50025 13.5166 6.62427 13.4441 6.62427 13.3212C6.46399 12.9684 6.39392 12.5812 6.42029 12.1946C6.42029 12.0392 6.42029 11.6776 6.4303 11.5447ZM5.64478 9.80713C5.63379 9.89014 5.62427 9.90064 5.57276 9.92115C5.53125 9.94166 5.26282 10.0242 4.8808 10.1686C4.54566 10.2953 4.19996 10.3922 3.84778 10.4581C3.80726 10.4581 3.78675 10.4481 3.78675 10.4171C3.81525 10.3223 3.857 10.2318 3.91077 10.1487C4.42676 9.16761 4.98475 8.21766 5.76978 6.95765C5.81983 6.87513 5.84229 6.87513 5.8628 6.87513C5.88331 6.87513 5.89332 6.88563 5.89332 7.04017C5.8628 7.96644 5.77979 8.89026 5.64478 9.80713Z" fill="#292929"/>
<path fill-rule="evenodd" clip-rule="evenodd" d="M13.7761 18.7481H16.8517V18.5281H16.4891L13.9862 12.8167H13.5757L11.0621 18.5281H10.7007V18.7481H12.4581V18.5281H11.5452L12.0392 17.2101H13.9011L14.5406 18.5281H13.7761V18.7481ZM12.0797 16.9906L12.8407 14.6456L13.8362 16.9906H12.0797Z" fill="#292929"/>
<path fill-rule="evenodd" clip-rule="evenodd" d="M20.0887 14.9046C19.7629 14.7136 19.3898 14.6182 19.0123 14.6296C17.8393 14.6296 17.1583 15.3411 17.1583 16.2296C17.1438 16.7069 17.361 17.1618 17.7413 17.4506C17.3446 17.7772 17.1036 18.2555 17.0773 18.7686C17.0632 19.0311 17.1567 19.2881 17.3363 19.4801C16.9963 19.6086 16.8018 19.8301 16.8018 20.0701C16.8018 20.5806 17.3848 20.8201 18.5748 20.8201C20.0648 20.8201 21.0688 20.2227 21.0688 19.3001C21.0688 18.5966 20.5578 18.3056 19.6188 18.3056H18.6863C17.9818 18.3056 17.7313 17.9666 17.8118 17.5056C18.162 17.7292 18.5704 17.8445 18.9858 17.8372C20.1033 17.8372 20.7753 17.1501 20.7753 16.2371C20.7969 15.7471 20.5796 15.2771 20.1923 14.9761C20.6369 15.1033 21.0619 15.291 21.4553 15.5341C21.4633 15.5256 21.4633 14.2017 21.4633 14.2017C20.9713 14.4431 20.5257 14.6701 20.0887 14.9046ZM18.3943 19.8466H19.2683C19.9078 19.8466 20.1428 19.9431 20.1428 20.1291C20.1428 20.4291 19.6493 20.6547 19.0257 20.6547C18.1998 20.6547 17.5522 20.3086 17.3578 19.5546C17.6581 19.771 18.0251 19.8744 18.3943 19.8466ZM19.5517 17.6516C19.3088 17.6516 19.0018 17.3926 18.5318 16.5276C18.2779 16.1427 18.1122 15.7065 18.0463 15.2501V15.2216C18.0438 15.0437 18.1858 14.8973 18.3638 14.8947C18.6138 14.8947 18.8978 15.1696 19.3758 16.0181C19.6321 16.402 19.7981 16.8389 19.8613 17.2961C19.8592 17.5302 19.7363 17.6511 19.5517 17.6516Z" fill="#292929"/>
</svg>
