<svg width="22" height="22" viewBox="0 0 22 22" fill="none" xmlns="http://www.w3.org/2000/svg">
<g id="Frame">
<path id="iconFill" fill-rule="evenodd" clip-rule="evenodd" d="M20.7695 6.62636L20.7662 4.3702C20.7662 3.43086 20.3472 2.54761 19.6179 1.94724C18.8767 1.33971 17.9099 1.0998 16.9694 1.28242L11.054 2.45212L9.89269 2.74335C8.41027 3.03338 7.33366 4.33199 7.33366 5.82994V13.4091C6.19857 13.3089 4.90712 13.4676 4.04774 13.8794C2.88997 14.4344 2.0115 15.3726 1.63791 16.454C1.3443 17.3038 1.38726 18.1882 1.76085 18.9438C2.3481 20.1326 3.60255 20.7902 5.01096 20.7902C5.71517 20.7902 6.45877 20.6255 7.1773 20.2818C8.7576 19.525 9.77811 18.0856 9.77811 16.6127V9.76994C9.79243 9.77054 9.80541 9.7771 9.81988 9.7771C9.90105 9.7771 9.9834 9.76874 10.0646 9.75204L18.3271 8.06819L18.3316 10.9587C17.1965 10.8609 15.9056 11.016 15.0442 11.4302C13.8876 11.984 13.0091 12.9234 12.6355 14.0059C12.3419 14.8558 12.3861 15.739 12.7585 16.4933C13.3469 17.6822 14.6002 18.3398 16.011 18.3398C16.7152 18.3398 17.4588 18.1763 18.1773 17.8313C19.7564 17.0746 20.7769 15.634 20.7769 14.1623V6.66305C20.7769 6.64993 20.7699 6.6392 20.7695 6.62636ZM7.33366 16.6127C7.33366 17.052 6.9171 17.6953 6.12099 18.0772C5.16732 18.5344 4.18859 18.3386 3.95226 17.8612C3.86871 17.6917 3.86751 17.4864 3.94868 17.2525C4.10742 16.7905 4.5395 16.3549 5.10406 16.084C5.48959 15.8989 6.09115 15.8273 6.64855 15.8273C6.89323 15.8273 7.12837 15.8405 7.33366 15.8655V16.6127ZM9.77811 7.31684V5.82995C9.77811 5.49814 10.024 5.2081 10.4238 5.12813L17.4421 3.68152C17.6688 3.63378 17.892 3.69584 18.0651 3.83549C18.1606 3.91426 18.3217 4.08853 18.3217 4.3726L18.3235 5.57513L9.77811 7.31684ZM18.3325 14.1623C18.3325 14.6015 17.9159 15.2461 17.121 15.6268C16.1673 16.0828 15.1874 15.8918 14.9499 15.4096C14.8663 15.2413 14.8651 15.0372 14.9463 14.8033C15.1062 14.3413 15.5371 13.9045 16.1005 13.6348C16.4872 13.4486 17.09 13.3769 17.6473 13.3769C17.892 13.3769 18.1272 13.3913 18.3325 13.4151V14.1623Z" fill="#292929"/>
</g>
</svg>
