<svg xmlns="http://www.w3.org/2000/svg" width="40" height="40" viewBox="0 0 40 40">
  <g id="EDU_All-in-one-editor" transform="translate(-4894 -3318)">
    <rect id="Rectangle_758348" data-name="Rectangle 758348" width="40" height="40" transform="translate(4894 3318)" fill="none"/>
    <path id="SX_Brush_44_N" d="M25.125,30.817C41.919,10.653,42.249,5.911,40.1,3.79A2.783,2.783,0,0,0,37.983,3c-3.893.154-10.776,7.8-20.076,18.584l-1.253,1.452a1.489,1.489,0,0,0-.277.483,7.129,7.129,0,0,0-5.326,1.851,13.544,13.544,0,0,0-3.579,6.042l-.087.3c-.557,1.958-.925,3.252-3.007,4.077a2.168,2.168,0,0,0-1.3,2.594,2.554,2.554,0,0,0,1.856,1.8c.74.179,1.573.338,2.478.473A30.275,30.275,0,0,0,11.826,41c3.567,0,7.767-.714,10.766-3.448a7.625,7.625,0,0,0,2.488-6.689c.014-.016.032-.027.046-.044ZM38,5.993c.151.7-.1,4.622-14.2,21.712a9.63,9.63,0,0,0-4.253-3.436l.626-.725C25.1,17.841,35.245,6.074,38,5.993ZM20.57,35.333c-3.62,3.3-10.1,2.749-12.716,2.361q-.284-.042-.557-.088c1.933-1.405,2.479-3.329,2.974-5.067l.085-.3a10.533,10.533,0,0,1,2.775-4.707,4.3,4.3,0,0,1,3.689-.955,6.628,6.628,0,0,1,5.039,3.743,4.47,4.47,0,0,1-1.29,5.011Z" transform="translate(4891.984 3316.001)" fill="#242424"/>
  </g>
</svg>
