<svg width="18" height="18" viewBox="0 0 18 18" fill="none" xmlns="http://www.w3.org/2000/svg">
<path d="M15.8772 5.34208C15.6451 4.98043 15.164 4.87514 14.8024 5.10699C14.1302 5.55884 13.4868 6.05303 12.8769 6.58662C12.5207 6.88437 12.1766 7.17149 11.8363 7.43278C11.553 6.93147 11.2727 6.40129 10.9917 5.86959C10.5542 5.04166 10.1151 4.21222 9.66243 3.48C9.6085 3.40319 9.54166 3.33635 9.46494 3.28242C9.09959 3.02616 8.59562 3.11465 8.33926 3.48C7.87365 4.23349 7.42398 5.08116 6.98116 5.91972C6.70772 6.43622 6.43655 6.94969 6.16463 7.43126C5.8251 7.17149 5.48254 6.88437 5.12706 6.58662C4.51561 6.05303 3.8715 5.55779 3.19852 5.10395C3.04205 5.00369 2.8552 4.96267 2.67138 4.98831C2.24564 5.04756 1.94827 5.44073 2.00752 5.86656C2.21184 7.1808 2.48225 8.48383 2.81798 9.77073C3.12598 10.9434 3.37474 12.1309 3.56311 13.3285C3.6159 13.7134 3.94479 14.0002 4.33331 14H13.6668C14.0557 14.0003 14.3846 13.7134 14.437 13.3284C14.6262 12.1251 14.8761 10.9321 15.1852 9.75393C15.5202 8.47321 15.7898 7.17625 15.9926 5.86809C16.0181 5.68456 15.9771 5.49798 15.8772 5.34208Z" fill="white"/>
</svg>
