<svg width="23" height="22" viewBox="0 0 23 22" fill="none" xmlns="http://www.w3.org/2000/svg">
<g clip-path="url(#clip0_425_22782)">
<path fill-rule="evenodd" clip-rule="evenodd" d="M6.5 9.5C8.56787 9.5 10.25 7.81787 10.25 5.75V2.5H15C16.792 2.5 18.25 3.95801 18.25 5.75V7.75C18.25 8.16406 18.5857 8.5 19 8.5C19.4143 8.5 19.75 8.16406 19.75 7.75V5.75C19.75 3.13086 17.6191 1 15 1H9.81347C8.77002 1 7.76587 1.43994 7.0581 2.20655L2.74463 6.8794C2.10328 7.57422 1.75 8.47754 1.75 9.42285V15.25C1.75 17.8691 3.88086 20 6.5 20H9C9.41431 20 9.75 19.6641 9.75 19.25C9.75 18.8359 9.41431 18.5 9 18.5H6.5C4.70801 18.5 3.25 17.042 3.25 15.25V9.5H6.5ZM8.16015 3.22412C8.32989 3.04016 8.53335 2.89758 8.75 2.78076V5.75C8.75 6.99073 7.74073 8 6.5 8H3.76795C3.7955 7.96643 3.81705 7.92908 3.84668 7.89698L8.16015 3.22412Z" fill="#292929"/>
<path fill-rule="evenodd" clip-rule="evenodd" d="M16.75 10C13.4416 10 10.75 12.6914 10.75 16C10.75 19.3086 13.4416 22 16.75 22C20.0584 22 22.75 19.3086 22.75 16C22.75 12.6914 20.0584 10 16.75 10ZM16.75 20.5C14.2688 20.5 12.25 18.4814 12.25 16C12.25 13.5186 14.2688 11.5 16.75 11.5C19.2312 11.5 21.25 13.5186 21.25 16C21.25 18.4814 19.2312 20.5 16.75 20.5Z" fill="#292929"/>
<path fill-rule="evenodd" clip-rule="evenodd" d="M15.0872 17.0829L18.4132 17.0849C18.5517 17.0849 18.6689 16.9827 18.6877 16.8454C18.7457 16.4269 19.1762 15.0184 19.2422 14.5454C19.2635 14.3939 19.1579 14.2538 19.0064 14.2325C18.9404 14.2232 18.8731 14.2381 18.8172 14.2744C18.5776 14.4347 18.3485 14.6101 18.1312 14.7994C18.0042 14.9064 17.8812 15.0079 17.7602 15.0994C17.6602 14.9214 17.5602 14.7319 17.4602 14.5424C17.3042 14.2474 17.1477 13.9514 16.9862 13.6924C16.8948 13.5622 16.7152 13.5307 16.585 13.6221C16.5576 13.6413 16.5338 13.6651 16.5147 13.6924C16.3492 13.9609 16.1887 14.2624 16.0307 14.5619C15.9332 14.7459 15.8367 14.9289 15.7397 15.1004C15.6187 15.0079 15.4962 14.9054 15.3697 14.8004C15.1522 14.61 14.9231 14.4334 14.6837 14.2714C14.5552 14.1884 14.3837 14.2253 14.3007 14.3538C14.2644 14.4099 14.2497 14.4773 14.2592 14.5434C14.3257 15.0229 14.7557 16.4289 14.8137 16.8434C14.8324 16.9803 14.949 17.0824 15.0872 17.0829Z" fill="#292929"/>
<path fill-rule="evenodd" clip-rule="evenodd" d="M18.3537 17.7175H15.1467C14.95 17.7102 14.7845 17.8637 14.7771 18.0604C14.7697 18.2572 14.9233 18.4227 15.12 18.43C15.1289 18.4304 15.1378 18.4304 15.1467 18.43H18.3537C18.5505 18.4227 18.704 18.2572 18.6966 18.0604C18.6896 17.874 18.5401 17.7245 18.3537 17.7175Z" fill="#292929"/>
</g>
<defs>
<clipPath id="clip0_425_22782">
<rect width="22" height="22" fill="white" transform="translate(0.75)"/>
</clipPath>
</defs>
</svg>
