<svg width="23" height="22" viewBox="0 0 23 22" fill="none" xmlns="http://www.w3.org/2000/svg">
<g clip-path="url(#clip0_425_22779)">
<path fill-rule="evenodd" clip-rule="evenodd" d="M16.75 10C13.4416 10 10.75 12.6914 10.75 16C10.75 19.3086 13.4416 22 16.75 22C20.0583 22 22.75 19.3086 22.75 16C22.75 12.6914 20.0583 10 16.75 10ZM16.75 20.5C14.2688 20.5 12.25 18.4814 12.25 16C12.25 13.5186 14.2688 11.5 16.75 11.5C19.2312 11.5 21.25 13.5186 21.25 16C21.25 18.4814 19.2312 20.5 16.75 20.5Z" fill="#292929"/>
<path fill-rule="evenodd" clip-rule="evenodd" d="M19.0064 14.2326C18.9404 14.2233 18.8731 14.2381 18.8171 14.2745C18.5776 14.4348 18.3485 14.6101 18.1312 14.7994C18.0042 14.9064 17.8812 15.0079 17.7602 15.0994C17.6602 14.9215 17.5602 14.7319 17.4601 14.5424C17.3041 14.2474 17.1476 13.9514 16.9861 13.6925C16.8948 13.5622 16.7152 13.5307 16.585 13.6221C16.5576 13.6413 16.5338 13.6651 16.5147 13.6925C16.3492 13.961 16.1887 14.2624 16.0306 14.562C15.9332 14.7459 15.8366 14.9289 15.7397 15.1004C15.6187 15.0079 15.4962 14.9055 15.3697 14.8005C15.1522 14.6101 14.9231 14.4334 14.6837 14.2714C14.5551 14.1884 14.3837 14.2253 14.3007 14.3538C14.2644 14.41 14.2497 14.4773 14.2592 14.5434C14.3257 15.0229 14.7556 16.4289 14.8137 16.8435C14.8323 16.9803 14.949 17.0825 15.0872 17.083L18.4132 17.0849C18.5517 17.085 18.6689 16.9827 18.6877 16.8454C18.7457 16.427 19.1762 15.0184 19.2422 14.5455C19.2635 14.394 19.1579 14.2539 19.0064 14.2326Z" fill="#292929"/>
<path fill-rule="evenodd" clip-rule="evenodd" d="M18.3537 17.7175H15.1467C14.9499 17.7101 14.7845 17.8637 14.7771 18.0604C14.7697 18.2572 14.9233 18.4226 15.12 18.43C15.1289 18.4303 15.1378 18.4303 15.1467 18.43H18.3537C18.5505 18.4226 18.704 18.2572 18.6966 18.0604C18.6896 17.874 18.5401 17.7245 18.3537 17.7175Z" fill="#292929"/>
<path d="M13 6C13.6904 6 14.25 5.44036 14.25 4.75C14.25 4.05964 13.6904 3.5 13 3.5C12.3096 3.5 11.75 4.05964 11.75 4.75C11.75 5.44036 12.3096 6 13 6Z" fill="#292929"/>
<path opacity="0.3" fill-rule="evenodd" clip-rule="evenodd" d="M16.75 4.71679C16.75 3.21875 15.5032 2 13.9707 2H13.75V3.75561C14.0519 3.98382 14.25 4.34241 14.25 4.75C14.25 5.03272 14.1526 5.29059 13.9944 5.5H16.75V4.71679Z" fill="#292929"/>
<path opacity="0.3" d="M10.25 2H6.75V5.5H10.25V2Z" fill="#292929"/>
<path opacity="0.3" fill-rule="evenodd" clip-rule="evenodd" d="M13 6C12.5924 6 12.2338 5.80194 12.0056 5.5H10.25V8.06671L11.9805 9.28271L13.5776 7.63281C13.6318 7.5769 13.691 7.5282 13.75 7.47919V5.74439C13.5406 5.9026 13.2827 6 13 6Z" fill="#292929"/>
<path opacity="0.3" fill-rule="evenodd" clip-rule="evenodd" d="M3.25 8.77075L5.46411 6.55664C5.81915 6.20172 6.28369 6.02264 6.75 6.01703V5.5H3.25V8.77075Z" fill="#292929"/>
<path fill-rule="evenodd" clip-rule="evenodd" d="M13.9707 0.500015H6.02929C3.66968 0.500015 1.75 2.39161 1.75 4.71681V10.2832C1.75 12.6084 3.66968 14.5 6.02929 14.5H8C8.41431 14.5 8.75 14.1641 8.75 13.75C8.75 13.336 8.41431 13 8 13H6.02929C4.68991 13 3.56893 12.069 3.30767 10.8342L6.52465 7.61719C6.66162 7.48096 6.88452 7.48096 7.021 7.61719C7.05152 7.64795 11.6426 10.8784 11.6426 10.8784C11.9443 11.0894 12.3557 11.0513 12.6125 10.7861L14.655 8.67628C14.835 8.49073 15.1074 8.42677 15.3498 8.51661L17.2437 9.20508C17.4736 9.28907 17.7297 9.2544 17.9304 9.11426C18.1306 8.97413 18.25 8.74463 18.25 8.5V4.71679C18.25 2.3916 16.3303 0.500015 13.9707 0.500015ZM16.75 7.42921L15.8625 7.10646C15.0649 6.81788 14.168 7.02345 13.5776 7.63282L11.9805 9.28273L8.02881 6.50587C7.30396 5.83643 6.16846 5.85255 5.46412 6.55665L3.25001 8.77076V4.71681C3.25001 3.21876 4.49683 2.00002 6.0293 2.00002H13.9707C15.5032 2.00002 16.75 3.21876 16.75 4.71681V7.42921Z" fill="#292929"/>
</g>
<defs>
<clipPath id="clip0_425_22779">
<rect width="22" height="22" fill="white" transform="translate(0.75)"/>
</clipPath>
</defs>
</svg>
