<svg width="44" height="44" viewBox="0 0 44 44" fill="none" xmlns="http://www.w3.org/2000/svg">
<path d="M17.8867 37.9727H12.4062C8.82226 37.9727 5.90624 35.0566 5.90624 31.4727V20.5606C5.90624 20.3599 5.91637 20.1607 5.93444 19.9629H12.4277C16.5635 19.9629 19.9277 16.5986 19.9277 12.4629V6.02954C19.9421 6.02954 19.9563 6.02734 19.9707 6.02734H29.3555C32.9395 6.02734 35.8555 8.94336 35.8555 12.5273V16.335C35.8555 17.1631 36.5273 17.835 37.3555 17.835C38.1836 17.835 38.8555 17.1631 38.8555 16.335V12.5273C38.8555 7.28906 34.5938 3.02734 29.3555 3.02734H19.9707C17.3633 3.02734 14.8428 4.11621 13.0557 6.01464L5.49023 14.0469C4.50952 15.0886 3.79614 16.3218 3.36853 17.6533C3.21783 17.8872 3.12793 18.1641 3.12793 18.4629C3.12793 18.4836 3.13324 18.5029 3.13409 18.5237C2.98901 19.1873 2.90625 19.8682 2.90625 20.5606V31.4727C2.90625 36.7109 7.16797 40.9727 12.4062 40.9727H17.8867C18.7148 40.9727 19.3867 40.3008 19.3867 39.4727C19.3867 38.6445 18.7148 37.9727 17.8867 37.9727ZM15.2393 8.07129C15.7302 7.55029 16.3041 7.12329 16.9277 6.79273V12.4629C16.9277 14.9444 14.9092 16.9629 12.4277 16.9629H6.99713C7.19818 16.6611 7.42126 16.3718 7.67383 16.1035L15.2393 8.07129Z" fill="#181818"/>
<path d="M30.0918 18.9668C24.0244 18.9668 19.0889 23.9023 19.0889 29.9697C19.0889 36.0371 24.0244 40.9727 30.0918 40.9727C36.1582 40.9727 41.0937 36.0371 41.0937 29.9697C41.0937 23.9023 36.1582 18.9668 30.0918 18.9668ZM30.0918 37.9727C25.6787 37.9727 22.0889 34.3828 22.0889 29.9697C22.0889 25.5566 25.6787 21.9668 30.0918 21.9668C34.5039 21.9668 38.0937 25.5566 38.0937 29.9697C38.0937 34.3828 34.5039 37.9727 30.0918 37.9727Z" fill="#181818"/>
<path d="M33.9043 30.5332L31.501 28.8545V26.7236C31.501 25.8955 30.8291 25.2236 30.001 25.2236C29.1729 25.2236 28.501 25.8955 28.501 26.7236V29.6367C28.501 30.127 28.7402 30.5859 29.1416 30.8662L32.1855 32.9922C32.4473 33.1748 32.7471 33.2627 33.0439 33.2627C33.5166 33.2627 33.9834 33.0391 34.2744 32.6221C34.749 31.9424 34.583 31.0068 33.9043 30.5332Z" fill="#181818"/>
</svg>
