<svg width="44" height="44" viewBox="0 0 44 44" fill="none" xmlns="http://www.w3.org/2000/svg">
<path d="M32.2305 13.5615C30.2813 11.6123 27.1104 11.6123 25.1611 13.5615C23.5862 15.1389 23.3084 17.5068 24.2826 19.3892L13.6533 30.0186C13.0674 30.6045 13.0674 31.5537 13.6533 32.1396C13.9463 32.4326 14.3301 32.5791 14.7139 32.5791C15.0977 32.5791 15.4815 32.4326 15.7744 32.1396L15.864 32.05L17.2764 33.4629C17.5693 33.7559 17.9531 33.9023 18.3369 33.9023C18.7207 33.9023 19.1045 33.7559 19.3975 33.4629C19.9834 32.8779 19.9834 31.9277 19.3975 31.3418L17.9851 29.929L19.6775 28.2366L21.0899 29.6494C21.3828 29.9424 21.7666 30.0889 22.1504 30.0889C22.5342 30.0889 22.918 29.9424 23.211 29.6494C23.7969 29.0645 23.7969 28.1143 23.211 27.5283L21.7986 26.1155L26.4037 21.5103C27.1226 21.8828 27.9048 22.0918 28.6963 22.0918C29.9766 22.0918 31.2559 21.6045 32.2305 20.6299C34.1797 18.6817 34.1797 15.5098 32.2305 13.5615ZM30.1094 18.5088C29.3301 19.2881 28.0625 19.2881 27.2832 18.5088C26.5049 17.7295 26.5049 16.4619 27.2832 15.6826C28.0625 14.9033 29.3301 14.9033 30.1094 15.6826C30.8887 16.4619 30.8887 17.7295 30.1094 18.5088Z" fill="#181818"/>
<path d="M30.4746 3.02734H21.0908C18.4834 3.02734 15.9619 4.11621 14.1748 6.01464L6.60937 14.0469C5.62866 15.0886 4.91528 16.3218 4.48767 17.6533C4.33691 17.8872 4.24707 18.1641 4.24707 18.4629C4.24707 18.4836 4.25244 18.5029 4.25317 18.5237C4.10815 19.1873 4.02539 19.8682 4.02539 20.5606V31.4727C4.02539 36.7109 8.28711 40.9727 13.5254 40.9727H30.4912C35.7207 40.9727 39.9746 36.7188 39.9746 31.4893V12.5273C39.9746 7.28906 35.7129 3.02734 30.4746 3.02734ZM16.3584 8.07129C16.8496 7.55005 17.4238 7.1228 18.0478 6.79224V12.4629C18.0478 14.9443 16.0293 16.9629 13.5478 16.9629H8.11621C8.31738 16.6611 8.5404 16.3718 8.79297 16.1035L16.3584 8.07129ZM36.9746 31.4893C36.9746 35.0645 34.0664 37.9727 30.4912 37.9727H13.5254C9.94141 37.9727 7.02539 35.0566 7.02539 31.4727V20.5606C7.02539 20.3599 7.03552 20.1607 7.05359 19.9629H13.5478C17.6836 19.9629 21.0478 16.5986 21.0478 12.4629V6.02954C21.0622 6.02954 21.0764 6.02734 21.0908 6.02734H30.4746C34.0586 6.02734 36.9746 8.94336 36.9746 12.5273V31.4893Z" fill="#181818"/>
</svg>
