<svg width="44" height="44" viewBox="0 0 44 44" fill="none" xmlns="http://www.w3.org/2000/svg">
<g clip-path="url(#clip0_683_9283)">
<path d="M16.9323 12.8099L20.3 9.18216V25.2521C20.3 25.7029 20.4791 26.1353 20.7979 26.4541C21.1167 26.7729 21.5491 26.952 21.9999 26.952C22.4508 26.952 22.8832 26.7729 23.202 26.4541C23.5208 26.1353 23.6999 25.7029 23.6999 25.2521V9.18216L27.0676 12.8099C27.2196 12.9736 27.4024 13.1056 27.6055 13.1987C27.8085 13.2917 28.0279 13.3437 28.2512 13.352C28.4744 13.3602 28.697 13.3243 28.9064 13.2465C29.1157 13.1687 29.3077 13.0503 29.4714 12.8983C29.635 12.7463 29.7671 12.5635 29.8601 12.3604C29.9531 12.1574 30.0052 11.938 30.0134 11.7147C30.0216 11.4915 29.9858 11.2689 29.9079 11.0595C29.8301 10.8502 29.7118 10.6582 29.5597 10.4945L23.246 3.69463C23.0827 3.53046 22.8885 3.40019 22.6747 3.31129C22.4608 3.2224 22.2315 3.17664 21.9999 3.17664C21.7684 3.17664 21.5391 3.2224 21.3252 3.31129C21.1114 3.40019 20.9172 3.53046 20.7539 3.69463L14.4401 10.4945C14.1331 10.825 13.9699 11.2639 13.9865 11.7147C14.0031 12.1655 14.1981 12.5913 14.5285 12.8983C14.859 13.2054 15.2979 13.3685 15.7487 13.352C16.1995 13.3354 16.6253 13.1404 16.9323 12.8099Z" fill="#181818"/>
<path d="M37.2996 18.4521C36.8487 18.4521 36.4163 18.6313 36.0975 18.9501C35.7787 19.2689 35.5996 19.7013 35.5996 20.1521V30.352C35.5996 31.7046 35.0623 33.0018 34.1059 33.9582C33.1495 34.9146 31.8523 35.4519 30.4997 35.4519H13.4999C12.1473 35.4519 10.8501 34.9146 9.8937 33.9582C8.93727 33.0018 8.39996 31.7046 8.39996 30.352V20.1521C8.39996 19.7013 8.22085 19.2689 7.90205 18.9501C7.58324 18.6313 7.15084 18.4521 6.69998 18.4521C6.24912 18.4521 5.81672 18.6313 5.49791 18.9501C5.1791 19.2689 5 19.7013 5 20.1521V30.352C5.0027 32.6055 5.89909 34.7659 7.49254 36.3594C9.086 37.9528 11.2464 38.8492 13.4999 38.8519H30.4997C32.7532 38.8492 34.9136 37.9528 36.507 36.3594C38.1005 34.7659 38.9969 32.6055 38.9996 30.352V20.1521C38.9996 19.7013 38.8205 19.2689 38.5017 18.9501C38.1829 18.6313 37.7505 18.4521 37.2996 18.4521Z" fill="#181818"/>
</g>
<defs>
<clipPath id="clip0_683_9283">
<rect width="44" height="44" fill="white"/>
</clipPath>
</defs>
</svg>
