<?xml version="1.0" encoding="UTF-8"?>
<svg id="ICONS" xmlns="http://www.w3.org/2000/svg" width="44" height="44" viewBox="0 0 44 44">
  <defs>
    <style>
      .fill {
        fill: #222;
      }
    </style>
  </defs>
  <path class="fill" d="m37.01074,13.75879l-8.62695-9.3457c-1.41553-1.5332-3.42383-2.41309-5.51074-2.41309h-10.37305C7.26172,2,3,6.26172,3,11.5v3c0,.82812.67139,1.5,1.5,1.5s1.5-.67188,1.5-1.5v-3c0-3.58398,2.91602-6.5,6.5-6.5h9.5v6.5c0,4.13574,3.36426,7.5,7.5,7.5h6.5v11.5c0,3.58398-2.91602,6.5-6.5,6.5H12.5c-3.58398,0-6.5-2.91602-6.5-6.5,0-.82812-.67139-1.5-1.5-1.5s-1.5.67188-1.5,1.5c0,5.23828,4.26172,9.5,9.5,9.5h17c5.23828,0,9.5-4.26172,9.5-9.5v-11.6543c0-1.89062-.70654-3.69727-1.98926-5.08691Zm-12.01074-2.25879v-5.93848c.43329.23364.84021.5188,1.17969.88672l8.62695,9.3457c.05927.06421.10236.13892.15747.20605h-5.46411c-2.48145,0-4.5-2.01855-4.5-4.5Z"/>
  <path class="fill" d="m20,17.5c-.82861,0-1.5.67188-1.5,1.5v1.4751c-1.95801-2.04395-4.67261-3.23877-7.54541-3.23877-4.02295,0-7.73486,2.35059-9.45605,5.9873-.20752.43848-.38623.89551-.53027,1.36035-.24609.79102.1958,1.63184.98682,1.87793.14844.0459.29834.06738.4458.06738.63965,0,1.23193-.41211,1.43164-1.05469.10303-.33008.22949-.65527.37744-.9668,1.22803-2.59473,3.87549-4.27148,6.74463-4.27148,2.026,0,3.94086.83496,5.33411,2.26367h-1.2887c-.82861,0-1.5.67188-1.5,1.5s.67139,1.5,1.5,1.5h5c.82861,0,1.5-.67188,1.5-1.5v-5c0-.82812-.67139-1.5-1.5-1.5Z"/>
</svg>