<svg width="44" height="44" viewBox="0 0 44 44" fill="none" xmlns="http://www.w3.org/2000/svg">
<path d="M36.5049 3H19.5005C16.4678 3 14.0005 5.46777 14.0005 8.5V12H7.49805C4.46534 12 1.99805 14.4678 1.99805 17.5V28.5918C1.99805 31.457 4.20069 33.8174 7.00147 34.0693V37.8828C7.00147 38.8545 7.54542 39.7178 8.42139 40.1377C8.76953 40.3047 9.13965 40.3867 9.50635 40.3867C10.0625 40.3867 10.6118 40.1982 11.0674 39.832L18.2134 34.0918H24.5029C27.5356 34.0918 30.0029 31.624 30.0029 28.5918V27.928L32.9946 30.3311C33.4502 30.6963 33.999 30.8848 34.5547 30.8848C34.9219 30.8848 35.2925 30.8027 35.6406 30.6357C36.5161 30.2158 37.0596 29.3525 37.0596 28.3818V24.3662C39.833 24.0869 42.0049 21.7393 42.0049 18.8936V8.50001C42.0049 5.46778 39.5376 3 36.5049 3ZM27.0029 28.5918C27.0029 29.9707 25.8813 31.0918 24.5029 31.0918H17.1577L10.0015 36.8399V31.0918H7.49805C6.11963 31.0918 4.99805 29.9707 4.99805 28.5918V17.5C4.99805 16.1211 6.11963 15 7.49805 15H24.5029C25.8813 15 27.0029 16.1211 27.0029 17.5V28.5918ZM39.0049 18.8936C39.0049 20.2725 37.8833 21.3936 36.5049 21.3936H34.0596V27.3379L30.0029 24.0796V17.5C30.0029 14.4678 27.5356 12 24.5029 12H17.0005V8.50001C17.0005 7.1211 18.1221 6.00001 19.5005 6.00001H36.5049C37.8833 6.00001 39.0049 7.1211 39.0049 8.50001V18.8936Z" fill="#181818"/>
</svg>
