<svg width="44" height="44" viewBox="0 0 44 44" fill="none" xmlns="http://www.w3.org/2000/svg">
<path d="M34.9421 11.1423C34.9761 11.0171 35 10.8879 35 10.752V6.5C35 4.57031 33.4297 3 31.5 3H12.5C10.5703 3 9 4.57031 9 6.5V10.752C9 10.8879 9.02393 11.0171 9.05786 11.1423C5.61023 11.8169 3 14.8577 3 18.5V26.5C3 30.1221 5.58069 33.1521 9 33.8489V38.5C9 40.4297 10.5703 42 12.5 42H31.5C33.4297 42 35 40.4297 35 38.5V33.8489C38.4193 33.1521 41 30.1221 41 26.5V18.5C41 14.8577 38.3898 11.8169 34.9421 11.1423ZM12 6.5C12 6.22461 12.2246 6 12.5 6H31.5C31.7754 6 32 6.22461 32 6.5V10.752C32 10.8369 32.0114 10.9189 32.025 11H11.975C11.9886 10.9189 12 10.8369 12 10.752V6.5ZM32 38.5C32 38.7754 31.7754 39 31.5 39H12.5C12.2246 39 12 38.7754 12 38.5V28.5C12 28.2246 12.2246 28 12.5 28H31.5C31.7754 28 32 28.2246 32 28.5V38.5ZM38 26.5C38 28.4529 36.7422 30.1023 35 30.7236V28.5C35 26.5703 33.4297 25 31.5 25H12.5C10.5703 25 9 26.5703 9 28.5V30.7236C7.25781 30.1023 6 28.4529 6 26.5V18.5C6 16.0185 8.01855 14 10.5 14H33.5C35.9815 14 38 16.0185 38 18.5V26.5Z" fill="#222222"/>
<path d="M32.5 20.5H28.5C27.6719 20.5 27 19.8281 27 19C27 18.1719 27.6719 17.5 28.5 17.5H32.5C33.3281 17.5 34 18.1719 34 19C34 19.8281 33.3281 20.5 32.5 20.5Z" fill="#222222"/>
<path d="M27.5 35H16.5C15.6719 35 15 34.3281 15 33.5C15 32.6719 15.6719 32 16.5 32H27.5C28.3281 32 29 32.6719 29 33.5C29 34.3281 28.3281 35 27.5 35Z" fill="#222222"/>
</svg>
