<svg width="19" height="18" viewBox="0 0 19 18" fill="none" xmlns="http://www.w3.org/2000/svg">
<g clip-path="url(#clip0_16768_14439)">
<path fill-rule="evenodd" clip-rule="evenodd" d="M7.5 15H11.5C12.0527 15 12.5 14.5527 12.5 14C12.5 13.4473 12.0527 13 11.5 13H7.5C6.94727 13 6.5 13.4473 6.5 14C6.5 14.5527 6.94727 15 7.5 15Z" fill="#5258E4"/>
<path fill-rule="evenodd" clip-rule="evenodd" d="M15.5 3H14.5V1C14.5 0.44726 14.0527 0 13.5 0H5.5C4.94727 0 4.5 0.44726 4.5 1V3H3.5C1.8457 3 0.5 4.3457 0.5 6V12C0.5 13.6543 1.8457 15 3.5 15V17C3.5 17.5527 3.94727 18 4.5 18H14.5C15.0527 18 15.5 17.5527 15.5 17V15C17.1543 15 18.5 13.6543 18.5 12V6C18.5 4.3457 17.1543 3 15.5 3ZM6.5 2H12.5V3H6.5V2ZM13.5 16H5.5V11H13.5V16ZM14.5 8H13.5C12.9473 8 12.5 7.55273 12.5 7C12.5 6.44727 12.9473 6 13.5 6H14.5C15.0527 6 15.5 6.44727 15.5 7C15.5 7.55273 15.0527 8 14.5 8Z" fill="#5258E4"/>
</g>
<defs>
<clipPath id="clip0_16768_14439">
<rect width="18" height="18" fill="white" transform="translate(0.5)"/>
</clipPath>
</defs>
</svg>
