<svg xmlns="http://www.w3.org/2000/svg" id="ICONS" width="44" height="44" viewBox="0 0 44 44">
  <defs>
    <style>
      .fill {
        fill: #222;
      }
    </style>
  </defs>
  <rect id="Canvas" fill="#ff13dc" opacity="0" width="44" height="44" /><circle class="fill" cx="25.5" cy="13" r="2.5" />
  <path class="fill" d="m34.67822,25.83789c-2.56781,0-4.95746,1.03662-6.67822,2.75635v-.65967c0-.82812-.67139-1.5-1.5-1.5s-1.5.67188-1.5,1.5v4.78809c0,.82812.67139,1.5,1.5,1.5h4.7998c.82861,0,1.5-.67188,1.5-1.5s-.67139-1.5-1.5-1.5h-1.63916c1.17535-1.4729,3.0163-2.38477,5.01758-2.38477,3.48584,0,6.32178,2.72754,6.32178,6.08105s-2.83594,6.08105-6.32178,6.08105c-1.60645,0-3.13721-.58008-4.31055-1.63281-.6167-.55273-1.56543-.50195-2.11816.11426-.55371.61621-.50244,1.56543.11426,2.11816,1.72461,1.54785,3.96729,2.40039,6.31445,2.40039,5.14014,0,9.32178-4.07422,9.32178-9.08105s-4.18164-9.08105-9.32178-9.08105Z" />
  <path class="fill" d="m30.09375,20.04102l3.50293,2.6416c.45361.34277,1.06348.39844,1.57227.14551.50928-.25391.83105-.77344.83105-1.34277v-9.05176c0-4.65039-3.83936-8.43359-8.55859-8.43359h-15.88281c-4.71924,0-8.55859,3.7832-8.55859,8.43359v12.13281c0,4.65039,3.83936,8.43359,8.55859,8.43359h5.94141c.82861,0,1.5-.67188,1.5-1.5s-.67139-1.5-1.5-1.5h-5.94141c-3.06494,0-5.55859-2.4375-5.55859-5.43359v-1.78271l6.54932-6.54932c.27295-.27344.71875-.27246,1.03516.04102l9.04492,8.35547c.2876.26562.65283.39844,1.01807.39844s.73096-.13281,1.01807-.39844l4.89307-4.52637c.15283-.125.36133-.14746.53516-.06348Zm-6.44678,1.44629l-7.98389-7.37402c-1.44385-1.44434-3.79199-1.44238-5.23486,0l-4.42822,4.42822v-6.10791c0-2.99609,2.49365-5.43359,5.55859-5.43359h15.88281c3.06494,0,5.55859,2.4375,5.55859,5.43359v6.04199l-1.17822-.88867c-.03906-.03027-.07959-.05762-.12158-.08301-1.271-.77441-2.896-.66113-4.11133.33984l-3.94189,3.64355Z" />
</svg>