<svg xmlns="http://www.w3.org/2000/svg" id="ICONS" width="44" height="44" viewBox="0 0 44 44">
  <defs>
    <style>
      .fill {
        fill: #222;
      }
    </style>
  </defs>
  <rect id="Canvas" fill="#ff13dc" opacity="0" width="44" height="44" /><path class="fill" d="m16.5,34h-4c-5.23828,0-9.5-4.26172-9.5-9.5v-12C3,7.26172,7.26172,3,12.5,3h12c5.23828,0,9.5,4.26172,9.5,9.5v5.5c0,.82812-.67139,1.5-1.5,1.5s-1.5-.67188-1.5-1.5v-5.5c0-3.58398-2.91602-6.5-6.5-6.5h-12c-3.58398,0-6.5,2.91602-6.5,6.5v12c0,3.58398,2.91602,6.5,6.5,6.5h4c.82861,0,1.5.67188,1.5,1.5s-.67139,1.5-1.5,1.5Z" />
  <path class="fill" d="m33.38037,23.94238c-2.99884,0-5.78284,1.27319-7.70068,3.37061v-1.19971c0-.82812-.67139-1.5-1.5-1.5s-1.5.67188-1.5,1.5v5.38672c0,.82812.67139,1.5,1.5,1.5h5.3999c.82861,0,1.5-.67188,1.5-1.5s-.67139-1.5-1.5-1.5h-2.20148c1.34003-1.87329,3.56207-3.05762,6.00226-3.05762,4.0249,0,7.29932,3.15332,7.29932,7.0293,0,3.875-3.27441,7.02832-7.29932,7.02832-1.85352,0-3.62012-.66992-4.97461-1.88477-.6167-.55273-1.56543-.50293-2.11816.11426-.55371.61719-.50195,1.56543.11426,2.11816,1.90625,1.71094,4.38428,2.65234,6.97852,2.65234,5.6792,0,10.29932-4.49902,10.29932-10.02832,0-5.53027-4.62012-10.0293-10.29932-10.0293Z" />
  <path class="fill" d="m23.24927,17.22729l-6.80542-3.99683c-1.06384-.62476-2.44385.09399-2.44385,1.27295v7.99316c0,1.17896,1.38,1.89771,2.44385,1.27295l6.80542-3.99683c1.00098-.58789,1.00098-1.95776,0-2.54541Z" />
</svg>