<svg width="44" height="44" viewBox="0 0 44 44" fill="none" xmlns="http://www.w3.org/2000/svg">
<path d="M29.5 3.00001H20.0654C17.4912 3.00001 14.9707 4.10841 13.1494 6.042L5.58398 14.0752C4.60229 15.1172 3.88855 16.3511 3.46106 17.6838C3.31116 17.9172 3.22168 18.1934 3.22168 18.4912C3.22168 18.5117 3.22693 18.5308 3.22778 18.551C3.08264 19.2146 3 19.8953 3 20.5879V31.5C3 36.7383 7.26172 41 12.5 41H17.9814C18.8096 41 19.4814 40.3281 19.4814 39.5C19.4814 38.6719 18.8096 38 17.9814 38H12.5C8.91602 38 6 35.084 6 31.5V20.5879C6 20.3877 6.01013 20.1887 6.02808 19.9912H12.5225C16.6582 19.9912 20.0225 16.627 20.0225 12.4912V6.00244C20.0369 6.0022 20.051 6 20.0654 6H29.5C33.084 6 36 8.94043 36 12.5557V16.3633C36 17.1914 36.6719 17.8633 37.5 17.8633C38.3281 17.8633 39 17.1914 39 16.3633V12.5557C39 7.28711 34.7383 3.00001 29.5 3.00001ZM17.0225 12.4912C17.0225 14.9727 15.0039 16.9912 12.5225 16.9912H7.09058C7.29175 16.6895 7.5149 16.4002 7.76758 16.1318L15.333 8.09864C15.8312 7.56983 16.4048 7.13477 17.0225 6.79713V12.4912Z" fill="#222222"/>
<path d="M30.9365 42C24.8691 42 19.9336 37.0645 19.9336 30.9971C19.9336 24.9297 24.8691 19.9941 30.9365 19.9941C37.0039 19.9941 41.9395 24.9297 41.9395 30.9971C41.9395 37.0645 37.0039 42 30.9365 42ZM30.9365 22.9941C26.5234 22.9941 22.9336 26.584 22.9336 30.9971C22.9336 35.4102 26.5234 39 30.9365 39C35.3496 39 38.9395 35.4102 38.9395 30.9971C38.9395 26.584 35.3496 22.9941 30.9365 22.9941Z" fill="#222222"/>
<path d="M29.9862 36.4687C29.6063 36.4687 29.2392 36.3241 28.9599 36.0624L25.9735 33.2587C25.369 32.6913 25.3397 31.7421 25.9061 31.1386C26.4726 30.5341 27.4227 30.5048 28.0263 31.0712L29.7929 32.7304L33.8007 27.4013C34.2997 26.7372 35.2411 26.6054 35.9013 27.1034C36.5634 27.6015 36.6962 28.5419 36.1991 29.204L31.1854 35.8701C30.9286 36.2109 30.5399 36.4267 30.1151 36.4628C30.0722 36.4667 30.0292 36.4687 29.9862 36.4687Z" fill="#222222"/>
</svg>
