<svg xmlns="http://www.w3.org/2000/svg" id="ICONS" width="44" height="44" viewBox="0 0 44 44">
  <defs>
    <style>
      .fill {
        fill: #222;
      }
    </style>
  </defs>
  <rect id="Canvas" fill="#ff13dc" opacity="0" width="44" height="44" /><path class="fill" d="m40.98291,44h-11.96582c-.69287,0-1.32812-.33398-1.69971-.89258-.35059-.52734-.41455-1.18945-.17041-1.77148l6.22656-14.8418c.27148-.64746.90967-1.06543,1.62646-1.06543.71826,0,1.35693.41895,1.62744,1.06836l6.22559,14.83887c.24414.58203.18018,1.24414-.17041,1.77148-.37158.55859-1.00684.89258-1.69971.89258Zm-10.44189-3h8.91797l-4.45898-10.62793-4.45898,10.62793Zm3.31885-13.3457c.00098.00195.00146.00293.00195.00488l-.00195-.00488Zm2.28125-.00293c-.00049.00098-.00049.00195-.00098.00293l-.00146.00293c.00098-.00195.00195-.00391.00244-.00586Zm-1.38428-.57715h.00977-.00977Z" />
  <circle class="fill" cx="25.5" cy="13" r="2.5" />
  <path class="fill" d="m27.44141,4h-15.88281c-4.71924,0-8.55859,3.7832-8.55859,8.43359v12.13281c0,4.65039,3.83936,8.43359,8.55859,8.43359h13.94141c.82861,0,1.5-.67188,1.5-1.5s-.67139-1.5-1.5-1.5h-13.94141c-3.06494,0-5.55859-2.4375-5.55859-5.43359v-1.78271l6.54932-6.54932c.27295-.27344.71973-.27246,1.03516.04102l9.04492,8.35547c.2876.26562.65283.39844,1.01807.39844s.73096-.13281,1.01807-.39844l4.89307-4.52637c.15186-.125.36133-.14746.53516-.06348l3.50293,2.6416c.4541.34277,1.0625.39844,1.57227.14551.50928-.25391.83105-.77344.83105-1.34277v-9.05176c0-4.65039-3.83936-8.43359-8.55859-8.43359Zm5.55859,14.47559l-1.17822-.88867c-.03906-.03027-.07959-.05762-.12158-.08301-1.27051-.77441-2.89551-.66113-4.11133.33984l-3.94189,3.64355-7.98389-7.37402c-1.44385-1.44434-3.79199-1.44238-5.23486,0l-4.42822,4.42822v-6.10791c0-2.99609,2.49365-5.43359,5.55859-5.43359h15.88281c3.06494,0,5.55859,2.4375,5.55859,5.43359v6.04199Z" />
</svg>