<svg xmlns="http://www.w3.org/2000/svg" id="ICONS" width="44" height="44" viewBox="0 0 44 44">
  <defs>
    <style>
      .fill {
        fill: #222;
      }
    </style>
  </defs>
  <rect id="Canvas" fill="#ff13dc" opacity="0" width="44" height="44" /><path class="fill" d="m21.99652,8.08398l11.69202,29.90796-23.36993.00464,11.67792-29.9126m-.00323-4.08398c-.33081,0-.6665.06909-.98627.21558-.52026.23755-.93848.65576-1.17603,1.17603-.01532.03149-.02887.06396-.04156.09644l-12.4256,31.82788c-.23486.70898-.18066,1.46753.15442,2.13599.33514.66943.91138,1.16797,1.62671,1.40552.29175.0957.59253.14258.82648.14258.0379,0,.07404-.00073.1084-.00342l23.70868-.00464c.06201.00415.12378.0061.18506.0061,1.45868,0,2.70062-1.12891,2.80548-2.6145.0235-.36328-.02167-.72266-.1698-1.15991L24.16467,5.39062c-.40009-.87305-1.26709-1.39062-2.17139-1.39062h0Z" />
</svg>