<svg width="20" height="20" viewBox="0 0 20 20" fill="none" xmlns="http://www.w3.org/2000/svg">
<path d="M0 1.44346V18.5567C0.0111888 19.3623 0.671329 20.0113 1.47692 20.0001H18.5231C19.3287 20.0113 19.9888 19.3623 20 18.5567V1.44346C19.9888 0.637865 19.3287 -0.0110874 18.5231 0.000101089H1.47692C0.671329 -0.0110874 0.0111888 0.637865 0 1.44346ZM5.93007 17.0463H2.96503V7.5022H5.93007V17.0463ZM7.79301 7.5022H10.6294V8.8057H10.6685C11.2448 7.81549 12.3189 7.22248 13.4657 7.26164C16.4699 7.26164 17.0238 9.24206 17.0238 11.8099V17.0463H14.0811V12.4029C14.0811 11.284 14.0811 9.87423 12.5371 9.87423C10.993 9.87423 10.758 11.077 10.758 12.3078V17.0295H7.79301V7.5022ZM4.47552 2.75814C5.42657 2.77493 6.18741 3.55814 6.17063 4.50919C6.15385 5.46024 5.37063 6.22108 4.41958 6.2043C3.47413 6.18751 2.71888 5.42108 2.72448 4.47563C2.72448 3.52458 3.49091 2.75814 4.44196 2.75814C4.45315 2.75814 4.46434 2.75814 4.47552 2.75814Z" fill="#242424"/>
</svg>
