<svg width="20" height="20" viewBox="0 0 20 20" fill="none" xmlns="http://www.w3.org/2000/svg">
<path fill-rule="evenodd" clip-rule="evenodd" d="M10 20.0001C15.5228 20.0001 20 15.523 20 10.0001C20 4.47727 15.5228 0.00012207 10 0.00012207C4.47715 0.00012207 0 4.47727 0 10.0001C0 15.523 4.47715 20.0001 10 20.0001ZM15.1936 4.44457L11.0572 9.14937H11.057L15.5557 15.5557H12.2471L9.21765 11.2417L5.42482 15.5557H4.44458L8.78247 10.622L4.44458 4.44457H7.75317L10.6218 8.52968L14.2134 4.44457H15.1936ZM9.27511 10.0613L9.71463 10.6764V10.6766L12.7082 14.8665H14.2138L10.5453 9.73189L10.1058 9.11676L7.28361 5.16661H5.77802L9.27511 10.0613Z" fill="#242424"/>
</svg>
