<svg width="20" height="20" viewBox="0 0 20 20" fill="none" xmlns="http://www.w3.org/2000/svg">
<path d="M9.99088 0.000146866C4.47063 0.000146866 0 4.50545 0 10.0672C0 15.0141 3.58205 19.2287 8.43587 20.0001V12.9683H5.89789V10.0616H8.43587V7.82574C8.43587 5.29919 9.92979 3.91294 12.2123 3.91294C12.9565 3.91853 13.7007 3.98561 14.4337 4.10858V6.58482H13.1897C12.4011 6.47862 11.6736 7.03759 11.5681 7.83133C11.5514 7.93753 11.5514 8.04933 11.5681 8.15553V10.0616H14.3449L13.9006 12.9683H11.5625V20.0001C17.0161 19.1337 20.737 13.98 19.8762 8.49091C19.1098 3.59433 14.9113 -0.0110321 9.99088 0.000146866Z" fill="#242424"/>
</svg>
