<svg width="20" height="20" viewBox="0 0 20 20" fill="none" xmlns="http://www.w3.org/2000/svg">
<path fill-rule="evenodd" clip-rule="evenodd" d="M10 20.0001C15.5228 20.0001 20 15.523 20 10.0001C20 4.47727 15.5228 0.00012207 10 0.00012207C4.47715 0.00012207 0 4.47727 0 10.0001C0 15.523 4.47715 20.0001 10 20.0001ZM11.7678 5.40393C12.3536 4.81814 13.3033 4.81814 13.8891 5.40393L14.5962 6.11103C15.182 6.69682 15.182 7.64657 14.5962 8.23235L11.7678 11.0608C11.182 11.6466 10.2322 11.6466 9.64645 11.0608L9.2929 10.7072C8.90237 10.3167 8.26921 10.3167 7.87868 10.7072C7.48816 11.0978 7.48816 11.7309 7.87868 12.1214L8.23224 12.475C9.59907 13.8418 11.8151 13.8418 13.182 12.475L16.0104 9.64657C17.3772 8.27973 17.3772 6.06365 16.0104 4.69682L15.3033 3.98971C13.9365 2.62288 11.7204 2.62288 10.3536 3.98971C9.96303 4.38024 9.96303 5.0134 10.3536 5.40393C10.7441 5.79445 11.3772 5.79445 11.7678 5.40393ZM8.23224 14.5963C7.64645 15.1821 6.6967 15.1821 6.11092 14.5963L5.40381 13.8892C4.81802 13.3034 4.81802 12.3537 5.40381 11.7679L8.23224 8.93946C8.81802 8.35367 9.76777 8.35367 10.3536 8.93946L10.7071 9.29301C11.0976 9.68354 11.7308 9.68354 12.1213 9.29301C12.5118 8.90249 12.5118 8.26933 12.1213 7.8788L11.7678 7.52525C10.4009 6.15841 8.18486 6.15841 6.81802 7.52525L3.9896 10.3537C2.62276 11.7205 2.62276 13.9366 3.9896 15.3034L4.6967 16.0105C6.06354 17.3774 8.27961 17.3774 9.64645 16.0105C10.037 15.62 10.037 14.9868 9.64645 14.5963C9.25593 14.2058 8.62276 14.2058 8.23224 14.5963Z" fill="#242424"/>
</svg>
