<svg width="22" height="22" viewBox="0 0 22 22" fill="none" xmlns="http://www.w3.org/2000/svg">
<g id="Frame" clip-path="url(#clip0_5485_15770)">
<path id="iconFill" fill-rule="evenodd" clip-rule="evenodd" d="M20.1697 11.2002C20.6347 9.86629 20.7782 9.64155 20.7782 8.52213V6.1111C20.7782 2.74164 18.0366 0 14.6671 0H9.56874C8.58941 0 7.66797 0.381944 6.97569 1.07421L2.29688 5.75304C1.60401 6.44532 1.22266 7.36675 1.22266 8.34548V14.6667C1.22266 18.0361 3.9643 20.7778 7.33377 20.7778H12.7543C13.2972 21.5405 14.1632 22 15.1005 22C15.9288 22 16.7184 21.6367 17.2669 21.0032C17.2809 20.9871 17.2947 20.9707 17.3082 20.9543C21.4665 15.8886 22.0004 15.6118 22.0004 14.0556C22.0004 12.9987 21.4135 11.7878 20.1697 11.2002ZM8.55599 2.95052V6.11111C8.55599 6.78548 8.00754 7.33333 7.33377 7.33333H4.17317L8.55599 2.95052ZM11.0804 14.7287C11.2973 15.6827 11.9453 16.4895 12.8239 16.9075L12.405 18.0958C12.3756 18.1734 12.3683 18.2545 12.3457 18.3333H7.33377C5.31185 18.3333 3.6671 16.6886 3.6671 14.6667V9.77778H7.33377C9.35569 9.77778 11.0004 8.13303 11.0004 6.11111V2.44444H14.6671C16.689 2.44444 18.3338 4.08919 18.3338 6.11111C18.1857 6.14334 18.0396 6.11111 17.8869 6.11111C17.0574 6.11126 16.2675 6.47515 15.7193 7.10939C15.7048 7.12609 15.6907 7.14311 15.6766 7.16011L11.7513 11.9584C11.1094 12.7217 10.8587 13.7536 11.0804 14.7287ZM19.3722 14.5873L15.4188 19.4032C15.3264 19.5099 15.212 19.5556 15.1004 19.5556C14.8223 19.5556 14.5608 19.2725 14.6968 18.947L15.8863 15.5729L13.8961 14.7101C13.432 14.5087 13.296 13.9079 13.6292 13.5235L17.5687 8.70789C17.661 8.60122 17.7753 8.55557 17.8869 8.55557C18.1651 8.55557 18.4268 8.83845 18.2908 9.16399L17.1146 12.5382L19.1048 13.401C19.5694 13.6024 19.7042 14.203 19.3722 14.5873Z" fill="#292929"/>
</g>
<defs>
<clipPath id="clip0_5485_15770">
<rect width="22" height="22" fill="white"/>
</clipPath>
</defs>
</svg>
