<svg width="23" height="22" viewBox="0 0 23 22" fill="none" xmlns="http://www.w3.org/2000/svg">
<g clip-path="url(#clip0_425_22785)">
<path d="M13.125 6.60033C13.8843 6.60033 14.4999 5.98473 14.4999 5.22534C14.4999 4.46595 13.8843 3.85034 13.125 3.85034C12.3656 3.85034 11.75 4.46595 11.75 5.22534C11.75 5.98473 12.3656 6.60033 13.125 6.60033Z" fill="#292929"/>
<path d="M5.45735 15.95H9.8248C10.0436 15.95 10.2534 15.8631 10.4081 15.7084C10.5629 15.5537 10.6498 15.3438 10.6498 15.125C10.6498 14.9062 10.5629 14.6964 10.4081 14.5417C10.2534 14.387 10.0436 14.3 9.8248 14.3H5.45735C4.65573 14.3087 3.88346 13.9988 3.31019 13.4384C2.73692 12.878 2.40954 12.113 2.39996 11.3114V10.8807L6.00183 7.27877C6.04029 7.24209 6.08572 7.21351 6.13543 7.19474C6.18515 7.17596 6.23813 7.16737 6.29123 7.16948C6.34433 7.17158 6.39646 7.18433 6.44454 7.20698C6.49261 7.22963 6.53564 7.26171 6.57107 7.30132L11.5457 11.8966C11.6981 12.0374 11.8981 12.1156 12.1056 12.1156C12.3131 12.1156 12.5131 12.0374 12.6655 11.8966L15.3571 9.40506C15.3977 9.3718 15.447 9.35086 15.4992 9.34472C15.5513 9.33858 15.6041 9.3475 15.6514 9.37041L17.5763 10.8235C17.6989 10.9154 17.8446 10.9714 17.9972 10.9852C18.1498 10.9989 18.3032 10.9699 18.4403 10.9014C18.5773 10.8329 18.6925 10.7276 18.7731 10.5972C18.8536 10.4669 18.8963 10.3167 18.8963 10.1635V4.63878C18.8858 3.4004 18.3848 2.2167 17.503 1.34717C16.6212 0.477628 15.4306 -0.00679511 14.1923 9.19848e-05H5.45735C4.2184 -0.00767223 3.02697 0.476362 2.14447 1.34599C1.26196 2.21563 0.760463 3.39983 0.75 4.63878V11.3114C0.760463 12.5503 1.26196 13.7345 2.14447 14.6041C3.02697 15.4738 4.2184 15.9578 5.45735 15.95ZM2.39996 4.63878C2.40954 3.83716 2.73692 3.07212 3.31019 2.51173C3.88346 1.95134 4.65573 1.64143 5.45735 1.65009H14.1923C14.9939 1.64143 15.7661 1.95134 16.3394 2.51173C16.9127 3.07212 17.2401 3.83716 17.2496 4.63878V8.51186L16.6017 8.02292C16.5803 8.00566 16.5579 7.98968 16.5346 7.97507C16.1858 7.76506 15.7798 7.67012 15.374 7.70368C14.9682 7.73724 14.5832 7.89761 14.2737 8.16207L12.1056 10.1663L7.7145 6.11057C7.33239 5.72934 6.81466 5.51524 6.2749 5.51524C5.73514 5.51524 5.21742 5.72934 4.83531 6.11057L2.39996 8.54816V4.63878Z" fill="#292929"/>
<path d="M21.0311 12.6501H14.5699C14.3432 12.6509 14.119 12.6964 13.9099 12.7838C13.7009 12.8713 13.5111 12.9991 13.3515 13.16C13.1918 13.3208 13.0654 13.5115 12.9795 13.7212C12.8935 13.9309 12.8497 14.1555 12.8506 14.3821V20.2671C12.8496 20.4938 12.8933 20.7185 12.9791 20.9283C13.065 21.1381 13.1914 21.329 13.3511 21.4899C13.5107 21.6509 13.7006 21.7788 13.9097 21.8663C14.1188 21.9539 14.3432 21.9993 14.5699 22.0001H21.0311C21.2577 21.9993 21.482 21.9539 21.691 21.8664C21.9001 21.7789 22.0899 21.6511 22.2495 21.4903C22.4092 21.3295 22.5356 21.1388 22.6215 20.9291C22.7075 20.7194 22.7513 20.4948 22.7504 20.2682V14.3821C22.7513 14.1555 22.7075 13.9309 22.6215 13.7212C22.5356 13.5115 22.4092 13.3208 22.2495 13.16C22.0899 12.9991 21.9001 12.8713 21.691 12.7838C21.482 12.6964 21.2577 12.6509 21.0311 12.6501ZM17.9891 18.9586C17.8421 19.1618 17.6408 19.3194 17.4084 19.4135C17.13 19.5255 16.8317 19.5798 16.5317 19.573C16.3053 19.575 16.0794 19.5538 15.8574 19.5097C15.6819 19.4755 15.5113 19.4201 15.3492 19.3447C15.3304 19.3336 15.3152 19.3173 15.3055 19.2978C15.2957 19.2783 15.2918 19.2564 15.2942 19.2347V18.4438C15.2934 18.4369 15.2946 18.4298 15.2975 18.4234C15.3004 18.417 15.3049 18.4115 15.3107 18.4075C15.3176 18.4043 15.3252 18.4028 15.3329 18.4034C15.3405 18.404 15.3478 18.4066 15.3541 18.4108C15.5378 18.525 15.7369 18.6123 15.9454 18.6699C16.1442 18.7262 16.3498 18.7552 16.5564 18.7562C16.7443 18.7717 16.9326 18.7313 17.0976 18.6402C17.1472 18.6099 17.1884 18.5675 17.2172 18.517C17.2461 18.4665 17.2617 18.4096 17.2626 18.3514C17.2631 18.2802 17.2441 18.2102 17.2076 18.149C17.1597 18.0771 17.0961 18.017 17.0217 17.973C16.9058 17.902 16.7836 17.842 16.6565 17.7937L16.3265 17.6551C16.098 17.5645 15.8843 17.4403 15.6924 17.2866C15.5536 17.1747 15.4452 17.0296 15.3772 16.8648C15.3189 16.71 15.2896 16.5457 15.2909 16.3802C15.2863 16.1454 15.3511 15.9144 15.4774 15.7164C15.6036 15.5183 15.7856 15.362 16.0004 15.267C16.276 15.1456 16.5754 15.0875 16.8765 15.0971C17.0752 15.0961 17.2737 15.1093 17.4705 15.1367C17.6231 15.1543 17.7717 15.1969 17.9105 15.2626C17.9257 15.2711 17.9381 15.2838 17.9464 15.299C17.9546 15.3143 17.9584 15.3316 17.9572 15.349V16.0997C17.9558 16.1114 17.9499 16.122 17.9407 16.1294C17.9297 16.1404 17.9154 16.1393 17.8973 16.1261C17.7504 16.0506 17.5941 15.9951 17.4326 15.9611C17.252 15.9209 17.0675 15.9008 16.8826 15.9012C16.7731 15.8991 16.6638 15.9102 16.557 15.9342C16.4815 15.9513 16.4088 15.9793 16.3414 16.0172C16.2893 16.0468 16.2466 16.0905 16.2182 16.1432C16.1922 16.1912 16.1784 16.2448 16.178 16.2994C16.1772 16.3673 16.1982 16.4336 16.238 16.4886C16.2927 16.5563 16.3604 16.6123 16.4371 16.6536C16.562 16.7254 16.6905 16.7907 16.8221 16.8494L17.0679 16.9423C17.314 17.0363 17.5449 17.166 17.7532 17.3273C17.9023 17.4438 18.0209 17.5948 18.0986 17.7673C18.1657 17.9283 18.1996 18.1011 18.1981 18.2755C18.2029 18.5211 18.1296 18.7619 17.9886 18.963L17.9891 18.9586ZM19.8816 18.7194C19.9184 18.7556 19.9629 18.783 20.0117 18.7997C20.0606 18.8163 20.1126 18.8218 20.1638 18.8156C20.2038 18.8156 20.2404 18.8145 20.2738 18.8123C20.3093 18.8112 20.3448 18.8079 20.3799 18.8024C20.3858 18.8002 20.3922 18.7993 20.3985 18.7999C20.4048 18.8005 20.4108 18.8025 20.4162 18.8057C20.4224 18.8109 20.4272 18.8175 20.4301 18.825C20.433 18.8325 20.4339 18.8407 20.4327 18.8486V19.3931C20.4327 19.4421 20.4151 19.4707 20.3777 19.4795C20.2905 19.5068 20.2019 19.529 20.1121 19.546C20.0068 19.5647 19.9 19.5735 19.7931 19.5724C19.5467 19.5869 19.3041 19.5062 19.1155 19.3469C19.0262 19.2502 18.9581 19.1358 18.9158 19.0111C18.8734 18.8864 18.8577 18.7543 18.8697 18.6231V16.9676H18.4715C18.4348 16.9676 18.4165 16.9478 18.4165 16.9082L18.4214 16.2543C18.4214 16.2191 18.4412 16.1993 18.4814 16.1993H18.8823C18.8867 16.1239 18.8873 16.0414 18.8939 15.9419C18.9005 15.8423 18.9093 15.7428 18.9203 15.6432C18.9313 15.5437 18.9412 15.4628 18.95 15.4007C18.9544 15.3875 18.9611 15.3752 18.9698 15.3644C18.9809 15.3538 18.9952 15.347 19.0105 15.3451L19.8008 15.2456C19.8114 15.2412 19.8232 15.2412 19.8338 15.2456C19.8426 15.25 19.847 15.2632 19.847 15.2857C19.8382 15.3877 19.8316 15.5261 19.8272 15.701C19.8228 15.8759 19.8233 16.0403 19.8189 16.2037H20.4003C20.4267 16.2037 20.4404 16.2213 20.4404 16.2587L20.4355 16.9258C20.4371 16.9363 20.4345 16.947 20.4284 16.9556C20.4222 16.9643 20.4129 16.9701 20.4025 16.972H19.8151V18.402C19.8029 18.5138 19.8264 18.6267 19.8822 18.7243L19.8816 18.7194Z" fill="#292929"/>
</g>
<defs>
<clipPath id="clip0_425_22785">
<rect width="22" height="22" fill="white" transform="translate(0.75)"/>
</clipPath>
</defs>
</svg>
