<svg width="22" height="22" viewBox="0 0 22 22" fill="none" xmlns="http://www.w3.org/2000/svg">
<g clip-path="url(#clip0_830_311626)">
<path fill-rule="evenodd" clip-rule="evenodd" d="M11 0C4.93484 0 0 4.93423 0 11C0 17.0658 4.93484 22 11 22C17.0656 21.9994 22 17.0655 22 11C22 4.93454 17.0652 0 11 0ZM19.4579 9.77778H16.0923C15.9095 6.94154 15.1073 4.68897 14.1696 3.06033C16.9566 4.17692 19.0169 6.71686 19.4579 9.77778ZM10.9586 19.1062C10.1091 18.1435 8.6332 15.9578 8.35913 12.2222H13.6382C13.3549 15.8447 11.869 18.066 10.9586 19.1062ZM8.36175 9.77778C8.64507 6.15527 10.131 3.93403 11.0414 2.89383C11.8909 3.85645 13.3668 6.04219 13.6409 9.77778H8.36175ZM7.95608 3.01407C7.01905 4.56721 6.11096 6.8004 5.91029 9.77778H2.54209C2.9896 6.6715 5.10626 4.10441 7.95608 3.01407ZM2.54209 12.2222H5.90767C6.09052 15.0585 6.89267 17.311 7.83037 18.9397C5.04338 17.8231 2.98304 15.2831 2.54209 12.2222ZM14.0439 18.9859C14.9809 17.4328 15.889 15.1996 16.0897 12.2222H19.4579C19.0104 15.3285 16.8937 17.8956 14.0439 18.9859Z" fill="#292929"/>
</g>
<defs>
<clipPath id="clip0_830_311626">
<rect width="22" height="22" fill="white"/>
</clipPath>
</defs>
</svg>
