<svg xmlns="http://www.w3.org/2000/svg" width="40" height="40" viewBox="0 0 40 40">
  <g id="EDU_Professionally-designed-templates" transform="translate(-4766 -3358)">
    <rect id="Rectangle_758349" data-name="Rectangle 758349" width="40" height="40" transform="translate(4766 3358)" fill="none"/>
    <g id="SX_Templates_44_N" transform="translate(4766.551 3357.678)">
      <path id="Path_1068554" data-name="Path 1068554" d="M18.141,32.537H10.289a5.678,5.678,0,0,1-5.671-5.671V16.832h5.671a6.551,6.551,0,0,0,6.544-6.544V4.617h8.289a5.679,5.679,0,0,1,5.624,4.939,1.309,1.309,0,1,0,2.6-.334A8.3,8.3,0,0,0,25.121,2h-9.05a6.563,6.563,0,0,0-4.808,2.105L3.736,12.259A6.526,6.526,0,0,0,2,16.7V26.866a8.3,8.3,0,0,0,8.289,8.289h7.852a1.309,1.309,0,1,0,0-2.617ZM5.659,14.035l7.527-8.154a3.9,3.9,0,0,1,1.029-.774v5.181a3.93,3.93,0,0,1-3.926,3.926H5.521C5.569,14.156,5.607,14.091,5.659,14.035Z" transform="translate(0)" fill="#242424"/>
      <path id="Path_1068555" data-name="Path 1068555" d="M37.2,24l-1.33-.6,1.565-3.547q.018-.041.035-.083a3.477,3.477,0,0,0-.335-3.247A3.436,3.436,0,0,0,34.291,15h0a3.381,3.381,0,0,0-2.567,1.2L24,24.883l-.056.065a4.145,4.145,0,0,0-.841,3.561,4.024,4.024,0,0,0,2.27,2.793l1.331.6-1.564,3.547c-.012.027-.024.055-.035.082a3.477,3.477,0,0,0,.335,3.247A3.435,3.435,0,0,0,28.287,40.3a3.382,3.382,0,0,0,2.567-1.2l7.721-8.688.059-.068a4.147,4.147,0,0,0,.837-3.562A4.023,4.023,0,0,0,37.2,24Zm-.582,4.68-7.741,8.71a.759.759,0,0,1-.591.295.841.841,0,0,1-.749-1.178l2.611-5.92-3.694-1.67a1.494,1.494,0,0,1-.5-2.3l7.741-8.71a.758.758,0,0,1,.591-.295.842.842,0,0,1,.75,1.177l-2.612,5.92,3.694,1.67a1.494,1.494,0,0,1,.5,2.3Z" transform="translate(-2.678 -1.658)" fill="#242424"/>
    </g>
  </g>
</svg>
