<svg width="22" height="22" viewBox="0 0 22 22" fill="none" xmlns="http://www.w3.org/2000/svg">
<g id="Frame">
<path id="iconFill" fill-rule="evenodd" clip-rule="evenodd" d="M10.9996 15.245C10.324 15.245 9.77734 14.6983 9.77734 14.0228V7.91168C9.77734 7.23612 10.324 6.68945 10.9996 6.68945C11.6751 6.68945 12.2218 7.23612 12.2218 7.91168V14.0228C12.2218 14.6983 11.6751 15.245 10.9996 15.245Z" fill="#292929"/>
<path id="iconFill_2" fill-rule="evenodd" clip-rule="evenodd" d="M1.22222 16.4668C0.546663 16.4668 0 15.9201 0 15.2446V6.68902C0 6.01346 0.546663 5.4668 1.22222 5.4668C1.89778 5.4668 2.44444 6.01346 2.44444 6.68902V15.2446C2.44444 15.9201 1.89778 16.4668 1.22222 16.4668Z" fill="#292929"/>
<path id="iconFill_3" fill-rule="evenodd" clip-rule="evenodd" d="M20.7769 16.4668C20.1014 16.4668 19.5547 15.9201 19.5547 15.2446V6.68902C19.5547 6.01346 20.1014 5.4668 20.7769 5.4668C21.4525 5.4668 21.9991 6.01346 21.9991 6.68902V15.2446C21.9991 15.9201 21.4525 16.4668 20.7769 16.4668Z" fill="#292929"/>
<path id="iconFill_4" fill-rule="evenodd" clip-rule="evenodd" d="M6.11285 18.9436C5.43729 18.9436 4.89062 18.3969 4.89062 17.7214V4.27691C4.89062 3.60135 5.43729 3.05469 6.11285 3.05469C6.78841 3.05469 7.33507 3.60135 7.33507 4.27691V17.7214C7.33507 18.3969 6.78841 18.9436 6.11285 18.9436Z" fill="#292929"/>
<path id="iconFill_5" fill-rule="evenodd" clip-rule="evenodd" d="M15.8902 20.7782C15.2146 20.7782 14.668 20.2315 14.668 19.556V2.44488C14.668 1.76932 15.2146 1.22266 15.8902 1.22266C16.5657 1.22266 17.1124 1.76932 17.1124 2.44488V19.556C17.1124 20.2315 16.5657 20.7782 15.8902 20.7782Z" fill="#292929"/>
</g>
</svg>
