<svg width="22" height="22" viewBox="0 0 22 22" fill="none" xmlns="http://www.w3.org/2000/svg">
<g id="Frame">
<path id="iconFill" fill-rule="evenodd" clip-rule="evenodd" d="M17.2638 12.0476C17.2414 12.0435 17.2238 12.0291 17.2008 12.0261C15.716 11.8307 14.4675 11.4568 13.6043 11.0761L14.649 10.533C15.4403 10.2823 16.32 10.0902 17.202 9.9732C17.2268 9.96991 17.2456 9.95469 17.2701 9.94992C19.5513 9.87622 21.3879 8.00977 21.3879 5.71094C21.3879 3.36556 19.4794 1.45703 17.134 1.45703C14.7886 1.45703 12.8813 3.36556 12.8813 5.71094C12.8813 6.67027 13.2125 7.54666 13.7502 8.25893C13.7036 8.27594 13.6574 8.29294 13.6129 8.31652L11.1619 9.59126C11.0957 9.55665 11.0351 9.51577 10.968 9.48264L2.37183 5.24902C1.76907 4.95421 1.03502 5.20128 0.735429 5.80642C0.437036 6.41157 0.686491 7.14442 1.29282 7.44282L8.48352 10.9842L7.40513 11.5451L1.29284 14.5553C0.686504 14.8537 0.437036 15.5866 0.735441 16.1917C0.949086 16.6238 1.38236 16.8744 1.83353 16.8744C2.01496 16.8744 2.19877 16.8339 2.37184 16.7491L8.5092 13.7258L11.0456 12.4069C11.0652 12.4221 11.0906 12.432 11.11 12.4475C11.7307 12.9392 12.6575 13.3844 13.7478 13.7431C13.2113 14.4551 12.8813 15.3303 12.8813 16.2884C12.8813 18.6338 14.7886 20.5423 17.134 20.5423C19.4794 20.5423 21.3879 18.6338 21.3879 16.2884C21.3879 13.9875 19.548 12.1181 17.2638 12.0476ZM17.134 3.90148C18.1318 3.90148 18.9434 4.7131 18.9434 5.71094C18.9434 6.70758 18.1318 7.5192 17.134 7.5192C16.1373 7.5192 15.3257 6.70758 15.3257 5.71094C15.3257 4.7131 16.1373 3.90148 17.134 3.90148ZM17.134 18.0979C16.1373 18.0979 15.3257 17.2862 15.3257 16.2884C15.3257 15.2906 16.1373 14.4789 17.134 14.4789C18.1318 14.4789 18.9434 15.2906 18.9434 16.2884C18.9434 17.2862 18.1318 18.0979 17.134 18.0979Z" fill="#292929"/>
</g>
</svg>
