<svg width="23" height="22" viewBox="0 0 23 22" fill="none" xmlns="http://www.w3.org/2000/svg">
<g clip-path="url(#clip0_425_22800)">
<path fill-rule="evenodd" clip-rule="evenodd" d="M21.5 16.5H18.75V13.75C18.75 13.3359 18.4143 13 18 13C17.5857 13 17.25 13.3359 17.25 13.75V16.5H14.5C14.0857 16.5 13.75 16.8359 13.75 17.25C13.75 17.6641 14.0857 18 14.5 18H17.25V20.75C17.25 21.1641 17.5857 21.5 18 21.5C18.4143 21.5 18.75 21.1641 18.75 20.75V18H21.5C21.9143 18 22.25 17.6641 22.25 17.25C22.25 16.8359 21.9143 16.5 21.5 16.5Z" fill="#292929"/>
<path fill-rule="evenodd" clip-rule="evenodd" d="M9.1273 6.78854C9.51573 6.87008 9.89952 6.62936 10.0011 6.24606C10.0582 6.03121 10.6114 4.12985 12.4283 3.62448C12.5184 3.59958 12.6114 3.57809 12.7076 3.56002C12.9963 3.50839 13.2876 3.48989 13.5851 3.50631C14.2699 3.53463 14.9305 3.7612 15.4962 4.1611C16.337 4.75436 16.8338 5.7358 16.8248 6.78512C16.8233 6.94088 16.8072 7.09616 16.777 7.24752C16.7369 7.44869 16.7809 7.65719 16.8983 7.82516C17.016 7.99264 17.1971 8.10494 17.3998 8.1357C18.5646 8.31344 20.2501 9.44723 20.2501 11.0371C20.2516 11.2866 20.2254 11.5371 20.1725 11.7807C20.0846 12.1855 20.3414 12.5849 20.7462 12.6728C20.7999 12.6845 20.8534 12.6899 20.9061 12.6899C21.2513 12.6899 21.5621 12.4502 21.6383 12.0991C21.7145 11.7485 21.7521 11.3881 21.7501 11.0327C21.7501 8.98677 20.0809 7.37447 18.3246 6.81734C18.338 5.25631 17.6036 3.81197 16.3614 2.93599C15.5602 2.3691 14.6217 2.0483 13.6573 2.00777C13.2479 1.98579 12.8373 2.01119 12.4369 2.08394C12.2885 2.11275 12.1552 2.1432 12.0262 2.17915C10.3382 2.64888 9.27233 3.99751 8.76842 5.22114C7.03551 5.05806 5.54748 5.69331 4.69957 6.99409C4.27867 7.67915 4.04528 8.46431 4.0172 9.26509C2.71642 9.57954 1.74425 10.7802 1.75011 12.1855C1.74913 12.2993 1.75475 12.4121 1.76646 12.5244C1.91295 13.9052 3.10826 14.9926 4.4918 14.9999H12.0001C12.4144 14.9999 12.7501 14.664 12.7501 14.2499C12.7501 13.8359 12.4144 13.4999 12.0001 13.4999H4.49596C3.88976 13.4965 3.32311 12.9775 3.25816 12.3666C3.2523 12.3115 3.24962 12.2553 3.25011 12.1889C3.24669 11.3735 3.88243 10.6987 4.66197 10.687L4.74376 10.6953C4.97227 10.7167 5.19005 10.6259 5.34483 10.4614C5.49986 10.2968 5.57237 10.0712 5.54234 9.8476C5.44566 9.12788 5.6002 8.39301 5.96666 7.79633C6.56993 6.87104 7.72252 6.50436 9.1273 6.78854Z" fill="#292929"/>
</g>
<defs>
<clipPath id="clip0_425_22800">
<rect width="22" height="22" fill="white" transform="translate(0.75)"/>
</clipPath>
</defs>
</svg>
