<svg width="22" height="22" viewBox="0 0 22 22" fill="none" xmlns="http://www.w3.org/2000/svg">
<g id="Frame" clip-path="url(#clip0_5485_16915)">
<path id="iconFill" fill-rule="evenodd" clip-rule="evenodd" d="M1.91569 16.2866C1.57432 16.2866 1.23415 16.1433 0.991858 15.8652C0.352098 15.1264 0 14.1107 0 13.003C0 11.3296 0.861764 9.96538 2.14843 9.39247C2.07682 8.17144 2.41938 7.02441 3.15462 6.07671C4.0665 4.90223 5.47373 4.26367 6.8559 4.25651C6.9681 4.21235 7.09342 4.26247 7.21517 4.26963C8.12348 2.25845 10.0559 0.968204 12.3989 0.895396C13.9481 0.791556 15.717 1.45637 16.7459 2.54372C17.8559 3.71104 18.4324 5.06575 18.4169 6.47059C20.5331 6.96592 22 9.11078 22 11.8703C22 13.5449 21.3972 14.9903 20.3039 15.9392C19.7943 16.3832 19.022 16.3295 18.5804 15.8175C18.1376 15.3078 18.1925 14.5356 18.7021 14.094C19.2607 13.6094 19.5555 12.8395 19.5555 11.8703C19.5555 10.1181 18.7296 8.85892 17.5468 8.8088C17.394 8.80283 17.2794 8.79925 17.2078 8.80521L15.686 8.93532L15.8877 7.42306C15.9402 7.03992 15.97 6.75585 15.97 6.57085C16.0035 5.72818 15.6669 4.95594 14.9734 4.22666C14.4387 3.6621 13.3883 3.28493 12.5146 3.33625C10.8126 3.38996 9.59515 4.36272 9.21679 5.94063L8.91601 7.19627L7.67827 6.82627C7.38465 6.73794 7.08387 6.69974 6.78069 6.70094C6.14213 6.70094 5.50715 7.03275 5.08581 7.57583C4.7337 8.0282 4.38519 8.81476 4.717 9.99044L5.15742 11.5457H3.54132C2.90514 11.5457 2.44442 12.1592 2.44442 13.003C2.44442 13.5222 2.58407 13.9698 2.83949 14.2634C3.28112 14.7743 3.22621 15.5453 2.71655 15.9882C2.485 16.1887 2.19976 16.2866 1.91569 16.2866ZM16.1419 14.4138L11.8641 10.1361C11.3867 9.65864 10.6133 9.65864 10.1359 10.1361L5.85807 14.4138C5.38065 14.8913 5.38065 15.6647 5.85807 16.1421C6.3355 16.6196 7.10895 16.6196 7.58637 16.1421L9.77778 13.9507V20.3459C9.77778 21.0215 10.3244 21.5681 11 21.5681C11.6756 21.5681 12.2222 21.0215 12.2222 20.3459V13.9507L14.4136 16.1421C14.6523 16.3809 14.9651 16.5002 15.2778 16.5002C15.5905 16.5002 15.9032 16.3809 16.1419 16.1421C16.6194 15.6647 16.6194 14.8913 16.1419 14.4138Z" fill="#292929"/>
</g>
<defs>
<clipPath id="clip0_5485_16915">
<rect width="22" height="22" fill="white"/>
</clipPath>
</defs>
</svg>
