<?xml version="1.0" encoding="UTF-8"?>
<svg id="ICONS" xmlns="http://www.w3.org/2000/svg" width="44" height="44" viewBox="0 0 44 44">
  <defs>
    <style>
      .fill {
        fill: #222;
      }
    </style>
  </defs>
  <path id="Path_65" data-name="Path 65" class="fill" d="m13,20.47267v-7.94451c.04688-.87706.80022-1.55028,1.68263-1.50368.26998.01426.53192.09628.76137.23841l6.805,3.97573c.70278.38616.95755,1.26546.56904,1.96397-.13237.23798-.3296.43402-.56904.56558l-6.805,3.97573c-.75004.46437-1.73682.23648-2.20403-.50901-.14392-.22965-.22652-.492-.23997-.76223"/>
  <path class="fill" d="m13.4469,30.98633h-1.9469c-5.23828,0-9.5-4.24023-9.5-9.45117v-10.08398C2,6.24023,6.26172,2,11.5,2h12c5.23828,0,9.5,4.24023,9.5,9.45117v7.02246c0,.82812-.67188,1.5-1.5,1.5s-1.5-.67188-1.5-1.5v-7.02246c0-3.55762-2.91602-6.45117-6.5-6.45117h-12c-3.58398,0-6.5,2.89355-6.5,6.45117v10.08398c0,3.55762,2.91602,6.45117,6.5,6.45117h1.9469c.82812,0,1.5.67188,1.5,1.5s-.67188,1.5-1.5,1.5Z"/>
  <path class="fill" d="m13.4469,30.98633h-1.9469c-5.23828,0-9.5-4.24023-9.5-9.45117v-10.08398C2,6.24023,6.26172,2,11.5,2h12c5.23828,0,9.5,4.24023,9.5,9.45117v7.02246c0,.82812-.67188,1.5-1.5,1.5s-1.5-.67188-1.5-1.5v-7.02246c0-3.55762-2.91602-6.45117-6.5-6.45117h-12c-3.58398,0-6.5,2.89355-6.5,6.45117v10.08398c0,3.55762,2.91602,6.45117,6.5,6.45117h1.9469c.82812,0,1.5.67188,1.5,1.5s-.67188,1.5-1.5,1.5Z"/>
  <path class="fill" d="m38.5,41.97857h-15c-3.03223,0-5.5-2.45605-5.5-5.47559v-7.95117c0-3.01953,2.46777-5.47656,5.5-5.47656h15c3.03223,0,5.5,2.45703,5.5,5.47656v7.95117c0,3.01953-2.46777,5.47559-5.5,5.47559Zm-15-15.90332c-1.37891,0-2.5,1.11133-2.5,2.47656v7.95117c0,1.36523,1.12109,2.47559,2.5,2.47559h15c1.37891,0,2.5-1.11035,2.5-2.47559v-7.95117c0-1.36523-1.12109-2.47656-2.5-2.47656h-15Z"/>
  <path id="Path_68" data-name="Path 68" class="fill" d="m28.3,36.9998c-2.31762.17845-4.34197-1.5443-4.5215-3.84787-.01509-.19369-.0166-.38819-.0045-.58209-.08398-2.38805,1.79565-4.39162,4.19828-4.4751.16732-.00581.33484-.00203.50172.01134.58609-.03241,1.17281.05138,1.726.2465.2428.10723.39672.34926.39.61326v1.09929c.00875.21467-.09936.41743-.283.53076-.09065.05409-.19427.08293-.3.08349-.09778-.00063-.19405-.02412-.281-.06858-.40747-.14987-.84093-.21745-1.275-.19879-1.08483-.10187-2.04734.68964-2.14983,1.76788-.01126.11844-.01165.23765-.00117.35615-.08547,1.10338.74517,2.06672,1.85529,2.15168.10642.00814.21333.00788.31971-.0008.42469.01785.84921-.03902,1.254-.16797l.109-.03677c.03219-.01089.066-.01627.1-.0159.0341-.00053.068.00519.1.0169l.155.05268c.20609.10371.33571.31408.335.54368v1.02573c.00901.27824-.15453.53351-.412.64307-.58664.18544-1.20071.27047-1.816.25147"/>
  <path id="Path_69" data-name="Path 69" class="fill" d="m36.3,36.9998c-2.31762.17845-4.34197-1.5443-4.5215-3.84787-.01509-.19369-.0166-.38819-.0045-.58209-.08398-2.38805,1.79565-4.39162,4.19828-4.4751.16732-.00581.33484-.00203.50172.01134.58608-.03225,1.17277.05154,1.726.2465.24204.10796.39535.34965.389.61326v1.09929c.00639.2111-.09767.41043-.275.52679-.09309.05653-.19991.08677-.309.08747-.09616-.00053-.19093-.02297-.277-.0656-.40889-.15108-.84423-.21869-1.28-.19879-1.085-.10007-2.04618.69304-2.14685,1.77146-.01086.11626-.01124.23326-.00115.3496-.08547,1.10338.74517,2.06672,1.85529,2.15168.10642.00814.21333.00788.31971-.0008.42502.01792.84989-.03894,1.255-.16797l.109-.03677c.03218-.01089.066-.01627.1-.0159.03402-.00067.06789.00471.1.0159l.155.05268c.20752.10296.33819.31415.337.54468v1.02573c.00877.27764-.15427.53233-.411.64208-.58779.18651-1.2033.27188-1.82.25246"/>
</svg>