<svg xmlns="http://www.w3.org/2000/svg" role="img" fill="currentColor" viewBox="0 0 18 18" aria-hidden="true" aria-label="">
        <path d="M10.997 3.92c.594-.024 1.023-.49 1-1.041a2.995 2.995 0 0 0-.258-1.103.998.998 0 0 0-1.32-.506.998.998 0 0 0-.506 1.32c.052.117.08.241.086.37a1 1 0 0 0 .998.96ZM7.914 2C8.514 2 9 1.553 9 1s-.486-1-1.086-1h-.828C6.486 0 6 .447 6 1s.486 1 1.086 1h.828ZM1 5c.553 0 1-.484 1-1.082v-.849C2 2.471 1.553 2 1 2s-1 .496-1 1.094v.824C0 4.516.447 5 1 5ZM3.086 2h.828C4.514 2 5 1.553 5 1s-.486-1-1.086-1h-.828C2.486 0 2 .447 2 1s.486 1 1.086 1ZM13 6h-1.016c-.042-.558-.46-1-.984-1-.553 0-1 .486-1 1.086v.828c0 .6.447 1.086 1 1.086h2c1.654 0 3 1.346 3 3v2c0 1.654-1.346 3-3 3h-2a2.988 2.988 0 0 1-2.14-.903l2.553-2.63.05-.055a2.095 2.095 0 0 0-.048-2.863L8.62 6.655C8.18 6.22 7.646 6 7.079 6a2.157 2.157 0 0 0-2.154 2.05 3.269 3.269 0 0 1-.135.007l-.09.002c-.22 0-.419-.027-.61-.083a2.799 2.799 0 0 1-.746-.358 2.15 2.15 0 0 0-1.184-.355c-.054 0-.106.012-.16.016V7a1 1 0 1 0-2 0s.006 2.344.008 2.363c-.012.428.096.86.344 1.243.282.434.597.832.938 1.184.157.163.323.32.498.469.562.483 1.22.89 1.951 1.2.396.172.796.307 1.185.418a2.147 2.147 0 0 0 2.096 2.117C7.934 17.204 9.37 18 11 18h2c2.757 0 5-2.243 5-5v-2c0-2.757-2.243-5-5-5Zm-5.819 7.956a.141.141 0 0 1-.1.044.169.169 0 0 1-.114-.048.157.157 0 0 1-.044-.11V12.29c-.761-.156-1.602-.327-2.4-.67a5.557 5.557 0 0 1-1.437-.884 5.108 5.108 0 0 1-.358-.337 5.883 5.883 0 0 1-.698-.883.167.167 0 0 1 .02-.206.155.155 0 0 1 .195-.022c.413.27.85.481 1.287.607a4.15 4.15 0 0 0 1.312.16c.674-.018 1.34-.173 2.079-.342V8.158c0-.045.017-.084.044-.111A.168.168 0 0 1 7.079 8c.033 0 .068.012.102.044l2.796 2.895c.048.053.018.115 0 .134l-2.796 2.883Z"></path>
      </svg>