<svg xmlns="http://www.w3.org/2000/svg" role="img" fill="currentColor" viewBox="0 0 18 18" aria-hidden="true" aria-label="">
        <circle cx="10.6" cy="4.2" r="1.067"></circle>
        <path d="M11 0H4C1.794 0 0 1.794 0 4v5c0 2.206 1.794 4 4 4h3a1 1 0 1 0 0-2H4c-.991 0-1.81-.727-1.967-1.674L4.591 6.77a.14.14 0 0 1 .195-.001L7.548 9.53a.748.748 0 0 0 1.06 0l1.854-1.852a.75.75 0 1 0-1.06-1.06L8.078 7.938 5.846 5.706a1.642 1.642 0 0 0-2.315.001L2 7.238V4c0-1.103.897-2 2-2h7c1.103 0 2 .897 2 2v4a1 1 0 1 0 2 0V4c0-2.206-1.794-4-4-4ZM15.75 14.454a.75.75 0 0 1-.75-.75v-1.573a.13.13 0 0 0-.13-.131h-1.575a.75.75 0 0 1 0-1.5h1.574c.9 0 1.631.731 1.631 1.63v1.574a.75.75 0 0 1-.75.75Z"></path>
        <path d="M16.978 15H12.13a.131.131 0 0 1-.131-.13v-4.848a.75.75 0 0 0-1.5 0v.478h-.477a.75.75 0 0 0 0 1.5h.477v2.87c0 .899.732 1.63 1.631 1.63H15v.655a.75.75 0 0 0 1.5 0V16.5h.478a.75.75 0 0 0 0-1.5Z"></path>
      </svg>