<svg xmlns="http://www.w3.org/2000/svg" id="ICONS" width="44" height="44" viewBox="0 0 44 44">
  <defs>
    <style>
      .fill {
        fill: #222;
      }
    </style>
  </defs>
  <rect id="Canvas" fill="#ff13dc" opacity="0" width="44" height="44" /><circle class="fill" cx="24.4234" cy="15.49988" r="2.10775" />
  <path class="fill" d="m28.5,8H10.5c-3.03223,0-5.5,2.46777-5.5,5.5v14c0,3.03223,2.46777,5.5,5.5,5.5h4.96015c.82812,0,1.5-.67188,1.5-1.5s-.67188-1.5-1.5-1.5h-4.96015c-1.37891,0-2.5-1.12109-2.5-2.5v-2.89746l5.46777-5.10547,4.2041,4.17188c.58887.58594,1.53809.5791,2.12109-.00781.58398-.58789.58008-1.53809-.00781-2.12109l-4.30566-4.27246c-1.07129-1.02539-2.73633-1.08105-3.93457-.07617l-3.54492,3.30811v-6.99951c0-1.37891,1.12109-2.5,2.5-2.5h18c1.37891,0,2.5,1.12109,2.5,2.5v1.99988c0,.82812.67188,1.5,1.5,1.5s1.5-.67188,1.5-1.5v-1.99988c0-3.03223-2.46777-5.5-5.5-5.5Z" />
  <path class="fill" d="m17.4203,38h-.9203c-.82812,0-1.5-.67188-1.5-1.5s.67188-1.5,1.5-1.5h.9203c.82812,0,1.5.67188,1.5,1.5s-.67188,1.5-1.5,1.5Zm-5.46387,0h-2.66602c-.13477,0-.26758-.00293-.40039-.00781-.82715-.03711-1.46875-.7373-1.43262-1.56543.03711-.82715.73047-1.51562,1.56543-1.43164.08789.00391.17773.00488.26758.00488h2.66602c.82812,0,1.5.67188,1.5,1.5s-.67188,1.5-1.5,1.5Zm-7.58105-1.7793c-.33789,0-.67676-.11328-.95703-.3457-.91992-.76367-1.67773-1.68457-2.25195-2.73828-.39746-.72754-.12891-1.63867.59766-2.03516.72754-.39648,1.63867-.12891,2.03516.59766.39258.71973.90918,1.34766,1.53516,1.86719.6377.5293.72559,1.47559.19629,2.1123-.29688.35742-.72461.54199-1.15527.54199Zm-2.86914-7.13867C.67812,29.08203.00624,28.41016.00624,27.58203v-3c0-.82812.67188-1.5,1.5-1.5s1.5.67188,1.5,1.5v3c0,.82812-.67188,1.5-1.5,1.5Zm0-8C.67812,21.08203.00624,20.41016.00624,19.58203v-3c0-.82812.67188-1.5,1.5-1.5s1.5.67188,1.5,1.5v3c0,.82812-.67188,1.5-1.5,1.5Zm36-2.06203c-.82812,0-1.5-.67188-1.5-1.5v-1.36863c0-.82812.67188-1.5,1.5-1.5s1.5.67188,1.5,1.5v1.36863c0,.82812-.67188,1.5-1.5,1.5ZM1.55214,13.08496c-.05176,0-.10449-.00293-.15723-.00781-.82422-.08594-1.42285-.82324-1.33691-1.64746.12402-1.19238.46582-2.33398,1.01562-3.39258.38184-.73438,1.28613-1.02148,2.02246-.63965.73535.38184,1.02148,1.28711.63965,2.02246-.375.72266-.6084,1.50391-.69336,2.32031-.08008.77148-.73145,1.34473-1.49023,1.34473Zm35.85254-.42773c-.72461,0-1.3623-.52637-1.47949-1.26562-.12793-.80859-.40332-1.5752-.81836-2.27832-.4209-.71387-.18359-1.63379.5293-2.05469.71289-.41797,1.63281-.18457,2.05469.5293.60742,1.03027,1.01074,2.15234,1.19727,3.33496.12988.81836-.42871,1.58691-1.24707,1.71582-.0791.0127-.1582.01855-.23633.01855ZM5.91347,6.78418c-.55371,0-1.08594-.30762-1.34668-.83789-.36621-.74414-.05957-1.64258.68359-2.00781,1.08105-.53223,2.24023-.84082,3.44434-.91895.82617-.05371,1.54004.57324,1.59375,1.40039.05371.82617-.57324,1.54004-1.40039,1.59375-.80957.05176-1.58789.25977-2.31348.61621-.21289.10547-.43848.1543-.66113.1543Zm26.79395-.17969c-.19434,0-.39258-.03809-.58398-.11914-.74316-.31445-1.5332-.47754-2.34766-.48535-.82812-.00781-1.49316-.68555-1.48535-1.51465.00781-.82324.67773-1.48535,1.5-1.48535h.01465c1.20801.01172,2.38184.25488,3.48828.72363.7627.32227,1.11914,1.20312.7959,1.96582-.24219.57227-.79688.91504-1.38184.91504Zm-7.91699-.60449h-3c-.82812,0-1.5-.67188-1.5-1.5s.67188-1.5,1.5-1.5h3c.82812,0,1.5.67188,1.5,1.5s-.67188,1.5-1.5,1.5Zm-8,0h-3c-.82812,0-1.5-.67188-1.5-1.5s.67188-1.5,1.5-1.5h3c.82812,0,1.5.67188,1.5,1.5s-.67188,1.5-1.5,1.5Z" />
  <path class="fill" d="m37.5,30.5h-4v-4c0-.82812-.67188-1.5-1.5-1.5s-1.5.67188-1.5,1.5v4h-4c-.82812,0-1.5.67188-1.5,1.5s.67188,1.5,1.5,1.5h4v4c0,.82812.67188,1.5,1.5,1.5s1.5-.67188,1.5-1.5v-4h4c.82812,0,1.5-.67188,1.5-1.5s-.67188-1.5-1.5-1.5Z" />
  <path class="fill" d="m32,44c-6.61719,0-12-5.38281-12-12s5.38281-12,12-12,12,5.38281,12,12-5.38281,12-12,12Zm0-21c-4.96289,0-9,4.03711-9,9s4.03711,9,9,9,9-4.03711,9-9-4.03711-9-9-9Z" />
</svg>