<?xml version="1.0" encoding="UTF-8"?>
<svg xmlns="http://www.w3.org/2000/svg" width="22" height="22" viewBox="0 0 22 22">
  <g id="b" data-name="Wiki">
    <rect x="-459" y="-3544.42838" width="3230" height="4539" fill="none" stroke="var(--R=232 G=232 B=232, #e8e8e8)" stroke-miterlimit="10" stroke-width="20"/>
  </g>
  <g id="g" data-name="ICONS">
    <path d="m2.74734,4.01411h7.1308c-.20032,2.01318-.9801,3.60522-1.94629,4.8269-1.32043-1.677-2.05426-2.99854-2.0683-3.02417-.26367-.48438-.87158-.66406-1.35645-.39941-.48438.26465-.66357.87109-.3999,1.35547.05109.09424.61584,1.1062,1.61969,2.47729.0603-.00171.11908-.00903.17981-.00903.29248,0,.57861.02344.86035.06055.92798.12012,1.7937.44751,2.56781.91553,1.27435-1.53833,2.32245-3.57593,2.54211-6.20312h1.23462c.55225,0,1-.44727,1-1s-.44775-1-1-1h-4.1311c.00153-.02344.01349-.04297.01349-.06689,0-.59253-.48047-1.073-1.07312-1.073-.59271,0-1.07318.48047-1.07318,1.073,0,.02393.01196.04346.01349.06689H2.74734c-.55225,0-1,.44727-1,1s.44775,1,1,1Z" fill="#222" stroke-width="0"/>
    <path d="m21.22488,17.94184l-2.60889-9.3877c-.2876-1.23047-1.24365-2.05566-2.37988-2.05566h-.00195c-1.13672.00098-2.09277.8291-2.36816,2.01953l-1.33002,4.81738c-.27118-.19434-.53143-.39746-.78802-.60278.28027.51172.508,1.05713.64606,1.64038.12207.51562.18457,1.03418.18457,1.54004,0,1.14551-.29065,2.22412-.80145,3.16699.06134.03174.11523.07422.18457.09326.08887.02441.17871.03613.2666.03613.43848,0,.84082-.29102.96338-.7334l.72119-2.61328h4.659l.72626,2.61426c.14795.53223.70068.84082,1.23096.69629.53223-.14844.84375-.69922.6958-1.23145Zm-6.76007-4.0791l1.33917-4.85254c.07324-.31543.23877-.51172.43213-.51172s.35889.19531.44287.55078l1.33722,4.81348h-3.55139Z" fill="#222" stroke-width="0"/>
    <path d="m10.90041,14.61274c-.52368-2.01465-2.22119-3.55151-4.32556-3.82349-.19867-.02563-.4007-.04028-.60553-.04346-.02112-.00024-.0412-.00464-.06244-.00464-2.85614,0-5.17151,2.31543-5.17151,5.17163s2.31537,5.17139,5.17151,5.17139,5.17151-2.31519,5.17151-5.17139c0-.41187-.05322-.8103-.1441-1.19409-.00861-.03662-.02448-.06982-.03387-.10596Zm-2.79706,1.72412l-3.19,3.58936c-.24677.29712-.69806,0-.55219-.36377l1.07593-2.43994-1.52222-.68799c-.35492-.16064-.45886-.63965-.2041-.94604l3.19-3.58911c.18774-.22632.49286-.10718.5639.12305.00372.01196-.00439.02759-.00195.04028.01227.0625.01929.12817-.00964.20044l-1.07642,2.4397,1.52222.68823c.35535.1604.45844.63916.20447.9458Z" fill="#222" stroke-width="0"/>
  </g>
</svg>