<svg xmlns="http://www.w3.org/2000/svg" width="22" height="22" viewBox="0 0 22 22">
  <g id="SXmock_BusinessCard_22_N" transform="translate(11 11)">
    <g id="Group_749" data-name="Group 749" transform="translate(-11 -11)">
      <rect id="SX_BusinessCard_22_N" width="22" height="22" fill="none" opacity="0.05"/>
      <path id="Path_602457" data-name="Path 602457" d="M16,9H13a1,1,0,0,1,0-2h3a1,1,0,0,1,0,2Zm3,2a1,1,0,0,0-1-1H13a1,1,0,0,0,0,2h5A1,1,0,0,0,19,11Zm0,3a1,1,0,0,0-1-1H13a1,1,0,0,0,0,2h5A1,1,0,0,0,19,14Zm3,1V7a5.006,5.006,0,0,0-5-5H5A5.006,5.006,0,0,0,0,7v8a5.006,5.006,0,0,0,5,5H17A5.006,5.006,0,0,0,22,15ZM17,4a3,3,0,0,1,3,3v8a3,3,0,0,1-3,3H5a3,3,0,0,1-3-3V7A3,3,0,0,1,5,4ZM10,8a3,3,0,1,0-3,3A3,3,0,0,0,10,8ZM8,8A1,1,0,1,1,7,7,1,1,0,0,1,8,8ZM4.911,15.412a2.251,2.251,0,0,1,4.178,0,1,1,0,0,0,1.822-.824A4.335,4.335,0,0,0,7,12a4.332,4.332,0,0,0-3.911,2.588,1,1,0,0,0,.5,1.323A.986.986,0,0,0,4,16,1,1,0,0,0,4.911,15.412Z" fill="#444"/>
    </g>
  </g>
</svg>
