<svg xmlns="http://www.w3.org/2000/svg" id="ICONS" width="44" height="44" viewBox="0 0 44 44">
  <defs>
    <style>
      .fill {
        fill: #222;
      }
    </style>
  </defs>
  <rect id="Canvas" fill="#ff13dc" opacity="0" width="44" height="44" /><path class="fill" d="m18.79004,40.58203c-.09375,0-.18945-.00879-.28516-.02734-3.77051-.72559-7.16309-2.41797-9.81104-4.89453-3.67139-3.43066-5.69336-8.02051-5.69385-12.92285,0-4.90332,2.02197-9.49414,5.69385-12.92578,3.86377-3.62109,9.06104-5.69922,14.25684-5.69922,4.50098,0,8.646,1.55078,11.67139,4.36719,2.83203,2.64453,3.98389,6.42676,3.0835,10.11719-.19629.80469-1.0083,1.29883-1.8125,1.10156-.80469-.19629-1.29834-1.00781-1.10156-1.8125.63965-2.62305-.18848-5.31934-2.21533-7.21289-2.46631-2.29492-5.88574-3.56055-9.62549-3.56055-4.44189,0-8.89111,1.78223-12.20654,4.88965-3.06006,2.85938-4.74414,6.67188-4.74414,10.73438.00049,4.06348,1.68457,7.87402,4.74268,10.73242,2.23486,2.08984,5.11475,3.52148,8.32959,4.14062.81348.15625,1.3457.94238,1.18945,1.75586-.13818.71777-.7666,1.2168-1.47168,1.2168Z" />
  <ellipse class="fill" cx="19.0623" cy="12.69563" rx="2.56982" ry="2.53755" />
  <ellipse class="fill" cx="12.20945" cy="26.22925" rx="2.56982" ry="2.53755" />
  <ellipse class="fill" cx="27.62836" cy="14.38733" rx="2.56982" ry="2.53755" />
  <ellipse class="fill" cx="12.20945" cy="17.77074" rx="2.56982" ry="2.53755" />
  <path class="fill" d="m32.01514,35.66895c-.12012,0-.24121-.00586-.36279-.01758-1.98926-.19629-3.44775-1.97461-3.25098-3.96484.19629-1.98828,1.97705-3.44043,3.96387-3.25h.00244c1.70947.17285,3.0752,1.54004,3.24854,3.24902.02295.23926.02295.47656,0,.71191-.09521.96582-.56006,1.83496-1.30859,2.44922-.6543.53711-1.45703.82227-2.29248.82227Zm-.00732-5.25c-.8252,0-1.5332.62695-1.61621,1.46484-.08789.8916.56543,1.68945,1.45703,1.77734.43311.03906.85547-.08496,1.19043-.36035.33594-.27539.54395-.66504.58691-1.09766.01025-.10547.01025-.21289,0-.32031-.07764-.76367-.69092-1.37793-1.4585-1.45605-.05371-.00488-.10693-.00781-.15967-.00781Z" />
  <path class="fill" d="m32.00879,44.04395c-1.48926,0-2.37842-1.2666-3.02783-2.19141-.2085-.2959-.55664-.79199-.71729-.89844-.125-.01172-.7583.09082-1.13623.15625-1.15039.19531-2.58398.44043-3.60449-.57324-1.02832-1.02148-.78174-2.46191-.58398-3.61914.06445-.37793.17285-1.00879.12549-1.20801-.07178-.08203-.56738-.42969-.86377-.6377-.9248-.64941-2.19189-1.53906-2.19189-3.02832s1.26709-2.37891,2.19189-3.02832c.29639-.20801.79199-.55566.89844-.7168.01562-.12598-.09229-.75781-.15723-1.13574-.19629-1.15039-.44092-2.58301.57324-3.60449,1.02002-1.02734,2.46045-.78223,3.61865-.58398.37744.06445,1.01221.17871,1.20801.125.08252-.07227.43066-.56836.63916-.86426.64941-.9248,1.53857-2.19141,3.02783-2.19141,1.48877,0,2.37842,1.2666,3.02783,2.19141.20801.29688.55615.79199.71729.89844.12354.00977.7583-.0918,1.13574-.15625,1.15088-.19824,2.58252-.44141,3.60498.57324,1.02783,1.02148.78125,2.46191.5835,3.62012-.06445.37695-.17236,1.00879-.12549,1.20801.07178.08008.56738.42871.86377.63672.92529.64941,2.19238,1.53906,2.19238,3.02832s-1.26709,2.37891-2.19238,3.02832c-.29639.20801-.79199.55664-.89844.7168-.01514.125.09277.75684.15723,1.13477.19678,1.15137.44141,2.58398-.57324,3.60547-1.02148,1.02832-2.46191.78223-3.61865.58398-.37695-.06445-1.00928-.17676-1.20801-.125-.08252.07227-.43066.56738-.63867.86426-.64941.9248-1.53906,2.19141-3.02783,2.19141Zm-3.81689-6.06738c.4292,0,.85742.05859,1.26416.22754.88672.36719,1.46729,1.19434,1.97998,1.92383.15625.22363.38672.55176.57275.76562.18555-.21387.41602-.54199.57275-.76562.51221-.72949,1.09326-1.55664,1.97998-1.92383.91455-.37402,1.93164-.2002,2.82715-.04785.24072.04102.58594.10059.85352.125-.02441-.26758-.08301-.6123-.12402-.85254-.15381-.89941-.32764-1.91895.05029-2.83203.36816-.88672,1.19482-1.46777,1.92432-1.97949.22314-.15723.55176-.3877.76562-.57324-.21387-.18555-.54248-.41602-.76562-.57324-.72949-.51172-1.55615-1.09277-1.92432-1.97852-.37402-.91602-.20068-1.93164-.04736-2.82715.04102-.24121.1001-.58691.125-.85449-.26709.02441-.61133.08301-.85156.12402-.8999.15332-1.92041.32812-2.8335-.05078-.88623-.36719-1.46729-1.19434-1.97949-1.92383-.15674-.22363-.38721-.55176-.57275-.76562-.18604.21387-.4165.54199-.57275.76562-.5127.72949-1.09326,1.55664-1.98047,1.92383-.91504.37402-1.93115.20117-2.82715.04785-.24072-.04102-.58545-.09961-.85352-.125.02441.26758.0835.61133.12451.85156.15332.89941.32764,1.91992-.05078,2.83301-.36768.88672-1.19434,1.46777-1.92383,1.97949-.22314.15723-.55176.3877-.76562.57324.21387.18555.54248.41602.76562.57324.72949.51172,1.55615,1.09277,1.92383,1.97949.37451.91504.20068,1.93066.04736,2.82715-.04102.24023-.1001.58594-.12451.85352.26709-.02441.61133-.08301.85107-.12402.49902-.08496,1.03516-.17676,1.56934-.17676Zm12.86133-5.72656h.00977-.00977Z" />
</svg>