<svg xmlns="http://www.w3.org/2000/svg" id="ICONS" width="44" height="44" viewBox="0 0 44 44">
  <defs>
    <style>
      .fill {
        fill: #222;
      }
    </style>
  </defs>
  <rect id="Canvas" fill="#ff13dc" opacity="0" width="44" height="44" /><path class="fill" d="m19.5,34h-7c-5.23828,0-9.5-4.26172-9.5-9.5v-12C3,7.26172,7.26172,3,12.5,3h12c5.23828,0,9.5,4.26172,9.5,9.5v6.5c0,.82812-.67139,1.5-1.5,1.5s-1.5-.67188-1.5-1.5v-6.5c0-3.58398-2.91602-6.5-6.5-6.5h-12c-3.58398,0-6.5,2.91602-6.5,6.5v12c0,3.58398,2.91602,6.5,6.5,6.5h7c.82861,0,1.5.67188,1.5,1.5s-.67139,1.5-1.5,1.5Z" />
  <path class="fill" d="m23.24927,17.22729l-6.80542-3.99683c-1.06384-.62476-2.44385.09399-2.44385,1.27295v7.99316c0,1.17896,1.38,1.89771,2.44385,1.27295l6.80542-3.99683c1.00098-.58789,1.00098-1.95776,0-2.54541Z" />
  <path class="fill" d="m39.5,35.93457c-.82861,0-1.5-.67188-1.5-1.5v-3.8457c0-.36035-.29346-.6543-.65381-.6543h-3.84619c-.82861,0-1.5-.67188-1.5-1.5s.67139-1.5,1.5-1.5h3.84619c2.01465,0,3.65381,1.63965,3.65381,3.6543v3.8457c0,.82812-.67139,1.5-1.5,1.5Z" />
  <path class="fill" d="m42.5,38h-11.84619c-.36035,0-.65381-.29297-.65381-.65332v-11.84668c0-.82812-.67139-1.5-1.5-1.5s-1.5.67188-1.5,1.5v11.84668c0,2.01465,1.63916,3.65332,3.65381,3.65332h7.34619v1.5c0,.82812.67139,1.5,1.5,1.5s1.5-.67188,1.5-1.5v-1.5h1.5c.82861,0,1.5-.67188,1.5-1.5s-.67139-1.5-1.5-1.5Z" />
</svg>