<svg xmlns="http://www.w3.org/2000/svg" id="ICONS" width="44" height="44" viewBox="0 0 44 44">
  <defs>
    <style>
      .fill {
        fill: #222;
      }
    </style>
  </defs>
  <rect id="Canvas" fill="#ff13dc" opacity="0" width="44" height="44" /><circle class="fill" cx="24.4234" cy="15.49988" r="2.10775" />
  <path class="fill" d="m28.5,8H10.5c-3.03223,0-5.5,2.46777-5.5,5.5v14c0,3.03223,2.46777,5.5,5.5,5.5h6.29042c.82812,0,1.5-.67188,1.5-1.5s-.67188-1.5-1.5-1.5h-6.29042c-1.37891,0-2.5-1.12109-2.5-2.5v-2.89746l5.46777-5.10547,4.2041,4.17188c.58887.58594,1.53809.5791,2.12109-.00781.58398-.58789.58008-1.53809-.00781-2.12109l-4.30566-4.27246c-1.07129-1.02539-2.73633-1.08105-3.93457-.07617l-3.54492,3.30811v-6.99951c0-1.37891,1.12109-2.5,2.5-2.5h18c1.37891,0,2.5,1.12109,2.5,2.5v3.08203c0,.82812.67188,1.5,1.5,1.5s1.5-.67188,1.5-1.5v-3.08203c0-3.03223-2.46777-5.5-5.5-5.5Z" />
  <path class="fill" d="m18.63417,38h-1.67773c-.82812,0-1.5-.67188-1.5-1.5s.67188-1.5,1.5-1.5h1.67773c.82812,0,1.5.67188,1.5,1.5s-.67188,1.5-1.5,1.5Zm-6.67773,0h-2.66602c-.13477,0-.26758-.00293-.40039-.00781-.82715-.03711-1.46875-.7373-1.43262-1.56543.03711-.82715.73047-1.51562,1.56543-1.43164.08789.00391.17773.00488.26758.00488h2.66602c.82812,0,1.5.67188,1.5,1.5s-.67188,1.5-1.5,1.5Zm-7.58105-1.7793c-.33789,0-.67676-.11328-.95703-.3457-.91992-.76367-1.67773-1.68457-2.25195-2.73828-.39746-.72754-.12891-1.63867.59766-2.03516.72754-.39648,1.63867-.12891,2.03516.59766.39258.71973.90918,1.34766,1.53516,1.86719.6377.5293.72559,1.47559.19629,2.1123-.29688.35742-.72461.54199-1.15527.54199Zm-2.86914-7.13867C.67812,29.08203.00624,28.41016.00624,27.58203v-3c0-.82812.67188-1.5,1.5-1.5s1.5.67188,1.5,1.5v3c0,.82812-.67188,1.5-1.5,1.5Zm0-8C.67812,21.08203.00624,20.41016.00624,19.58203v-3c0-.82812.67188-1.5,1.5-1.5s1.5.67188,1.5,1.5v3c0,.82812-.67188,1.5-1.5,1.5Zm36-.43066c-.82812,0-1.5-.67188-1.5-1.5v-3c0-.82812.67188-1.5,1.5-1.5s1.5.67188,1.5,1.5v3c0,.82812-.67188,1.5-1.5,1.5ZM1.55214,13.08496c-.05176,0-.10449-.00293-.15723-.00781-.82422-.08594-1.42285-.82324-1.33691-1.64746.12402-1.19238.46582-2.33398,1.01562-3.39258.38184-.73438,1.28613-1.02148,2.02246-.63965.73535.38184,1.02148,1.28711.63965,2.02246-.375.72266-.6084,1.50391-.69336,2.32031-.08008.77148-.73145,1.34473-1.49023,1.34473Zm35.85254-.42773c-.72461,0-1.3623-.52637-1.47949-1.26562-.12793-.80859-.40332-1.5752-.81836-2.27832-.4209-.71387-.18359-1.63379.5293-2.05469.71289-.41797,1.63281-.18457,2.05469.5293.60742,1.03027,1.01074,2.15234,1.19727,3.33496.12988.81836-.42871,1.58691-1.24707,1.71582-.0791.0127-.1582.01855-.23633.01855ZM5.91347,6.78418c-.55371,0-1.08594-.30762-1.34668-.83789-.36621-.74414-.05957-1.64258.68359-2.00781,1.08105-.53223,2.24023-.84082,3.44434-.91895.82617-.05371,1.54004.57324,1.59375,1.40039.05371.82617-.57324,1.54004-1.40039,1.59375-.80957.05176-1.58789.25977-2.31348.61621-.21289.10547-.43848.1543-.66113.1543Zm26.79395-.17969c-.19434,0-.39258-.03809-.58398-.11914-.74316-.31445-1.5332-.47754-2.34766-.48535-.82812-.00781-1.49316-.68555-1.48535-1.51465.00781-.82324.67773-1.48535,1.5-1.48535h.01465c1.20801.01172,2.38184.25488,3.48828.72363.7627.32227,1.11914,1.20312.7959,1.96582-.24219.57227-.79688.91504-1.38184.91504Zm-7.91699-.60449h-3c-.82812,0-1.5-.67188-1.5-1.5s.67188-1.5,1.5-1.5h3c.82812,0,1.5.67188,1.5,1.5s-.67188,1.5-1.5,1.5Zm-8,0h-3c-.82812,0-1.5-.67188-1.5-1.5s.67188-1.5,1.5-1.5h3c.82812,0,1.5.67188,1.5,1.5s-.67188,1.5-1.5,1.5Z" />
  <path class="fill" d="m32,44c-1.48926,0-2.37891-1.2666-3.02832-2.19238-.20801-.2959-.55566-.79102-.7168-.89746-.13379-.01953-.75781.09082-1.13574.15625-1.15039.19727-2.58398.44043-3.60449-.57324-1.02832-1.02051-.78223-2.46094-.58398-3.61914.06445-.37695.17285-1.00879.125-1.20801-.07227-.08203-.56738-.42969-.86328-.6377-.92578-.64941-2.19238-1.53906-2.19238-3.02832s1.2666-2.37891,2.19238-3.02832c.2959-.20801.79102-.55566.89746-.7168.01562-.12598-.0918-.75781-.15625-1.13574-.19629-1.15137-.44141-2.58301.57324-3.60449,1.02246-1.02734,2.46387-.78027,3.61914-.58398.37695.06543,1.00977.18066,1.20801.125.08203-.07227.42969-.56738.6377-.86328.64941-.92578,1.53906-2.19238,3.02832-2.19238s2.37891,1.2666,3.02832,2.19238c.20801.2959.55566.79102.7168.89746.13184.01758.75781-.0918,1.13574-.15625,1.15137-.19629,2.58398-.44141,3.60449.57324,1.02832,1.02051.78223,2.46094.58398,3.61914-.06445.37695-.17285,1.00879-.125,1.20801.07227.08203.56738.42969.86328.6377.92578.64941,2.19238,1.53906,2.19238,3.02832s-1.2666,2.37891-2.19238,3.02832c-.2959.20801-.79102.55566-.89746.7168-.01562.12598.0918.75781.15625,1.13574.19629,1.15137.44141,2.58301-.57324,3.60449-1.02051,1.02832-2.46191.78223-3.61914.58398-.37598-.06445-1.00488-.17285-1.20801-.125-.08203.07227-.42969.56738-.6377.86328-.64941.92578-1.53906,2.19238-3.02832,2.19238Zm-3.81641-6.06738c.42969,0,.85742.05859,1.26465.22754.88574.36719,1.4668,1.19434,1.97852,1.92383.15723.22363.3877.55176.57324.76562.18555-.21387.41602-.54199.57324-.76562.51172-.72949,1.09277-1.55664,1.97949-1.92383.91504-.37305,1.92969-.2002,2.82715-.04785.24023.04102.58594.10059.85352.125-.02441-.26758-.08301-.61133-.12402-.85156-.15332-.90039-.32812-1.91992.05078-2.83398.36719-.88574,1.19434-1.4668,1.92383-1.97852.22363-.15723.55176-.3877.76562-.57324-.21387-.18555-.54199-.41602-.76562-.57324-.72949-.51172-1.55664-1.09277-1.92383-1.97949-.375-.91504-.20117-1.93066-.04785-2.82715.04102-.24023.10059-.58594.125-.85352-.26758.02441-.61133.08301-.85156.12402-.90039.15332-1.91992.32812-2.83398-.05078-.88574-.36719-1.4668-1.19434-1.97852-1.92383-.15723-.22363-.3877-.55176-.57324-.76562-.18555.21387-.41602.54199-.57324.76562-.51172.72949-1.09277,1.55664-1.97949,1.92383-.91504.37402-1.92969.20117-2.82715.04785-.24023-.04102-.58594-.10059-.85352-.125.02441.26758.08301.61133.12402.85156.15332.90039.32812,1.91992-.05078,2.83398-.36719.88574-1.19434,1.4668-1.92383,1.97852-.22363.15723-.55176.3877-.76562.57324.21387.18555.54199.41602.76562.57324.72949.51172,1.55664,1.09277,1.92383,1.97949.375.91504.20117,1.93066.04785,2.82715-.04102.24023-.10059.58594-.125.85352.26758-.02441.61133-.08301.85156-.12402.49902-.08496,1.03516-.17676,1.56934-.17676Zm12.86035-5.72656h.01074-.01074Z" />
  <path class="fill" d="m32.00684,35.62554c-.12012,0-.24121-.00586-.36328-.01758-1.98926-.19629-3.44727-1.97461-3.25098-3.96484.19629-1.98828,1.95117-3.45215,3.96484-3.25h.00195c1.70898.17285,3.0752,1.53906,3.24805,3.24902.02344.23926.02344.47656,0,.71191-.09473.96582-.55957,1.83496-1.30859,2.44922-.6543.53711-1.45703.82227-2.29199.82227Zm-.00781-5.25c-.8252,0-1.5332.62695-1.61621,1.46484-.08789.8916.56543,1.68945,1.45801,1.77734.42871.03711.85449-.08594,1.18945-.36035.33594-.27539.54395-.66504.58691-1.09766.00977-.10547.00977-.21289,0-.32031-.07715-.76465-.69141-1.37793-1.45898-1.45605-.05273-.00488-.10645-.00781-.15918-.00781Z" />
</svg>