<svg xmlns="http://www.w3.org/2000/svg" id="ICONS" width="44" height="44" viewBox="0 0 44 44">
  <defs>
    <style>
      .fill {
        fill: #222;
      }
    </style>
  </defs>
  <rect id="Canvas" fill="#ff13dc" opacity="0" width="44" height="44" /><path class="fill" d="m22,16.99414c-2.20605,0-4-1.79395-4-4v-3.99414c0-2.20605,1.79395-4,4-4s4,1.79395,4,4v3.99414c0,2.20605-1.79395,4-4,4Zm0-8.99414c-.55176,0-1,.44824-1,1v3.99414c0,.55176.44824,1,1,1s1-.44824,1-1v-3.99414c0-.55176-.44824-1-1-1Z" />
  <path class="fill" d="m28.71387,13.02051c-.81836-.12695-1.58008.4502-1.69824,1.27051-.35645,2.47559-2.5127,4.34277-5.01562,4.34277s-4.65918-1.86719-5.01562-4.34277c-.11816-.82031-.88184-1.39648-1.69824-1.27051-.81934.11719-1.38867.87793-1.27051,1.69824.49377,3.43701,3.16663,6.1355,6.48438,6.77124v1.51001h-.68848c-.82812,0-1.5.67188-1.5,1.5s.67188,1.5,1.5,1.5h4.37695c.82812,0,1.5-.67188,1.5-1.5s-.67188-1.5-1.5-1.5h-.68848v-1.51001c3.31775-.63574,5.9906-3.33423,6.48438-6.77124.11816-.82031-.45117-1.58105-1.27051-1.69824Z" />
  <path class="fill" d="m27.06055,37.43945c-.58594-.58594-1.53516-.58594-2.12109,0l-1.43945,1.43945v-7.37891c0-.82812-.67188-1.5-1.5-1.5s-1.5.67188-1.5,1.5v7.37891l-1.43945-1.43945c-.58594-.58594-1.53516-.58594-2.12109,0s-.58594,1.53516,0,2.12109l4,4c.29297.29297.67676.43945,1.06055.43945s.76758-.14648,1.06055-.43945l4-4c.58594-.58594.58594-1.53516,0-2.12109Z" />
  <path class="fill" d="m30.5,30h-2c-.82812,0-1.5-.67188-1.5-1.5s.67188-1.5,1.5-1.5h2c2.48145,0,4.5-2.01855,4.5-4.5V7.5c0-2.48145-2.01855-4.5-4.5-4.5H13.5c-2.48145,0-4.5,2.01855-4.5,4.5v15c0,2.48145,2.01855,4.5,4.5,4.5h2c.82812,0,1.5.67188,1.5,1.5s-.67188,1.5-1.5,1.5h-2c-4.13574,0-7.5-3.36426-7.5-7.5V7.5C6,3.36426,9.36426,0,13.5,0h17c4.13574,0,7.5,3.36426,7.5,7.5v15c0,4.13574-3.36426,7.5-7.5,7.5Z" />
</svg>