<svg xmlns="http://www.w3.org/2000/svg" id="ICONS" width="44" height="44" viewBox="0 0 44 44">
  <defs>
    <style>
      .fill {
        fill: #222;
      }
    </style>
  </defs>
  <rect id="Canvas" fill="#ff13dc" opacity="0" width="44" height="44" /><path class="fill" d="m27.44141,4h-15.88281c-4.71924,0-8.55859,3.7832-8.55859,8.43359v12.13281c0,4.65039,3.83936,8.43359,8.55859,8.43359h8.94141c.82861,0,1.5-.67188,1.5-1.5s-.67139-1.5-1.5-1.5h-8.94141c-3.06494,0-5.55859-2.4375-5.55859-5.43359v-.78271l6.54932-6.54932c.27295-.27344.71924-.27246,1.03516.04102l9.04492,8.35547c.28857.2666.65381.39844,1.01758.39844.40381,0,.80664-.16211,1.10254-.48242.56201-.6084.52441-1.55762-.08398-2.11914l-9.00244-8.31445c-1.44385-1.44336-3.79199-1.44336-5.23486,0l-4.42822,4.42822v-7.10791c0-2.99609,2.49365-5.43359,5.55859-5.43359h15.88281c3.06494,0,5.55859,2.4375,5.55859,5.43359v7.05176c0,.82812.67139,1.5,1.5,1.5s1.5-.67188,1.5-1.5v-7.05176c0-4.65039-3.83936-8.43359-8.55859-8.43359Z" />
  <circle class="fill" cx="25.5" cy="13.5" r="2.5" />
  <path class="fill" d="m42.51748,29.85059c-.60889-.5625-1.55713-.52441-2.11963.08398l-2.47198,2.67676-1.22235-2.21484c-.32178-.58301-.93994-.94434-1.61377-.94434h-3.61298c.13647-.57471.30804-1.13916.5744-1.60059.21045-.36621,1.03027-.47363,1.59424-.32227.7998.20996,1.62256-.26172,1.83691-1.06152.21387-.80078-.26123-1.62305-1.06152-1.83691-1.71289-.45801-3.96777-.01367-4.96826,1.72168-.58392,1.01221-.85223,2.12451-1.04767,3.09961h-1.52997c-.82861,0-1.5.67188-1.5,1.5s.67139,1.5,1.5,1.5h.93195c-.67426,3.39624-1.90948,9.76172-1.90948,9.76172-.10266.78174.4129,1.51538,1.19989,1.66406.38904.07373.77271-.00781,1.08594-.20142.34772-.21509.60907-.56763.69501-.99829l2.03729-10.22607h3.49603l1.36957,2.48169-3.58636,3.88354c-.56201.6084-.52441,1.55762.08447,2.11914.28857.2666.65332.39844,1.01709.39844.40381,0,.80664-.16211,1.10254-.48242l2.90973-3.15088,1.57709,2.85791c.27393.49609.78613.77539,1.31494.77539.24512,0,.49365-.05957.72314-.18652.72559-.40039.98877-1.3125.58887-2.03809l-2.0592-3.7312,3.14856-3.40942c.56201-.6084.52441-1.55762-.08447-2.11914Z" />
</svg>