<svg width="44" height="44" viewBox="0 0 44 44" fill="none" xmlns="http://www.w3.org/2000/svg">
<path d="M18 24C24.0654 24 29 19.0654 29 13C29 6.93457 24.0654 2 18 2C11.9346 2 7 6.93457 7 13C7 19.0654 11.9346 24 18 24ZM18 5C22.4111 5 26 8.58887 26 13C26 17.4111 22.4111 21 18 21C13.5889 21 10 17.4111 10 13C10 8.58887 13.5889 5 18 5Z" fill="#181818"/>
<path d="M25.5028 29.3018C25.8226 28.5381 25.4618 27.6592 24.6972 27.3398C22.5702 26.4512 20.3197 26 18.0092 26C11.4252 26 5.35731 29.7559 2.17323 35.8008C1.787 36.5342 2.06825 37.4414 2.80165 37.8272C3.02431 37.9443 3.26356 38 3.49892 38C4.03798 38 4.55898 37.709 4.82753 37.1992C7.4911 32.1416 12.5419 29 18.0092 29C19.9208 29 21.7816 29.373 23.5409 30.1074C24.3056 30.4277 25.184 30.0664 25.5028 29.3018Z" fill="#181818"/>
<path d="M40.5285 31.5425C40.2666 31.3592 39.829 31.0513 39.7686 30.9056C39.6984 30.7343 39.7882 30.2061 39.8478 29.8567C39.9874 29.0402 40.1459 28.1143 39.5113 27.4842C38.8804 26.8579 37.9598 27.0163 37.1478 27.1537C36.7977 27.2141 36.2672 27.3046 36.0974 27.2329C35.9487 27.171 35.6408 26.7334 35.4575 26.4715C34.9964 25.8157 34.4237 25 33.5 25C32.5763 25 32.0036 25.8157 31.5425 26.4715C31.3592 26.7334 31.0513 27.171 30.9056 27.2314C30.7328 27.3008 30.2069 27.211 29.8567 27.1522C29.0417 27.0133 28.1151 26.8548 27.4842 27.4887C26.8579 28.1188 27.0156 29.0402 27.1537 29.8522C27.2141 30.2023 27.3039 30.7313 27.2329 30.9026C27.171 31.0513 26.7334 31.3592 26.4715 31.5425C25.8157 32.0036 25 32.5763 25 33.5C25 34.4237 25.8157 34.9964 26.4715 35.4575C26.7334 35.6408 27.171 35.9487 27.2314 36.0944C27.3016 36.2657 27.2118 36.7939 27.1522 37.1433C27.0126 37.9598 26.8541 38.8857 27.4887 39.5158C28.1181 40.1414 29.0402 39.9837 29.8522 39.8463C30.2031 39.7867 30.7328 39.6954 30.9026 39.7671C31.0513 39.829 31.3592 40.2666 31.5425 40.5285C32.0036 41.1843 32.5763 42 33.5 42C34.4237 42 34.9964 41.1843 35.4575 40.5285C35.6408 40.2666 35.9487 39.829 36.0944 39.7686C36.2657 39.6977 36.7932 39.7882 37.1433 39.8478C37.9598 39.9874 38.8857 40.1459 39.5158 39.5113C40.1421 38.8812 39.9844 37.9598 39.8463 37.1478C39.786 36.7977 39.6961 36.2687 39.7671 36.0974C39.829 35.9487 40.2666 35.6408 40.5285 35.4575C41.1843 34.9964 42 34.4237 42 33.5C42 32.5763 41.1843 32.0036 40.5285 31.5425ZM33.5 36.5909C31.7929 36.5909 30.4091 35.2069 30.4091 33.5C30.4091 31.7929 31.7929 30.4091 33.5 30.4091C35.2071 30.4091 36.5909 31.7929 36.5909 33.5C36.5909 35.2069 35.2071 36.5909 33.5 36.5909Z" fill="#181818"/>
</svg>
