<svg xmlns="http://www.w3.org/2000/svg" id="ICONS" width="44" height="44" viewBox="0 0 44 44">
  <defs>
    <style>
      .fill {
        fill: #222;
      }
    </style>
  </defs>
  <rect id="Canvas" fill="#ff13dc" opacity="0" width="44" height="44" /><path class="fill" d="m17.5,34h-5c-5.23828,0-9.5-4.26172-9.5-9.5v-12C3,7.26172,7.26172,3,12.5,3h12c5.23828,0,9.5,4.26172,9.5,9.5v5.5c0,.82812-.67139,1.5-1.5,1.5s-1.5-.67188-1.5-1.5v-5.5c0-3.58398-2.91602-6.5-6.5-6.5h-12c-3.58398,0-6.5,2.91602-6.5,6.5v12c0,3.58398,2.91602,6.5,6.5,6.5h5c.82861,0,1.5.67188,1.5,1.5s-.67139,1.5-1.5,1.5Z" />
  <path class="fill" d="m23.24927,17.22729l-6.80542-3.99683c-1.06384-.62476-2.44385.09399-2.44385,1.27295v7.99316c0,1.17896,1.38,1.89771,2.44385,1.27295l6.80542-3.99683c1.00098-.58789,1.00098-1.95776,0-2.54541Z" />
  <path class="fill" d="m28.49609,41.99902h-.99609c-3.03271,0-5.5-2.24316-5.5-5v-7c0-2.75684,2.46729-5,5.5-5h.99609c.82861,0,1.5.67188,1.5,1.5s-.67139,1.5-1.5,1.5h-.99609c-1.37842,0-2.5.89746-2.5,2v7c0,1.10254,1.12158,2,2.5,2h.99609c.82861,0,1.5.67188,1.5,1.5s-.67139,1.5-1.5,1.5Z" />
  <path class="fill" d="m38.5,24.99414h-3.5v-.49414c0-.82812-.67139-1.5-1.5-1.5s-1.5.67188-1.5,1.5v17.99707c0,.82812.67139,1.5,1.5,1.5s1.5-.67188,1.5-1.5v-.50293h3.5c3.03271,0,5.5-2.24316,5.5-5v-7c0-2.75684-2.46729-5-5.5-5Zm2.5,12c0,1.10254-1.12158,2-2.5,2h-3.5v-11h3.5c1.37842,0,2.5.89746,2.5,2v7Z" />
</svg>